<mxfile host="Electron" agent="Mozilla/5.0 (Windows NT 10.0; Win64; x64) AppleWebKit/537.36 (KHTML, like Gecko) draw.io/25.0.2 Chrome/128.0.6613.186 Electron/32.2.5 Safari/537.36" version="25.0.2">
  <diagram name="Administrator" id="3uel2D1gyMoe_2EHk7Zz">
    <mxGraphModel dx="1615" dy="1008" grid="1" gridSize="10" guides="1" tooltips="1" connect="1" arrows="1" fold="1" page="1" pageScale="1" pageWidth="850" pageHeight="1100" math="0" shadow="0">
      <root>
        <mxCell id="0" />
        <mxCell id="1" parent="0" />
        <mxCell id="3BIfrz-TAk5w8rxtMMOB-1" value="" style="shape=image;verticalLabelPosition=bottom;labelBackgroundColor=default;verticalAlign=top;aspect=fixed;imageAspect=0;image=data:image/png,iVBORw0KGgoAAAANSUhEUgAAB3QAAAO8CAYAAACx8oXgAAAAAXNSR0IArs4c6QAAAARnQU1BAACxjwv8YQUAAAAJcEhZcwAAEnQAABJ0Ad5mH3gAAP+lSURBVHhe7N17fFTVvf//90yugIgSjAICCbWCGpGjQQjgBU5bvBSoHqwKHPst5VjEKvRrL6LFrz+oB+05VtQWqbX0q4eLF6oFVOScfgFtSKBgK5gKWEuAFJBAUAghTDIz+/fHzGRmdibJZPYanGRez8djPx7OXnuvWXvtz8zC+WSt7fovyRIAAAAAAAAAAAAAIOW47TsAAAAAAAAAAAAAAKmBhC4AAAAAAAAAAAAApCgSugAAAAAAAAAAAACQokjoAgAAAAAAAAAAAECKchUVFVn2nQAAAAAAAAAAAACALx4zdAEAAAAAAAAAAAAgRZHQBQAAAAAAAAAAAIAURUIXAAAAAAAAAAAAAFIUCV0AAAAAAAAAAAAASFEkdAEAAAAAAAAAAAAgRZHQBQAAAAAAAAAAAIAURUIXAAAAAAAAAAAAAFIUCV0AAAAAAAAAAAAASFEkdAEAAAAAAAAAAAAgRZHQBQAAAAAAAAAAAIAURUIXAAAAAAAAAAAAAFIUCV0AAAAAAAAAAAAASFEkdAEAAAAAAAAAAAAgRZHQBQAAAAAAAAAAAIAURUIXAAAAAAAAAAAAAFIUCV0AAAAAAAAAAAAASFEkdAEAAAAAAAAAAAAgRZHQBQAAAAAAAAAAAIAURUIXAAAAAAAAAAAAAFKUq6ioyLLvBIB0UHTr9/XVAfa9AV5PnY7t3a73Sreo6oSt8PJJ+v5X+qnqD09p5Ye2sg6vSJO+/1X1s++O4PUc06Htm/Q/5Z/ouD+i4Pyxmjb5CvWI2NWS5n2XqfyhX9VXh12k/LMyA7u8HtV9Vqkt6/5H2494w4e2432k49q+fInWH7bvD8lUv1GTdOOVvdUtU5K/Umuf/r122Q9DfIKfjeMfLNOSDdX2UgAAAAAAAABAAjLy8/Mfte8EgHSQf0mJvnSOVHekUgcOf67PPwttp+U6p6d65ffTpUMHKXv/du07GXHi+ZeqZGAPndizWR91upxVvi4t+ZJ66Jh2bSjXjr2VqozYDh2Xuuf10QUFg3Rp75P6aGe1GkOnnlWof7r8AuU2HlfVvkM61tSfzbcDlbt0oClRnq/hk/9VNxddoG7uelVXHVD1sc910t9F5+T10ZeuGKqCho9VccgTODyjm3qd41ZdRH0nXd3VI9cd414eVdXf9qg6eGozA8dp6j8XqsupSm3Z9Bd9/PHH+uToSfnsxyE+wc+G59MP9Ze9dfZSAAAAAAAAAEACmKELIG2FZug2ny0a0LP4Dt1xTW/leCq19je/166WkoKdSmiGbpX+56mVqrAXS1JWoW789jc0uFudKlY+r/+pCu4PzZw9sV3LfrNe8ea6c668QzOv6y3Pvv/Ri69XKCoNmHeV7rj9WvXOOqYt//Wiyo5FFoblj5mmKUN7tHgvW9Jj5Lc0bXhPVa1/Siu320vRbszQBQAAAAAAAADjeIYuALTg2LaXteavdVJOoa69prVFiNNMY6U++KROUjf1K+hpL223Lxf0lnRcuzbZkrmSVPO+/nv7McndU4OvyLeXOpaTkxH4j8ilowEAAAAAAAAASCEsuQwgbYWWXG5t6eQTn+Vo0NAL1aNLo/b8pTKQcLx8kr4/ZZwurIs8L1P5Q8fpG+O/puuvGa1RI0tUMnyYrhzcX1m1+1T1WdPCxMHzR6jrvj3KGHaLJo3/qq4dVaKSYUNU0O24qvYfkydq7YRM9bv6Vt1yyziNjTyux1jNnGxvh6S8wfrq+Ft181euDbRj2BB9qZdXh/ceVl2bicvQkssntGfzRy3Osu1acIWGXJArT/Vfw0vrhpZc9hzWh6G+ikPgPrj0+Z6t+uQze6lU783TkKIL1OX4Af3pb0ftxZKkboX/pCEX5LZ6L6MVadL3p2j0BbmSpB4DS1RSUhLoS9dYTbv7G/pS/T6dc91kTfratSoZNkjdq/+qPZ/7pbMv0sibx2v8P4/V6FGB80qKA3184O+HVR+6d+cH66n7UPVfnqiJEyPv3zFV7v1cXS/5qibderO+cu0olQwfoi91r9OePUfDy1hL4diacGPguJISDRt0oTIj4+ri8brvrptV1GVP9FLHwVgtKWjUXyoOhZeSPnukvjVzkq7NO6o//S007bmbel99s/5l4lc1dnTE+9QdUNWxiOnpoeuK1T85g5svuZzVT2O/9R19Y8yVurD+Y310OC2mugMAAAAAAACAMczQBYDWHKvSwXpJZ+erX469MOyim+7WlDGD1aPhoP5avl7rN5Rp+94T0jn9NHz8JI1sNpE1VwU3TNH4QTmq+vN6rd+0XVWnuqn30PGacuNFEcflaPDEuzVpVD/1rK/S9k3rVVZxTGcPGa8po2LMWO09VtOm3qii3l4d+euWQDsOeJU/aKym/K/xGtzNfkIiuqnf+T0keXXkYFzZ01b9be+hwHWOn6ZvjLpIvbtlRh9waL2ef+opPfv2ruj9jlTp/Q3rtWVfILl4bOd6rd+wXu+Hlo+WlD/qFg3vXq0tG8q0fX+lKvd7pZ7DNeXb4zW8X46O79qi9RvWa/2fKnSovpvyB43VHVH3LuDs4tv1jeKzVffXMq3fVKHqxm7qPfQb+sakOzTla4Xy/O1PTfc///IbNSkqWLqpaGIgtvJ9h7R903qt/9MunejST8MnfkuTLg/e0E8qdcgv9bjwIvWIOLtf72CMnN9PhRH7cy7ur56SDu3/JLinm4pu/ZbuGFWobrWBOGt6n/FTNGVk74izA2L2j527t8ZOnaQrzvHo0B9f1srtx+1HAAAAAAAAAADawAxdAGkrnhm6Uq4KrhiiC3L8+vxvf1FlnaTzL1XJwB7h87KKdO0/D9S5J7Zq2Yv/o48OHNbhTw+ocvd2fWR9SVcN6KXu3o/1l/31gSrPv1QlA3sq13VI//PSCpX9/bAOH6jUR9s/13lXfVn552bo6J8+1jFJ6jdWt47qI3fVer2wbIM+PnBYB/Z+pPf3d9XlQ/oq1xXZ/n766uSx6p91XNtfXaI1O6oC7dj5F+30F+ifLhqg/t2PamvTjMxYWp+hm9mtty6/aZKu758tff4Xrf3DvvBM3NAM3ZwLNKQkOHM11tbnpDbvDNfsO1Spk+cX6Us9u+ncvoNUdNVwlRRfqUEDz1G3hnodO3FSjW3MLG7/DF2PPv/0sDwXXK4hF+Tq6Pbfa8OOw/r8dPg6ull7tfbXq/WXQwdUuXufjllS76u/oqsuyNKed57Tyq1VOvzpYR2u2qOK7Yd17hWDdUF+tj7fsktHFa6nR/YpbVn6f7XuowM6fGCPPjzSXVdekq8ePdza9cbzevODA4H7/9dGFQwboPxcj3buqJJHki6+QZOG50sR9/9w1Sfa/ud96nrpUF08qI8aP6jQIe9xdSkcpgHnWTq69SNVW5KUr+Lr/0kXZElyd5Xn0FbtCeZTLxnxVX3p7Cr96c3AsTlX/ovuuOKcwHOMX3kv/D7bD+vcy4o0YEAfuf+2XVX1rfdP6LPh+fRD/WV/jq6adJuG5/tUveUNrdhyJOoOAAAAAAAAAADiwwxdAGhVtWramlTYWKHfL3pWT71YFkjCRqjbd0jHJSnTNutUkueTLaqIXJfYv0v7P5WUlaPAQsDSRUMGq5s82rV1e/QSxofWq2yPbUbkxUM1uJvk2fk/Wn8ouuj4nzapol7KuahIg6OLWtBPX/3+9/V923bf3Xdo7MBuOr6vTCuXvtcs4StJajyuqj2VqmxpO2Dv0DpVrFqkJSvLtOtInbz+QB/07F2k4TffobtnztSUMYUyMrm4PT7dr122RPKhd1/Us08/qzW7o/fLX6mqaknuTDW704cr9H5NxOt9hwL9dvITVeyL2O85qOqTkrJzFZoMXlR0kXJ0XH/9o+3++w9p0/ZDkru3vnx5jiSPPtl/THL3VmFoknBOP+WfLR37a4WOKUd9+obm7l6kwj6SDlfqb35J6qGrLust6ZC2vGV7jnFjpdb/+VDgGcaX2aaZx+ifsG4q+sYdurZvjo5te0PLymwBCQAAAAAAAACIGwldAGhVvvIi17BtVaa6nd1bFw29QsPH3Khv3PEtzfzmFVFL4EaqO3nCvks+vyR109lnS1JP9cnPlFStQ5GJv6BDNdHn9zz/PGVKqj4csW5wkyodqpbk7qk+59vLYjmmXRsCyxCv37BeW3Yfk8cveesq9d6LT2nJ61tUFf2g17D6vXpv1e/1+5a2LbHaJx2v2qK1S5/Xs88u0vOvrlHZB5WqrvNK7hzlD/2Gbr8mxhLTSeQ5YU/PR8jppvyCIl0xdKS+OnGSpvzbffrqAPtBQQ2ewGxbu89qFJ3m9ElRCdJ85Z8b2J/T+wpdMTR6G3x2hrySevYM9Mvxv1fpuDJ1Xt9gPw3sp946rqoPK1R1UurZpyCwf0Ch+mVJx/Z/EmxXb+X3lHSyWgdjNNRTVa3jknqc1yd6fyv90+2SG/XVATmS/7gqPyaZCwAAAAAAAABOkNAFgFblKCNLkk6oppUVY7sNHKspM+7T3d+5Q+PHjNXIoYPVr7tXB/ccip3Mk1RXa5+pGpKh3C6SlKnMVr6lj9dGzaUMTwJucdZke9Sp6oPt2h7cyt5+US+u2aW6boW69l+/pWubP1LVHL9HdQc+0ZYNv9ey55/VkvWB5Yd7XDFczZ9QmzynG2PcOXdPXTFxmr4/825NueWrGjtmuIr65yuzdpeqjtoPDjj+Wcx5zJLfZ99jk6+ewcT+4DFjNda+XZGvTEk5ZwX/ZODw31RVH36Obr9+faTGI9p/+JD2H/RKF/TXRZLyB/ZTjo7pb7tC8ReMM7/UVosixeyfoMycHB0/XC2Pu4euuulandlUPAAAAAAAAAB0Lq2kCgAAOv/L6tdF0oljOtRSorTnSE0af4Xyc47rk/9+WUuef1ZPPfWUnv31Mv2+InKt3fbyBpYfbkFOTvTivt7QCsxJ+mav27NWaz84Lrl76qqbxqq3iffpfa2mzfq+7ru55VTt8e1rtOWQpKzz1D+u2cXJc9GNd2jswB7yHNii3y99XouefkpPPbtIL778nipbmrGcsBodOymp8ROteeopPdXS9npF8PgqVVZ5pV59VODuqcK+OdLBSn0iqerwkWD/9dBFF/aQTlTpk6YJtsE4c0sZ4Td3xLNnrV5ZvlLr93ikc67SjSNtyzUDAAAAAAAAAOJm4ud4AOi0LioerB6Sju36IPbzYiX1GPxl9XRLdR+u1Zq/HtLxuvCzbXPOy2t6Hmr7HdPBaq+kfPWOsZxvYe/zol4fO3xEXkm9L4yVHO2n3vmS/Md08LC9LH6H3l2r7ScknX2FbrzewDTdY3U6JSmz8BINbnFE6qacHLU5Szr5LtIlhTmSqrRpZZkqj9TJ05Rwz1fPc6KPdu6Yjte2nMjOKb5D379vpu4YHk6WfrL/kKTe6n9ZofqcIx37NLC8tafyoI6rh/Ivukz9e0meqr9FxPMhVR+TdFY/FZ7dtLNJTr989ZB0/MhBe1GLTp84pjp5tOsPW3TIL/Uc9jVddcYfggwAAAAAAAAAnUOLP58DQHrLVP7Vd+hrF+dInk+0qbzl54WebggsPZuZmxtd0O0ife3KQNIzNyuxtO4nO3apTjkaPOwKReXDeo/VyIHRM3T18QfaVSdlXnStxtpyrT2uHqWiLpJ3zy7tii5qH/8hrf9Dheok9bj8Rl0bI9HYLp73te0Tj5R1kcZOGq78LPsBmcq/+msa2lPy7tulXa3MWE4+j057JSknuCR2WM9R16oouEx2IPlsgkcVf62SVz102TVXqEfkiJ01WF+7ureUWaf9f4uIzY8rdUiZ6ldyVeD5uX8PLqtcU6mqeql38XD1lldVeyOfY3xc7//1kKSeGvqVoug4yyrU2Ct7B56p/NeWPwMtqntf/731mOTurZE32mIYAAAAAAAAABCXjPz8/EftOwEgHeRfUqIvnSNldr9A/QoHa/Dg4HbZVbr2n8fqqoLuyvQf0/u/e1V/qY048fxLVTKwh07s2ayPqiVfjXTh0C+pZ36hBvXMkrr11JeKxuirN1ylPnXHdLxLF3WrP6DNO4NzIm3nRwq0yaPDH/5FlXWSThxQ3flDNKjgy7rqsgvVNStL+Rdfo3FjL1YPSXIpop4T2nOwqy69bIAGXHapCrp3UcbZfXTZyHG68fJeUn2l/t+qUlW3ujRwvi4t+ZJ66IT2bP4o9qzk43t0PO9KDerVTX16u/XxjirVS9JZhfqnyy9QrruLzu09QBeH+jPWdk6ddh04IUk69vd/KPviIvU7v5+GFA/TlYMHqm/BRdH34eQnWvf7Uh1uoe3dCv9JQy7IjdmnrYl5XvA69OmH+sveyOcUn9DJ7pdqyAV56jfoQnXNzNLZfS9Tydgbdf2XcnXsuE9dcl36/G/Be9diPcE+Pr4nHBOSpG4qvHKILtBhffiXStVJ8lXv06k+Rfpy/y/rny4N3P+zC67UDTeUqG+udPyDVVq982S4Ct8pnf3lf9KAc7Klxn9o64aPFUjDnlDX/iX60rmSGvdoy7qPddSKOO1QpU72KdLFAy5W0ZcvUPfcnOD7jFa/rtKxbav05u7g+7R4XeHY9kSU1VcdUtfLhqhPfh/1PL5Du46250m9AAAAAAAAAABm6AJIe93OK1ThwIhtQL5yvMd06MP1WrboRb13yH6GjadCK1esV+WxDPUcNFxjx4zVVQMzdOjdZXr2xfWqqpfUq7f62c+Li0e7Vr2o3/+pSse69NMVo8ZqZFFPndqxRms+PC7Jo+OBvGjAofVasnS9dtVk6rzLhmvsmJG6ok+mqnev17Lf/F4Vtvxboj75w3pVeiT1Gq6vFdvmXWb1UL/I/oy19e0RPt5/SO+9+KyW/fd2VX3uU8Y5vcP3wVOtyj+t0ZLfrNEuQ213onrDK/r9B4dUlxu4F2NLLlOPug+05reL9PKHxyT1UH5fY1N0JdWp4vXntWzDLlVn9A6859WDdba/WrvWv6glG+zBeVx//XtwJu2n+/VJREnVp8H9BytjzHSuU8XrgTir6x68tuKL1K2+SlvWLNGLf7S/T3tUB2d156hwzNd0Ef/yAAAAAAAAAIB2cRUVFUXM0QEAtOnySfr+V/qp6g9PaeWH9sIzp9/XZmrSZaf1/ktL9F6NvRQAAAAAAAAAAHQGzJMBgHbKybE9uzaJel4zTd//3t268WJbgfsiDb0oR6qrUiXJXAAAAAAAAAAAOi2eoQsA8epXpJEDL9LQqwbr3Oxj2rVhu6o89oPMqvd016VDBujCL4eeidtTBZeU6CvjhqtvrkdV772pza0/FBcAAAAAAAAAAHRgLLkMAHHqOepb+tbVPSV/nQ5tXaOXy5w8VzR+meddoa+OG66L8rop0y3J71VdzSfasu5/tP2I1344AAAAAAAAAADoREjoAgAAAAAAAAAAAECK4hm6AAAAAAAAAAAAAJCiSOgCAAAAAAAAAAAAQIoioQsAAAAAAAAAAAAAKYqELgAAAAAAAAAAAACkKBK6AAAAAAAAAAAAAJCiSOgCAAAAAAAAAAAAQIoioQsAAAAAAAAAAAAAKYqELgAAAAAAAAAAAACkKBK6AAAAAAAAAAAAAJCiSOgCAAAAAAAAAAAAQIoioQsAAAAAAAAAAAAAKYqELgAAAAAAAAAAAACkKBK6AAAAAAAAAAAAAJCiSOgCAAAAAAAAAAAAQIoioQsAAAAAAAAAAAAAKYqELgAAAAAAAAAAAACkKNeJEyes7OxsuVwue1lCLMsyVleymG6j6foaGxuVkZEhtzt18+2mrznV6/P5fLIsS5mZmfaihJluY6rXZ5rf75fX61V2dra9KGGmr9l0fclguo0ej0eMKc6Yro8xxTnT9TGmpB7GFDNMt5ExxTnT9TGmOGe6PsaU1MOYYobpNjKmOGe6PsYU50zXx5iSehhTzDDdRsYU50zXx5jinOn6GFOSw1VbW2t17drVWLA3NjbK7XYrIyPDXpQQr9crScZufDIGQtNf4vX19crMzFRWVpa9KCHp2Iem49Dj8ciyLOXm5tqLEpKOfWg6Dr1erzwej7p162YvSli69aHpOLQsS3V1dWJMccZ0HDKmOGc6DhlTnDMdh4wpzpmOQ8YUM0zHIWOKc6bjkDHFOdNxyJjinOk4ZEwxw3QcMqY4ZzoOGVOcMx2HjCnOmY5DxhQzTMchY4pzpuOQMcW5WHFo5lsHAAAAAAAAAAAAAGAcCV0AAAAAAAAAAAAASFEkdAEAAAAAAAAAAAAgRZHQBQAAAAAAAAAAAIAURUIXAAAAAAAAAAAAAFIUCV0AAAAAAAAAAAAASFEkdAEAAAAAAAAAAAAgRZHQBQAAAAAAAAAAAIAURUIXAAAAAAAAAAAAAFIUCV0AAAAAAAAAAAAASFEkdAEAAAAAAAAAAAAgRZHQBQAAAAAAAAAAAIAURUIXAAAAAAAAAAAAAFIUCV0AAAAAAAAAAAAASFEkdAEAAAAAAAAAAAAgRZHQBQAAAAAAAAAAAIAU5aqtrbW6du0qt9tMbrexsVFut1sZGRn2ooR4vV5JUmZmpr0oIX6/X16vV9nZ2faihHk8HmVnZ8vlctmLElJfX6/MzExlZWXZixKSjn1oOg49Ho8sy1Jubq69KCHp2Iem49Dr9crj8ahbt272onZpbGyU1+uVZVn2IgAAAAAAAAAdjMvlUmZmpjIyMoz+BmtZlurq6kQ+xRnTv2OTT3HOdByST3EuVhxmPPTQQ49mZmYaa7Tf75fL5TJWn2VZsizL2Bekgm00WZ/P5zNaX+jGm6ozHfvQdBz6fD5JMvZhVBr2oek4tCxLPp/P0UDt8Xia7i0AAAAAAACAzsHv9zf9vmnq90gFf7snn+KM6d+xyac4ZzoOyac4FysOXSdOnLCysrKMvQmc83q9Rr+A4JzP55NlWcb+KgfO+f1+Rwldv98vi1m5AAAAAAAAQKdlOqHb0NAg8imphXxK6iGfkhyu2tpaq0uXLsaC3fSHx/SNd5oEisX0l7jpJQLSsQ9Nx2FDQ4Msy1JOTo69KCHp2Iem49Dn88nj8ahr1672oricPn2ahC4AAAAAAADQyXXp0sW+K2F1dXUin+KM6d+xyac4ZzoOyac4FysOeYauAabX2jb9BZSOfWg6Dlnz3TnTceh1+AzdU6dO2XcBAAAAAAAA6GQSnRBiZ/EMXSNM/45NPsU503FIPsW5WHFo5lsHAAAAAAAAAAAAAGAcCV0AAAAAAAAAAAAASFEkdAEAAAAAAAAAAAAgRZHQBQAAAAAAAAAAAIAURUIXAAAAAAAAAAAAAFIUCV0AAAAAAAAAAAAASFEkdAEAAAAAAAAAAAAgRZHQBQAAAAAAAAAAAIAURUIXAJza9ZrmzZsXva3cGXXI0fcWad6iP+po1F7Tduq1efP02i77fgAAAAAAAAAA0FGR0AUAB46+t0jzXj2iMTMf0SOPhLaZGlP9WlQCt9e1M/XIzGvUy3Y+AAAAAAAAAABAa0joAkDCjmpnxVH1uv6buiYqU9tL13xzjHod3aANzJYFAAAAAAAAAAAOZDz00EOPZmVlyeVy2csS4vf75XK55HabyRX7/X5JMlafZVny+/3KyMiwFyXM5/MpIyPDWB96vV653W5jbUzHPjQdhz6fT5KUmZlpL0pIOvah6Tj0+/3y+XzKzs62F8WlsbHRvisB+/SntR/pVMEwDRvQNbqo6wANu+46XRZM9B59b5H+863TumzYAAWOPKo/LvpPvbj2Xb377rt694hb7o0v6sV9+bru0vMCyzgv+kj553+k5xb9LnDMu++q+vxwnc0d1UfvfiRdFjom8B5v1efr9FvPhd/rr+6IdgAAAAAAAACdV1ZWln1XwhobG0U+xRnTv2OTT3HOdByST3EuVhyaqRkA0tIlKrpUOrqxvc/HPao/LlqkDfm3RSzRvEEbmlWwU6+tv0Azg0s533aptPPV1xT9dN62Hd34mj4dG1wOemZg5vCr7zV7MwAAAAAAAAAAkIJI6AKAA5dMCiRadXSDFs2bp3nB7bXWllretUEbjl6i2yZdEtwRXKLZdpjUS2O+GX7u7iXXj1Ev7VRFa3XHcultum1w8L97XaMxl0pHK3a2IwENAAAAAAAAAAC+KCR0AcChSyYFZ78+cptCKdqdr87TvHmxZ9PurNgp9bpA50Xu7HWJLm+W0T1PvZrta79e+VHvBAAAAAAAAAAAOhASugBgzCW6Lbg88iPfvETSTm1gaWMAAAAAAAAAAOAACV0ASIbBYzSml3S0+oi9BAAAAAAAAAAAIG6uEydOWNnZ2XK5XPayhFiWZayuZDHdRtP1NTY2KiMjQ2536ubbTV9zqtfn8/lkWZYyMzPtRQkz3cZUr880v98vr9er7Oxse1FcvF6vfVf77XpN8149ojEzZ+qaZksjH9UfFy3Sh0UzNfPaXjr63iItqrhcM2deo167XtO8V6XbIpZo1tE/atGiDTp66W16ZNIlwbpjH3PeNx8JPxM3yk69Nu81qak8ug1NR62cp9eqxwTaEnk6AAAAAAAA0MmY/E3X4/GIfIozpusjn+Kc6frIpySHq7a21srNzTUW7F6vV26321h9Pp9PkpSRkWEvSojf75ff7zcWSJZlyev1KjMz09jNOn36tDIzM421MR370HQcNjQ0yLIs5eTk2IsSko59aDoOfT6fGhoa1KVLF3tRXE6fPm3flYBAwnTD0UuiE68KJXvDCdmohG7ovPxg8rapHqnX9cHkKwldAAAAAAAAwLHc3Fz7roRYlqX6+nqRT0lcMn7HJp/inOk4JJ/iXKw4dNXW1lpdu3Y19iaNjY1yu93Ggj00i87UjXI6qy8W03+VU19fr8zMTGVlZdmLEpKOfWg6Dj0ejyzLMjb4p2Mfmo5Dr9crj8ejbt262YvicurUKfuuhB19b5EWbbQ9Kzc00zYoOqGrqCSuJPW6/jZdXvFaOPlKQhcAAAAAAABwrGvXrvZdCbEsS3V1dSKf4ozp37HJpzhnOg7JpzgXKw5J6Bpg+sbzBeSc6TjkC8g503GYSgldM+zJWAAAAAAAAABOkdBNXEf4HZt8inOm45B8inOx4tDMtw4AIG5H31ukefMW6Y8Rk3qPvrdBO3WJikjmAgAAAAAAAACACCR0AeAM63XtTN126VFtWDRP8+YFtkUbz2v+HF4AAAAAAAAAAJD2WHLZANNTs1kiwDnTccgSAc6ZjsPOt+QyAAAAAAAAANNYcjlxHeF3bPIpzpmOQ/IpzsWKQzPfOgAAAAAAAAAAAAAA40joAgAAAAAAAAAAAECKIqELAAAAAAAAAAAAACmKhC4AAAAAAAAAAAAApCgSugAAAAAAAAAAAACQokjoAgAAAAAAAAAAAECKIqELAAAAAAAAAAAAACmKhC6AtORyuey7AAAAAAAAAAAAUg4JXQBpKTMz074LAAAAAAAAQCfidpMCAdA58G0GIC1lZWXxDzoAAAAAAACgk3K73fz+B6DT4NsMQNrKzc1VVlYWyy8DAAAAAAAAnYTL5VJWVpays7PtRQDQYblqa2utrl27GvtLlcbGRrndbmVkZNiLEuL1eiWDy6P6/X55vV6jX+Yej0fZ2dnGkkL19fXKzMxUVlaWvSgh6diHpuPQ4/HIsizl5ubaixKSjn1oOg69Xq88Ho+6detmL0pYuvWh6Ti0LEt1dXViTHHGdBwypjhnOg4ZU5wzHYeMKc6ZjkPGFDNMxyFjinOm45AxxTnTcciY4pzpOGRMMcN0HDKmOGc6DhlTnDMdh4wpzpmOQ8YUM0zHIWOKc6bjkDHFuVhxaOZbBwAAAAAAAAAAAABgnOvEiRNWTk6Osb8o8fv9crlcxrLafr9fMvjwcsuy5Pf7jWXJJcnn88ntdhu7Zo/Ho4yMDKN/AaI060PTcdjY2CjLsoz9BUg69qHpOPT5fGpsbDT2Vz5Kwz40HYeWZen06dNiTHHGdBwypjhnOg4ZU5wzHYeMKc6ZjkPGFDNMxyFjinOm45AxxTnTcciY4pzpOGRMMcN0HDKmOGc6DhlTnDMdh4wpzpmOQ8YUM0zHIWOKc6bjkDHFuVhx6Db5BsmQjLalep2m74nJukI6Sp2mmL4nStL1JqNOU0y3LRn3RElop0nJaJvJOkP3xGSdpiWjbalep+l7YrKukI5Spymm74mSdL3JqNMU021Lxj1REtppUjLaZrLO0D0xWadpyWhbqtdp+p6YrCuko9Rpiul7oiRdbzLqNMV025JxT5SEdpqUjLaZrDN0T0zWaVoy2pbqdZq+JybrCukodZpi+p4oSdebjDpNMd22ZNwTJaGdJiWjbSbrDN0Tk3Waloy2pXqdpu+JybpCOkqdppi+J0rS9SajTlNitY1n6Bpgeq1t1nx3znQcsua7c6bjkOeIOGc6Di2eI2KE6ThkTHHOdBwypjhnOg4ZU5wzHYeMKWaYjkPGFOdMxyFjinOm45AxxTnTcciYYobpOGRMcc50HDKmOGc6DhlTnDMdh4wpZpiOQ8YU50zHIWOKc7Hi0My3DgAAAAAAAAAAAADAOBK6AAAAAAAAAAAAAJCiSOgCAAAAAAAAAAAAQIoioQsAAAAAAAAAAAAAKYqELgAAAAAAAAAAAACkKBK6AAAAAAAAAAAAAJCiSOgCAAAAAAAAAAAAQIoioQsAAAAAAAAAAAAAKYqELgAAAAAAAAAAAACkKBK6AAAAAAAAAAAAAJCiSOgCAAAAAAAAAAAAQIoioQsAAAAAAAAAAAAAKYqELgAAAAAAAAAAAACkKBK6AAAAAAAAAAAAAJCiSOgCAAAAAAAAAAAAQIoioQsAAAAAAAAAAAAAKYqELgAAAAAAAAAAAACkKNeJEyesnJwcuVwue1lCfD6fXC6X3G4zuWK/3y/LspSRkWEvSohlWfL7/cbqkySv16uMjAxjfdjQ0KCMjAxjbUzHPjQdh16vV5ZlKSsry16UkHTsQ9Nx6Pf71djYqJycHHtRwtKtD5MRh6dPnxZjijOm45AxxTnTcciY4pzpOGRMcS4ZcciY4pzpOGRMcc50HDKmOGc6DhlTnEtGHDKmOGc6DhlTnDMdh4wpzpmOQ8YU55IRh4wpzpmOQ8YU50zHIWOKc7Hi0HXixAnLZCdYlmWsAxSsT5LxOlO5Pr/fL5fLZazOdOzDZNRnWZaxD6OS1MZUr08G4zBd74kM9qGS0Eafz2d0YDXdvo7Qh6brY0xxLhn1peP3l+n6ZDAO0/WeyGAfKgltZExxznR9jCnOJaO+dPz+Ml2fDMZhut4TGexDJaGNjCnOma6PMcW5ZNSXjt9f8dT3y7UVenPbfn1e57EXIYnO6Zajrxf31703FtmL2iXe+xwvxhTnTNfHmOJcMupjTHEmVhy6amtrra5duxrr2MbGRrndbmNfal6vV5KUmZlpL0qI3++X1+tVdna2vShhHo9H2dnZxm5WfX29MjMzjf31Qjr2oek49Hg8sixLubm59qKEpGMfmo5Dr9crj8ejbt262YsSlm59aDoOLctSXV2dGFOcMR2HjCnOmY5DxhTnTMchY4pzpuOQMcUM03HImOKc6ThkTHHOdBwypjhnOg4ZU8wwHYeMKc6ZjkPGlNhue+JtHfi8QR5lyeVu+TiYZ/l9ylGj+p6Trdd+fJO9OC6m45AxxQzTn2XGFOdMxyFjinOx4tDMtw4AAAAAAAAAAJ3EU6v+ogOfN6jBnUsy9wvgcmeowZ2rA5836KlVf7EXA0DaIaELAAAAAAAAAECE32/ZI4/MzPhD4jzK0u+37LHvBoC0Q0IXAAAAAAAAAIAIn588zczcFOByZ+jzk6ftuwEg7ZDQBQAAAAAAAAAAAIAURUIXAGKo3btVq176mX501xTd9pViFReHtjG67a4p+tHji/Tqut062GA/s2U1q2dF1DNLq6rtR6SJ6lWa1dQPxSp+Zof9CAAAAAAAAAAAEERCFwAi1GxZolk3jdSYSfdo/jOvav1Hu1X5eeQRtar8aLfWr1yinz08RRNGjtG0x1dpd23kMQAAAAAAAAAAAGaQ0AUASfLVqPyZb2vC957Tpup2TLtVrXasnK8pN0/Tko/acx4AAAAAAAAAAEDbSOgCgBq045cz9INXPlZUSvacQo2dNE2zH3laz/3yueD2U/1o+jc1tqB75JHSqR1aNOPbWvpx9G4AAAAAAAAAAAAnSOgCwMdLNf+lyvDrroM09eerVbbuNf3swZmaOmGUhg0fFtxu0Ddn/Eg/W7lBZauf07Sh2eHzTu3WwoeWaLcvvCtS3oSntW3btuD2tCbm248AAAAAAAAAAACIRkIXQJqr1foXFymczi3U1Gd+q9nX9lF2RtSBzWT3GaaZz/xWMy+P2Ll3kX7zBx6oCwAAAAAAAAAAzCChCyC9+XZpx7qI11+Zpu9EzrptS9dBmjZnpgojdq1/b6tI6QIAAAAAAKS7Ir322A3aFrnNLrIfJN06OvqYyG3uME2VJBXoubkxym3ba7eq6X0D/20zapg22M7Z8J0C+1GaO/sGbXvsn/XcKHtJuA57/YFzYrUHAOAUCV0A6a3mYMTsXGnY8CGyPR23bReP0W2XRrxet0O7Wlh2GQAAAAAAAGng1tHa9tiF6rVnl4offie47dLW7hdq22OjNdd+vBq19e3QcRHHK0+z5w7TVO3VPfMjy/6hSkm1UfW/o9tet9cbNvU7/6xtN+Xp6PvR9RwdODgicRwpS8PGxtpvF0g2T+xeo4WR7X+7Rr2uip0wBgC0DwldAIhw4PNE5tYWanCxpK55GnTpIA26tFa1n9uPkWpWz1JxcXFwm6VV1fYjYvi8UptW/kw/uus2fXXECI0YMULFX7lNU364UKs+qGk6LKru+1cpXBKyQwub3rtYCz8Il9Tu3aRXH/+Rpkwa01Q+8qYpuueRRVHvcebt0LMlJRo+fHgHajMAAAAAAEh7o4Zpw1VnqfL9dzTmN3sjCgJJ2VVHztLEmAlUu726Z32NanPP1qhYM2Xb49bRmj1Q2vq2PelbodtCieNYs4dz8/SdthKyo87T4NxGbV2/VUsj92/aqt/saVT3gRfGSGADANqDhC6A9JbXJ2q55IOvv6OtpyJ2xGnI/du07b11WvbSMi17aa7G5tmPaCdfjba+cI/GfOU2zXr8Va3/qDK8jPPnldq9YanmTx+nMfcu1Y5EctCSdGq3Vsz+msZMmqWfrVyv3XvDFTVU79bWt5c4fw/TTu3W0nvHdKw2AwAAAACAtDJ3WJ66n67RqhZmy87fWqPa3DxNjHs54iz1Ot++rz0K9NxlZ0lHDuueTfYyBRLHfz0pnXd+9BLLp2u09YjaTsien9PiindLf/P/VPxwqebbCwAA7UJCF0B6y7hCo26PeGbuoaWa9ZNXtTvGDNszxndQq344XvcsbvtZvLVbFmrat+dr1ScN9qLWndihp//Xv+rZP520lzQTeI9F2tHOtzDuxA4tvGuKFm5pq1dSqM0AAAAAACDNFKhPd6n24JHo2aqRNh3RrtNSr3PbmPmqULK0UUcP2wva4yz1ypUq91fYC8Je/1yVMRLHmxb+Q5U6SxNjzd4NCZ477CaWVwaAZCGhCyDNZWvYbbM1JGJPw3s/05SvjNFtP1yoVVsqVXNGk4IN2vHLWZr/XsSbnjNMM3/+mt7asFmbN2/Wti1lWv3CXE0dGkxE712lRcu3ho+Pw6s/maFleyUpW4Nu+ZGWvLFBZVu2adu2bdr23moteXCiBnWNOGHvEi1cfTBix5n36k9maGkHazMAAAAAAEg3geRpPLp3P8u+y6ZIr111lnT6hDbFnFkbp1Fd1Mu+rwXNk8wVWrWnUTrvQr3W4oziCt0WfKZv94GDte2xG4JbrGcFAwASQUIXAAq+qZ8+MkoR83Ql1apyw1LNv/c2jRtZrDGT7tFPfv6q3vmgUjUJLMkct4+Xav5LleHXBVP13BvPadq1hcrrEtyXka0+Qydq9q/W6bm7IheMjl/DqQZJBbrzF29q2cPf1JB+3ZWdESzs2kdDJs3VbxfPjEp073jpHe2OeH2mBdpcqKmL13WYNgMAAAAAAMQnMMM1nAy9Qdseu1CFR/6h4vm2Z9OeYUt/83dtPS0VXtVagrZCtz38jooffkfF74dWhDtLEx+7Qdtam90LAIiLW5IsyzK2hdj3J7qZrCu0ma7TdH2mt2S0z3SdyajPZJ2m67OSdM32fU4209dssi4rCe3rPX6hVj55Z/QMzwi1e7fqneU/00+m36Zx1xZr5E3f1k9+/qrWfnRAHm/z+qxYbYyqMVbbT2jtkkVqSud2HaWfPDNLxWeF64s63n2Wimcu1E+uiU5FS/Z6LUU0p8nlDzyh+648K8axgS3rkimaEbkc9cHt2nm4+XGRm+xtbGGLYrV0TvRhknT5D57QrKsSb7PibF97NtN1mq7P9JaM9pmuMxn1mazTdH1Wkq7Zvs/JZvqaTdZlJaF9Vgdoo8m6QpvpOpNRn8k6TdYV2kzXabo+01sy2me6zmTUZ7JO0/VZSbpm+z4nm+lrNlmXlYT2WR2gjSbrCm2m60xGfSbrNFlXaDNdp+n6TG/JaJ/pOpNRn8k6TddnJema7fucbG1dc+JO6uhp+77YamsjH4XVqK1vBxOikdvCVpZJjtemeh2172vB0c/22ncFnrG7vka1bS29HPJ6aVP7Vx1R82fzJsB+f+LdnJwba0tGfSbrNFlXaDNdp+n6TG/JaJ/pOpNRn8k6TddnJema7fucbKavOVZdrhMnTlhZWVlyuVxNb4gvltfrldvtltvNBOpU4fP5ZFmWMjMz7UX4gliWJa/Xq6ysLHuRMyf3qnz1i/q/S/9bFcfthS3oUaSvTb1b37v9KuWFZozGUPPWDzTh38uDr0o0543/1NfzIw44/t966Kb/T+8GX/ae/lut/PbFEQe0YNeLmvSd53Uo9HrEHK1+8uvKizqoQr8Y9V2taHp9nf7P2/+ur/WIOqiZk+v/P42b+9/BV7119/9dqW992XZQhIaGBrU5plS/qR/cskChntDkX2nTvbH+Z+DMtLmzY0xJPYwpqSdpYwociWtMwRnFmJJ6GFNSD2NKamJMST2MKamHMaW5q3+4Ulndo39didfc2TdoYvcaLWxpZu2oYdpwU56Ovv+Obntd0q2jte2qHG19+//pnriXVi7Sa49dqF57dmnMb+xJ2ECZQvWrQM/NHaxhtf9oOUFsa0Osa5j6nX/W7IHS1vdPaPBVEe1vjf1aE9BYW6M//cck++4vBGNK6mFMST2MKcnhqq2ttbp06aKMjFayEO3Q2Ngot9ttrD6v1ytJxm683++X1+tVdrZ9RltiLMtq+hI39YVx6tQpZWVlGfsfwHTsQ9Nx6PF4ZFmWcnPjfABGG9KxD03HodfrlcfjUbdu3exFCWnWh74G1VRtV+k7q/TOHzZp695a+ynNFUzU3Cd+rIlfCtxXex/WrJ6lcfNC/yofpblvP62JEQnd2j/8RGMefCf4qo9mLl+taRH53Jb7sFKv3nWbfvZR8OXIuVr3zERbQneHFhZPC/9PRPFc/X7ReOW3FYcfLFTx9PD/ekx9YZtmD406oollWaqrq1ObY0r1Ks26ab6a/v/kriXadn/kQskhO/Tz4mlaHnpZPFerF09Un+iDmmulzS33YWI6wmeZMcU5+2fZKcYU50zHYdLHFANSvQ+TEYdxjSntkI59aDoOGVOcMx2HjCnOmY5DxhTnkhGHjCnOJCMOGVOcMx2HjCnNXXH/soQTum0lMZslS5Oe0G3rPZonfJu1MfK4YJhUBuuPfWzQqGHacNPZ2hXzfePTWFuj7c9Mse9uUzLikDHFmWR8lhlTnDMdh4wpzsWKQ7ck/prEgVDfmexDk3V1BMnow3RDHzrXrA8zspVXMEwTZ/xUz63coG1lG7T6pac1d/oNGlbQPfrkkL2rNP/b39aiDxrsJXGp/GR9xKuxuvxLES9bVajBxfZ9bbi4T9uJ0QQlLQ6T2OZU0SwODTBZV0eQjD5MN/Shc/ShOfRh4pIRhybr6giS0Yfphj50jj40hz5MXDLi0GRdHUEy+jDddLg+3LRVY94/qcKrbtCG7xREFBToubk3aOJ5J7UqVvIzmV4v1cI90rCbbtBrt0YWFOm1xwZrmGq0sKXZu01CSy9Hm7+1RrW5eZodYznmucPy1P3I4YSTuamow8RhCkrGZ9lkXR1BMvow3XTUPjSTegaAzi67u/pcOiqc4H1vtZY9Nls3XG5L7p7arSWPLNKOdud0a3W0KuKkPmfr7Hb8MU/fgnY+iCQzx74n9XXENgMAAAAAgPT0eqmKH/6Hjg4crG2P3RDcgrNgHy7VfPvxZ8DS3/w/Fb9do15Xhdpzg7YFZ/kWx5tg3rRV64803zfm4V3a2v3CiHoD25D9hp4DDABpjoQuACSiax8NGjdVP/3tBq375TQN6RpRdnCpFq4+GLEjHg2qjfzzxoI89Yp4CQAAAAAAgI6mQrc9/I6KI7dYyc3XS1X8cHuXJA7U3Xy55XBZrOWeA8nX6DbFqmP+wndaTPLOXxg4L7r+vbpnvu1amx0DAEgUCV0AcChv+Ewt/vnUqOWAd5TtUE3EawAAAAAAAAAAgESQ0AWQvv7+qu65a4qm3DVF464t1s83t3ud5CbZxRM19dKIHe/t0qGIl/HICT/fXPrggA5EvAQAAAAAAAAAAOmJhC6A9JUhnfhot3Z/tFs1p6Sync2Xl4lfoQYX2/e1R576XJwdfnnqpGrbkV8+sLdda/IAAAAAAAAAAIAOgoQugPTVr1DDIl4eeqtcu30RO9qlVkcPR7zsc7Yi0rNxKbxobMSrUu2OO79cqV3b7PsAAAAAAAAAAEBnQEIXQPrKuEKjbo9Iux56Xs+tORh5RPw+36R31kW8HjlIBREv49F9yDCNanp1UL9/b3dUeYuqtuqdj+w7AQAAAAAAAABAZ0BCF0Aay9awidNVGLFn02OzNX9dO5O6voNaNW+e1jftyNY3xwxr9wxd5Y/VjV8Jvzz40iK9Ux15QCwN2rRsoXbYdwMAAAAAAAAAgE6BhC6A9HbxVM29KzKlW6lVD0/QmHuXaNPe2oj9sdV+tErz/3WS5r8XfuBt9rWP6DvD253OldRdN0ybGU4wn9qkeQ8t0e5T0UeFNajylR/qhyvb8bBdAAAAAAAAAADQoZDQBZDmsjXk3qc199roBGztlkWaNWmMRt40TT/5+SK9um6rtm4Jbute1aLHf6QpN43UmLvma9XHEQnVgqla/NMblBdZWXvYEswNHyzSlAn3aMl7laqpD+70Nahm7yYtuXecbvuPTSKdCwAAAAAAAABA50VCFwAy+mjif6zU/7m5+VNvG6p36J3lS/Szh+/RPfcGt4d/piUr12t3dXQqNfviqXr6V7M1pGvU7naKkWD+fKsW/e/bdPOYERoxYoSKh4/UuEmztGhLYAZx9sVjNerS8OEAAAAAAAAAAKDzIKELAAokdb/20DK984tZuuHy7vbS1p0zRN98ZJnW/ddsjUp4am6EjD6a+B9r9PTkQW0+h7f7V36kZS/8WGPPsZcAAAAAAAAgUeeclSvL77Pvxhlm+X0656xc+24ASDskdAEgQt7wqfrpbzeobPUyPf3IbE29aZgGXVqo6BRvdxVeOkw3TP6RfvrSapWtW6IfTRik7hlRBzmTkadR/3uZyt5eornTb9Cwi/PCyd1zCjXspmn66UsbtOHxb6rQPiM4M8e2AwAAAAAAAO3xjeEDlaNG+26cYTlq1DeGD7TvBoC046qtrbW6du0qt9tMbrexsVFut1sZGWYyG16vV5KUmZlpL0qI3++X1+tVdnZb897i5/F4lJ2dLZfLZS9KSH19vTIzM5WVlWUvSkg69qHpOPR4PLIsS7m5Zv4aLB370HQcer1eeTwedevWzV6UsI7bhzVadf84zS8LvrxribbdP8R2THOm49CyLNXV1YkxxRnTcciY4pzpOGRMcc50HDKmOGc6DhlTzDAdh4wpzpmOQ8YU50zHIWOKc6bjkDHFDNNxyJjinOk4ZEyJ7bYn3taBzxvkUZZc7paPg3mW36ccNarvOdl67cc32YvjYjoOGVPMMP1ZZkxxznQcMqY4FysOzXzrAACcq16lWTdN0ZR7f6KFi5dq00H7AS1o2KXdoWSupFEFfSNLAQAAAAAAkIDXfnyTbhsxQGe5TquxtobtDG5nuU7rthEDEk7mAkBnwwxdA0xn8vmLEudMxyF/UeKc6Tj0dsq/fN+hhcXTtDT4qs+MZVo9fVBTaUt9WPuHn2jcg++oQZLURzOXr9a0i6MOicl0HPJXimaYjkPGFOdMxyFjinOm47BzjimtM92HpuOQMcUM03HImOKc6ThkTHHOdBwypjhnOg4ZU8wwHYeMKc6ZjkPGFOdMxyFjinOm45AxxQzTcciY4pzpOGRMcS5WHJr51gEAGFCoIePCrw6+tEir2pqlW7VKP5kXSuZKunyqbogjmQsAAAAAAAAAADoG14kTJyyTWWjLsozVFWK6zlSvz3QmX0loY7rV5/P5ZFmWsb/KURLamOr1yXCdyfirHJPtU4L1NfzpSX1t9u/CCdouF2v8vT/Qt752sfqclR2o09+ok4f2qux/fqVnl5arpj50cIH+16//r+6+LP4+SaSNrTH9l02m26ck1Jnq9TGmOGe6PsYUM0zW2VnHlLaYrtN0fYwpzpmujzHFOdP1MaaYYbJOxhQzTNfHmOKc6foYU5wzXR9jihkm62RMMcN0fYwpzpmujzHFOdP1MaaYYa/TVVtba+Xm5hpbIsDr9crtdhurz+/3y7IsYx9Gy7Lk8/mMBlJjY6MyMzON3azTp08rMzPTWBvTsQ9Nx2FjY6P8fr9ycnLsRQlJxz40HYc+n08NDQ3q0qWLvShhqdGHDfrw2an6zn/ttRe0oUATFizUT/65j72gRcmIw1OnTokxxRnTcciY4pzpOGRMcc50HHbeMaVlpvswGXHImOKc6ThkTHHOdBwypjhnOg4ZU5xLRhwypjhnOg4ZU5wzHYeMKc6ZjkPGFOeSEYeMKc6ZjkPGFOdMxyFjinOx4pBn6Bpg+q9yWPPdOdNxyJrvzpmOQ2+nfo5IgypXP6Gf/Ocq7T5lL2su++KJ+vGjszXx4u72olaZjkOL54gYYToOGVOcMx2HjCnOmY7Dzj2mxGa6D03HIWOKGabjkDHFOdNxyJjinOk4ZExxznQcMqaYYToOGVOcMx2HjCnOmY5DxhTnTMchY4oZpuOQMcU503HImOJcrDg0860DADAoW4UT5mrZhnVa9tiP9M0xgzQoP3Kw6q7CS4fphsk/0tMrN6hs+dx2J3MBAAAAAAAAAEDHQEIXAFJVRp4GjfumfvQfy7Ts7TJt3rxZmzdv1rZtG/TaS8/pp//7mxpVQCIXAAAAAAAAAIDOjIQuAAAAAAAAAAAAAKQoEroAAAAAAAAAAAAAkKJI6AIAAAAAAAAAAABAiiKhCwAAAAAAAAAAAAApioQuAAAAAAAAAAAAAKQoEroAAAAAAAAAAAAAkKJI6AIAAAAAAAAAAABAiiKhCwAAAAAAAAAAAAApioQuAAAAAAAAAAAAAKQoEroAAAAAAAAAAAAAkKJI6AIAAAAAAAAAAABAiiKhCwAAAAAAAAAAAAApioQuAAAAAAAAAAAAAKQoEroAAAAAAAAAAAAAkKJI6AIAAAAAAAAAAABAinKdOHHCysnJkdttJrfr9/vlcrnkcrnsRQnx+/2SZKx9lmXJ7/crIyPDXpSQUH1ut9vYNXs8HmVkZCgzM9NelJB07EPTcdjY2CjLspSdnW0vSkg69qHpOPT5fGpsbFRubq69KAEf6pkR/6blKtFDq36uCefbrnn7Mxrx3eXR+0JKHtJbT01QXvDlh78YoX/Tr7X5e5cn1ofbn9GI70q/3ny/LrcVme7Dpjis+GXT9Y38yVv6+ddDV9M+lmXp9OnTcjqmfPiLEfq3vwf69dxE+jB4P/Wrzbr/iuiS2H1Yo9Xfv1kb/zn+a695839rWb+f674hDj/L1av1v18t1M+/F7jbyfgsxxxTWomztsTuw8TrTMfvQ8YU51qMwwSZHVPSsw+TEYcmxpRI6diHpuMw5pjiQDr2oek4ZExxznQcMqY4l4w4ZExxJhlxyJjinOk4ZExxznQcMqY4l4w4ZExxJhlxyJjinOk4ZExxLlYcumpra40mdH0+n1wul7H6/H6/LMsyfqNM1ufz+ZSRkWHsRiXjCyjd+tB0HHaEL6BU70PTcWj0H7Xbn9Hw31q601quFRf9WlvuG9K8/O5KPbzmKU3Ijyyo0erv36TH9LDeDiZ1P3x2uKbrBW257/KU78NAHO7QL0fercq5b+upOJOZLbEM/aP2w2eHa/qeQJ+ek4p9WL1a3x//mAqf3+IwoRuMn4GBeFGSPsuMKc6Z/iwzpjhnOg6Njilp2ofJiEMTY0qkdOxD03HImOKc6ThkTHHOdBwypjiXjDhkTHEmGXHImOKc6ThkTHHOdBwypjiXjDhkTHEmGXHImOKc6ThkTHEuVhy6amtrra5duxp7k8bGRrndbmMd6/V6Jcnoh9Hr9RoLJAW/MLKzs43d+Pr6emVmZiorK8telJB07EPTcejxeGRZlrF/QKVjH5qOQ6/XK4/Ho27dutmL2m3HM8WapiVafeGvNeHfv6Ql22YrKqX7wUIVT6/U3Lef1sSohK6k6lWaddN6jQ2Wheradv+QlO/DQBx+oEUj71blI+v09ATnCd26ujo5HVN2PFOsaZ/M1bpnJursVOzD6lWaddN8Fb6wTfcPcfJZrtGq+8dp/kWBeAkx/VlmTHHO9GeZMcU503FockwJSbc+NB2HpsaUSOnWh0pCHDKmOGc6DhlTnDMdh4wpzpmOQ8YUM0zHIWOKc6bjkDHFOdNxyJjinOk4ZEwxw3QcMqY4ZzoOGVOcixWHZr51AKCjql6l37wkTb12iPKGXa9RWqr1H9gPassmVR6074uhepVmFRdrob3+6lWaVTxLq6qDyePihdoRUVyzepaKi4s1YsQIjRgxIuL8HVpYXKxZq2vCBwffI2pfjDqlwEzTB0beraWSNs0bF3XMjmeKVVwc3qLa/MFCFd+/SqtCx9y/ShHvFu2DhVH1FIeuM0LUe92/SpWRhdVr9P3h39eqDwLXFTpu1uqapmttXm+gX0Jtrlk9S8X3r9KO1bOa+jD6+Bqtuj+6z+zX31T2wUIV3zRfmyQtnV6sq5/9UFKFFhbP0qrVoWsN122vJ9xXO7SweJzml0l6aVr0/al+U7OHDYtxjpraunB1+NqbxVNQ6L2vueYalZSUtBkT9vuw6hl7e4u18IMdeqapD4tV/ExEDVF1hvp0h1bdH+v6AQAAAAAAAADxIqELIK3VbF6vTZqqsUMl5ZdozEhp6XvNUp8tO1ipTRqlwj72ghjyR2tsjPprNq/XppFjNdo++zeYjBw3T5r79jZt3rxZm1c/pMrpoQTjEI29S9q090D4hIOV2qTofTX7K6WRheobPiogf4KeLHteUyWNemSdtm2brSHBRNy0l6ZqybZt2rZtm7a9MFVLp9sSh2XzNV9LAuXPTGx6hnCUppnNwXq2bdOSuzZp/k3RiePI91r3lfWa/5KtHpVp/vRKfaepjmAC+qbIfdH1NlM2X9P2fifQh5vf0tyRmzT/p7GTi00zhEPX//Zcad64wPUPna1tb8/VKElTX9imPwWXSpY2af48Ba8jYrZ2ZD3blmhq2XyNe2aHpCGavW2d5o6UdNeSYN8H+mzULQukR94JnrNOczVf42yJ0KXz1mtssF9nD40oCIp87z/+8Y8qX/VQ+BpisLd1yUXzY9wHaen036hg9WZt3rxZ216YKr00rcU6JWnTvGmqnBbux1Fl8zUvMrEMAAAAAAAAAGgTCV0AaaxGpX/YJN01NrjEcp5Gf2WU9NJvms0ijW2HFk5fKrWQjG0uVP/6iMTjDv3XvE0a9ZXRMZKiwbJHHgkv9Zw/QY88Mkqb5v2XdkjqWxBd3473lmrUyFHSJ5XBBGDgGmPXH8MH/6X5ZaM09+2IZaeHztaSu6SlSyKTiqM09w7bs4Ztdry3VLrrO1HLVA+5dqqkSlVWR8yOfiH8XnkTHgkkOW1GPfKvTccE6og+L6remKZqSdOyxnmaOG2qVLZepc2Or1HlJ5IuKgz3V/5EPd1C4jRSZBulHVr/kjR1WmSyO5CAD98buxqtWrJUmvwrLRwfOitPE38SSIT+V2Ti1Nav0WJdw/iWr6F6lX7z0ijN/Um4rUPuX6JAL0cb9cgj4edID/1XzY3xBwpR7loSfs/8ifrOXdKmP5S2cP0AAAAAAAAAgFhI6AJIX9WlWl8WWG45JG/8dzRVm7R+sz3ltEnzb7Itn1s8TUvvWtLyDNUY8kaMjV7W+YP1WqpRGjsiRg0tlAXqCCQvI/87kMgbpbHTxmpUKFlZXar1Zc3raEnN/kpJhSq0JQuHXGtPgDY/xm7I/duang3btJzv9KXhAw5WhmdHN8lT4UWRrwMK+0e0v0+hRsU7Kzok1gzlmEJJd9syyHGIaqOGaHZTAjWwXHFxcbGmxZj1GnZAlWVSSUHv6N0xZnaPKmjtaqKvocJebBOYpW6/n8Hks030Nbat9XYCAAAAAAAAAOJBQhdA2trxcvhZqMXFxRo1apSGDZsWeKZss1mEo6KWDm7ammZ9xsmWnNvxXlszfMOJ5Kbnvwaf4SqF6gsmoKtLtb6sUIVDA/sqDwaTpq3WH0Pcyc82RDw/d9pLwf57ITzvM5A8bq5vwSj7rjMqb8LTwXYu1TQHz34NP5N2mpaODCxnvCRGktSuoF/7kqaxRF7DPcFn6CZyDQAAAAAAAACALx4JXQBpKrAkbuDZsYHk7KZNm7R169ZAIizmcrwmRC67HGxDq8shhxPJgee/bg62N/Cc1tCM1k17DwSSt3eN1ZDgvsr9NYGEceTSu/Eoq1TEU3kj2Gdxtia4fPBdwefsNrU3LK9/YfSOoAN7m9LVX5yhs8NJ+xemSk3Pvo1T03LSwTraMYt7b1XstGu7Z7sGr+GPf/yjyhdPbv81AAAAAAAAAABSAgldAOmpheWMJUlDx2qqNmn+y8lJfuVN+I6maqnWP9NKGxRaWjg40zbSBwujlgMecu1U6aX1Wvje0qblo/sWjNKmP8wLJBUjlpRuSyDJ2vxZtIGZxO2ZuRtYPtj+3jvei1hyuU9h9PLTUvj5r6lk6GyteyTyucRxiLmcdCCB37K+Khwple89FL07uDR4e5c7jnLFfS1eQ/Sy3SFttRUAAAAAAAAAcKaQ0AWQhoKzR1tcijj4/NCX1rfrGarxC9S/9KXW2iApf6IeeWSUlk6fpVVNybYPtXD6Uo165F/VlCodOlZTtVRLXwo/VzZvxFiNKtsUI6nYhqH/qrkjN2n+TRHPj/1goaa9JE2dFv8s01BycumSiGV+g/UolKTOn6jv3CUtnR5+r5rV8zS/rKmSL0CNVt1frOKomaw79F/zNrUxk9ommKz+zepw+nTHM4HlvFueAZ2nidOmSsu/q9lrQufVaNVP52vTyLn617jvY6xrqGj5GvIn6jt3bdL8n4bvVVNb2zu7GwAAAAAAAABgHAldAOknOOMxZnIraMi1geePRs8eNSdQf+ttUPBZqOsekebfFHqG7r+p8pF1enpC5FmB5GlUcji/UIWSdNfYcOI3Lnma+Mw2Lbkr4vmx0ys19+1tmh13QlHBepZoatl8jWuqR1ry9lyNUmA5aEkacn/0e437w1jNjeM5s8mTp4nPrNPcT6Y1Pf+3uHialt61JNznTYnoYl09e3WzGa9S4JinX5iqTfPGhZ8jrCWBWbJNs2GDCdyXpqm4OJi0Hzpbm96YI827IXjeOM2/aEm7lmy2X8M111yjkpJ/i74GmyH3b9OSi8L3apqWxPW8XwAAAAAAAABA8rlqa2utrl27yu02k9ttbGyU2+1WRkaGvSghXq9XkpSZmWkvSojf75fX61V2dra9KGEej0fZ2dlyuVz2ooTU19crMzNTWVlZ9qKEpGMfmo5Dj8cjy7KUm5trL0pIOvah6Tj0er3yeDzq1q2bvShh6daHpuPQsizV1dWJMcUZ03GY2JhSo1X3j9P6r9j/eCA9+9B0HDKmOGc6DhlTnDMdh4wpZpiOw8TGlJalYx+ajkPGFOdMxyFjinOm45AxxQzTcciY4pzpOGRMcc50HDKmOGc6DhlTzDAdh4wpzpmOQ8YU52LFoZlvHQAA0DF9sFDFxcVaGDkb/YP/0vyyVp7vDAAAAAAAAAA4Y0joAgCQzobO1rpHRmnp9NAS06Fltp/WxJae7wwAAAAAAAAAOGNI6AIAkObyJjytbdu2RWwkcwEAAAAAAAAgVZDQBQAAAAAAAAAAAIAURUIXAAAAAAAAAAAAAFIUCV0AAAAAAAAAAAAASFEkdAEAAAAAAAAAAAAgRblqa2utnJwcud1mcrs+n08ul8tYfX6/X5KM1WdZlvx+vzIyMuxFCfN6vcrIyJDL5bIXJcTj8SgjI0OZmZn2ooSkYx+ajsPGxkZZlqXs7Gx7UULSsQ9Nx6HP51NjY6Nyc3PtRQlLtz40HYeWZen06dNiTHHGdBwypjhnOg4ZU5wzHYeMKc6ZjkPGFDNMxyFjinOm45AxxTnTcciY4pzpOGRMMcN0HDKmOGc6DhlTnDMdh4wpzpmOQ8YUM0zHIWOKc6bjkDHFuVhx6Dpx4oSVk5NjrNGWZUlSytanYEeY6lQlob6GhgZlZGQYC8507EPT1+z1emVZlrKysuxFCTN9zabrM92Hpuvz+/1qbGxUTk6OvShh6daHSsI1h/5Ra6qNpq/ZdH1KQh+aro8xxTnT18yY4pzp+hhTzDB9zYwpzpmujzHFOdPXzJjinOn6GFPMMH3NjCnOma6PMcU509fMmOKc6foYU8wwfc2MKc6Zro8xxTnT18yY4lys+ly1tbVW165djTW8sbFRbrfb2IfH6/VKktG/rvB6vcb+MkDBvwDJzs42dqPq6+uVmZlpLNg7Qh82NDQoKyvLWB+ajkOPxyPLsoz9RVwy+tB0HJruQ9Nx6PV65fF41K1bN3tRwlK9D30+nyzLMtaHpuPQsizV1dWJMcUZ03HImOKc6ThkTHHOdBwypjhnOg4ZU8wwHYeMKc6ZjkPGFOdMxyFjinOm45AxxQzTcciY4pzpOGRMcc50HDKmOGc6DhlTzDAdh4wpzpmOQ8YU52LFoZlvnSQy1ZmRklEnOrd0jBmXy5WW143OLRkxnYw60bmlY8wwpqAzSkZMJ6NOdG7pGDOMKeiMkhHTyagTnVs6xgxjCjqjZMR0MupE55aOMXMmxhR3st8gFYWmKiNxpuOmI9wT09dsmun2WZaV0vflTHxBOtUR2mhaul2vOsj3V6ozHTcd4Z6YvmbTTLePMcW5jtBG09LtetVBvr9Snem46Qj3xPQ1m2a6fYwpznWENpqWbterDvL9lepMx01HuCemr9k00+1jTHGuI7TRtHS7XnWQ769UZzpuOsI9MX3Npplu35kYU1J+hm4ymL5RcI57knrS8R9kQCL4nKQe7knqYUwB4sPnJPVwT1IPYwoQHz4nqYd7knoYU4D48DlJPdyT1HMmxpS0TOgCAAAAAAAAAAAAQEeQlIRusrPQqSbVrzfV25csqX7dqd4+0zrC9XaENprWEa65I7TRpFS/3lRvX7Kk+nWnevtM6wjX2xHaaFpHuOaO0EaTUv16U719yZLq153q7TOtI1xvR2ijaR3hmjtCG01K9etN9fYlS6pfd6q3z7SOcL0doY2mdYRr7ghtNCnVrzfV25csqX7dqd4+02Jdr/GEbqw3Ac404hDoHPgsIxUQh0DnwGcZqYA4BDoHPstIBcQh0DnwWUYqIA47BtfJkyetLl26yO02k9v1er1yu93G6vP5fLIsS5mZmfaihPj9fvl8PmVlZdmLEtbQ0KCsrCxjQV9fX6/MzExjbUzHPjQdhw0NDbIsSzk5OfaihKRjH5qOQ5/PJ4/Ho65du9qL2uXzz0+qru60fD6fvQgAAAAAAABAB5ORkaFu3XJ19tldjf4Ga1mWTp06JfIpzpj+HZt8inOm45B8inOx4pCErgGmbzxfQM6ZjkO+gJwzHYcmErqHDx+T2+1Wly45yszMsBcDAAAAAAAA6GC8Xp/q6z3y+fzKy+tu7DdYErpmmP4dm3yKc6bjkHyKc7Hi0EzNANDBfP75SbndbnXv3pVkLgAAAAAAANBJZGZmqHv3rsrIcKu29pS9GAA6JBK6ANJSXd1pdeli5i+EAAAAAAAAAKSWLl1yVF/fYN8NAB0SCV0Aacnn8zEzFwAAAAAAAOikMjMz5PP57bsBoEMioQsAAAAAAAAAAAAAKYqELgAAAAAAAAAAAACkKBK6AAAAAAAAAAAAAJCiSOgCAAAAAAAAAAAAQIoioQsAAAAAAAAAAAAAKYqELgAAAAAAAAAAAACkKNfJkyetnJwcuVwue1mUtspDvF6v3G633G4zuWKfzydJysjIsBclxO/3y+/3KzMz016UEMuy5PV6lZmZGXcfhViWZd8lSWpoaFBGRkab1xzv+3XmPmxJonHY0j3xer2yLEtZWVn2oijxtr8z92FLEo3Dlu6J3+9XY2OjcnJy7EVRWuqPf/zjiPLzz7XvBgAAAAAAANBJVFd/pgsvPM++u00t/SZ5+vRpkU9JnJPfsVu6J+RTnEs0Dlu6J+RTnIsVh67a2lorngbHcwzap6Vgtywrrv6O5xi0T0v3RHHel7bK0X5O74lauC9Hj9aS0AUAAAAAAAA6serqz9SrV3f77lYl6/dIONPSfeGefHFauieK8760VY5orpMnT1pdunQxljVORhbasixjmXe/3y+fz9fmXwa0R0NDg7KysowFX319vTIzM421MR370HQcNjQ0yLKsNmeDxisd+9B0HPp8Pnk8HnXt2tVeFJf9+w+T0AUAAAAAAAA6serqz9S///n23QmxLEunTp0S+RRnTP+OTT7FOdNxSD7FuVhxaKZmAEByHS7XK6/+Qbvt++Ox/QXd8uO1Omzf34oPf/UvuuWWh7S22l7Slg/1/C3/0u736/ASuD+J93HrDr/1kG655V/0/HZ7STskcD0AAAAAAAAAgOQgoZuCXC6Xsb8KADqzM/c5qdbaH/+LbrkltL2gD4MloeRZ9PaCPgwlNmNtvwqdHb/dFfukAZdrkL2g0wj0saMkZEsSSGi3V2e7P53tegAAAAAAANA5kU9BunAT6ADQmg/1/C336PmPb9S8N36nN974nd54Y7jKbQnCGx8Nlf1Ob7wxXZfrct0dfL14eiAt1nTMdy+PODMeH+nvNb00dLiZ5WHicfl3f6c33vh33ZhvL2lL8LqfuFFnrrVftMTuT+J93Lrzb/53vfHG73T3FfaSeCV2PQAAAAAAAJ0d+RQAXxRm6AJAKw6/tUJrNUh3/2q6wmnYy3X3GUxY1mz5WAfz+thmS9pmDdsSzFEzhx9dG7X/wbfWBmcPv6APt78QPWu4eq0ejJppHGH7C7rlVx9G1f3gW+H1gqPeM9Ys5NB72c4NLD18j57/WFr7aPPyphm2kW2Lqt82G9p+LY+ulT5+QTNiXJd9hnXkDOEPfxVoQ+QxsWYQx74/tjZF3p/W+rhZeeRx1Vr744e0tjqy7sjzI/fbl3Ju69yw2NcDAAAAAAAAAPiikNAFgBZV68/v7ZY0UBcankUZv4+0ZZ90adGlUXsPv7VaeiA0I/g53a0X9FREAnTGCwPDM4ofvTHq3N0v/FH9fvWc7r54rR5Z3leLfzVdg97ZEkju5d+ox9/4nd741fTYCb13HtWMf9zZVO/uF1Y3JQVDM0NDM5KjfajnH92ju38Vnsn8+M2BTg3MVH1Od18cPdM5VC4pkJD97gFNCbXtnRVNCcsPf7VFJU2zox/Vje88Gki8hq7l0Ruli6drcdQM6tj9tPbR6ETo7hfuabrexdMHae1y+9LNse/Ph796VHumP9d0LVEzllvt42qtffIFKXTuozdKUX9QsFvPf3eF+v0q1GdrtawpqR6aFf6oou94SGvnhsS+HgAAAAAAAADAF4eELgC05eK+ypdthqltRmzkzFJ7mSM7D+pg7vkaZJsOfP7N0yOW6s3XldcO0u5/HA4kBJev1Y2PRs4otrnhzqZzb5zczpnGF0/X4tCS0VcM143ao3/Yc4It2q13t8Z9sE1EUjP/Kl138W5VHQqUXP7d6NnTJTdIe9psVKCfBk2fED73iumad4OtjRHXe/6wazTo4wOKqrmF+yNJu997v/1xUP2+3v14kK4bFrxBVwzXjQpfqyTd+GhomebI+x6fNs9t5XoAAAAAAAAAAF8MErpICTx7wDn6MIlCSbwrpuuNN36neTfYD7A9Q9fYcsyHVfa3o+rz5RLl2Ytsy/LOeGG3/YgUc7nu/tV06YV7Wl3ut0UXX6MrIxLYNz4R8YxY21LOj7wTPq0tA9uYej3o2qtsM2sjk8ct35/LvxuYNR1a5jnWUs0x5V+ogZGJ7+1btFY3qiTh5+G2R8vXAwAAAAAAACA1kAtwriP2YYdI6JrsWJfLZbS+dEQfIn3k68KBkto1C9Wgw3tUdbqXvnSJveBDPf/diGV5W1zmOMWElhp+43daPH2PHmlvUjeW6rV68NG1UQn1WAn3lkTP5K3WP/ZEvGxLi/dHTUnnN4JLK+95NN6k7vnqd3Fgqedbbgk8/7fV2dYmtXo9AAAAAAAA6AhM/nZPLsA5+hCmdIiELgB8US6/ZboGabeef9LgMspx2l2xTxpweYznrAY0zS6tXqunmmboBpLQazcHU6XBhGeqOT+QKY9ga3e7DFK/3sH/3P5C8xm6vftq0Md/1J+jkvLBJYcjngGs7av1/Mc3akrks3tb0db9aZJ/oexX26Ltq/W8Ip/3GzETOcnivh4AAAAAAAAAwBlFQhcAWpN/ox5/41Hd+HF4+dxmCUP7M3RNzDzVR/p7Ta76FcRavPlyTZw+KPye3z2g6yJm6F7+3Ud14zuPNpVN+dX0uJN0h996KHjeC9qttXok7uup1tofRyz/HHr/XwXPtC2LfMuje8LPxA2Kavct/6IH34pjWnT+jZpyw249/91gvcv76m77DN38G/X96QofE7ye82/+9+BM4Zbb1LLW7s+Hej7yWm95VHumP9eUmG21j6+YELVUc2iLa3ZvUx8/qrUK9clDWhtHN7Z+PQAAAAAAAACAL5Krrq7Oys3NldttJrfr9XrldruN1efz+SRJGRkZ9qKEWJYln8+nzMxMe1HCGhsblZmZaWza/OnTp5WZmWmsjenYh6bjsKGhQZZlKScnx16UkHTsQ9Nx6PP51NDQoC5dutiL4rJ//2Hl559r350yarb8Xm+cvFjT//lSexFSQNLuz/YXdMvyvloc+Rzm7S/olkeleVHP7zUradcDAAAAAADwBaqu/kz9+5v5A3bLslRfXy/yKc6Y/h2bfIpzpuOQfIpzseLQTM0AAKPyhn+D5FoKS9b9ORzjIb4fbl4rXdxX8S0EnZhkXQ8AAAAAAAAAwDkSugAApIjzb57dbMnlR/ZMj56xCwAAAAAAAABIKyy5bIDpqdksEeCc6ThkiQDnTMdhZ19yGQAAAAAAAIAzLLnsTEf4HZt8inOm45B8inOx4tBMzQAAAAAAAAAAAAAA40joAgAAAAAAAAAAAECKIqELxMHUtHsAAAAAAAAAAIDOinxKcrjp2NTDPUlN3JfUwz0BAAAAAAAAcKbwe2Tq4Z6kJu6Lea66ujor9OBfEx1sWZZk8Galen1KQp1er1cul0tut9tInabbZ7o+JaFO0/X5fD5ZlqWMjAwjdZpun5JQZ6rX5/f7ox6E3t56Dx6sUX7+ufbdAAAAAAAAADqJ6urP1KdPnn13QizLUmNjo8inOGO6TvIpzpmuj3yKc7Hqc9XV1Vk5OTlyu82svuzz+Zo+PCb4/X5JMlafZVny+/3KyMiwFyXM6/UaC0xJ8ng8ysjIaEpUOZWOfWg6DhsbG2VZlrKzs+1FCUnHPjQdhz6fT42NjcrNzbUXxaWqqpqELgAAAAAAANCJVVd/pn798u27E2JZlk6fPi3yKc6Y/h2bfIpzpuOQfIpzseLQderUKaMJXa/XK7fbbaw+v9/flMk3wbKsqFl9JkT+VY4Jpr+AfD6fJKV0H5r+8JiOw2R8AaV6H5r+AjIdh04Tuvv3HyahCwAAAAAAAHRi1dWfqX//8+27E5KMhK7p37HJpzhn+nfsZPSh6VyA6Tgkn+JcrDg0U3OSmerQENP1pSP6EAAAAAAAAACA1GL6t3vT9aUj+hAmdIiELgCYlpGRIa838FcuAAAAAAAAADoXr9enjAxSIAA6B77NAKSlbt1yVV/vse8GAAAAAAAA0AnU13vUpUuOfTcAdEgkdNEpsYRB6km1e3LOOWfJ7/ertvYUM3UBAAAAAACATsLr9am29pT8fr/OPrurvRiATar9do/Y98R16tQpK9Uf4i3JWH2WZcnv9xt7oLWS8PBk0w/xTsaD0FO9D00/gJqHeDtn+rPs8/nU2Nio3Nxce1G7fP75SdXVnW56yDgAAAAAAACAjisjI0PduuWqR49uRn/HtixLp0+fFvkUZ0z/jk0+xTnTuQDyKc7F+iwbT+ieiUY70RE+PMn4AlKa9aHpOEzGF1C69aHpODSV0I2Ubn1oOg6T8Y/adOtDJSEOGVOcMx2HjCnOmY5DxhTnTMchY4oZpuOQMcU503HImOKc6ThkTHHOdBwypphhOg4ZU5wzHYeMKc6ZjkPGFOdMxyFjihmm45AxxTnTcciY4lysODRTMwAAAAAAAAAAAADAOBK6AAAAAAAAAAAAAJCiSOgCcTI19R5muFwu7kmK4X4A8ePzkloYU1IP9wOIH5+X1MKYknq4H0D8+LykFsaU1MP9AOLH58U8EroAAAAAAAAAAAAAkKJI6CIl8NcaziWjD5NRZ7qhD4Ezj8+dc8now2TUmW7oQ+DM43PnXDL6MBl1phv6EDjz+Nw5l4w+TEad6YY+BM48PnfOJaMPk1FnpLRM6Ca7U9MBfdj5cY+dow/TA/fZOfqw8+MeO0cfpgfus3P0YefHPXaOPkwP3Gfn6MPOj3vsHH2YHrjPztGHnd+ZuMdpmdAFAAAAAAAAAAAAgI6AhC4AAAAAAAAAAAAApCgSugAAAAAAAAAAAACQokjoGnAm1sZG+7hcLu4LgA6J767Uw5gCoKPiuyv1MKYA6Kj47ko9jCkAOiq+u1IPY0rH4Dp16pSVk5Mjt9tMbtfv9xu9+X6/X5KMtc+yLFmWZaw+SfL5fHK73cau2ePxKCMjQ5mZmfaihKRjH5qOw8bGRklSVlaWvSghlmXJ7/crIyPDXpSwVO9D03Ho9/vV2NionJwce1G7fP75SdXVnZbP57MXAQAAAAAAAOhgMjIy1K1brnr06Gb8d+z6+nqRT3HG9O/Y5FOcMx2H5FOcixWHrvr6eiszM9PRm0Sea1mWo7rsLMuSDP/VRjLa2FJ9ofa3h9frldvtdvQBt98T+z6nWrvmRJzJ+hK5J6Fkn5MvDHt7WmtjIjpCfYrRD5Fl7WFZlnw+n6OB+siR48rIcKtLlxxlZiZ+bwEAAAAAAACkBq/Xp/p6j3w+v847r0fM3yOV4G+SjY2NIp/iTGv1JXJPyKc411p9idwT8inOxYpDV319vZWVleXojSLPNZ2FjtVoJ6wk/DVEa9ecSLCn+hfQme7DRLRWXyL3xOfzybIsR8lD+z3pyH2YiNbiMJF7YlmWvF5vwn/lc/x4nbxen7p372ovAgAAAAAAANDB1daeUmamW+ec091eJCX4m2RDQ4PIpzjT2jUnck/IpzjXWn2J3BPyKc7FikNXfX29lZOTY+xNTDc61rRiJ5Jx401PzW5oaFBGRoajv16IlI59aDoOvV6vLMtKOHlol459aDoO/Q6XXD5w4Kh69OjGzFwAAAAAAACgE/J6fTp+/KT69j3PXpSw06dPi3yKM6Z/xyaf4pzpOCSf4lysODR39QDQgQSWazYzyAMAAAAAAABILZmZGfL5AkkRAOjoSOgCAAAAAAAAAAAAQIpym5r+CwAAAAAAAAAA0FmRTwHwRWGGbgpiUEhN3JfUwz0BAAAAAAAAgPTFb8SpiftiHgldAAAAAAAAAAAAAEhRJHSRElwuF3+xAQAAAAAAAAAA0AryKekp5RO6BCYQH9OfFZN1AQAAAAAAAACSy/RvxEBnZfqzYrKulqR8QhcAAAAAAAAAAAAA0hUJXQAAAAAAAAAAAABIUSR0AQAAAAAAAAAAACBFkdAFAHyxqtfoh6NH6odv1dhL2i9Y1+hFFfaSjmHHsxo9emTTFt0nNXrzB+Gy0aOf1RdylR29jwEAAAAAAACgg3GfiQf1pgP6sXPj/jrXUfvw2FsPaPTokfrFjvC+ikXBZFoosRVj++Fbm/SLGPtHNyXCKpqX/2CNjkW+eRwCbWl+bqjdge0BvVnddEbz940qb0k4mRjqi9B7x52IDSYr4z4+qcLXE25PsG/iTFTGio24RcROVH8MuU+lpWUqXXRn5NFBefr6f5aptHSNHhxhLwMAAAAAAECyddTfOFMN/di5cX+di9WHzNA1IFbHOuFyuYzWabKujiIdr7kjMH1fTNfXbvnj9R+lZSotLdPiyZJUogdfD7z+j5tH6XvBstVzSiRJdywKvC6dWRSuY/LzgX2vz1HJ5gWa0J6k7o5nNWO5fWcg0ThhgYJtWaMHR5Tr8VttSdvQ+5aWqbT0SX09P6KsDfuqaiRVaGOM9+6IyjeUxd/nhhzbulHlulN3TP5i3h8AAAAAAAD4Ipj+TZd8inPpeM0dgf2+kNBNE/YbDyDF5I/XtyZL2rxRZW3OllVghulLK6TJzweTySEVWr6gXJr87WCSNk9fv+tOSeV6d6vzmbF3zJkjbSjTsepK7Rtxp+6ImilqWxK4KTkdnPk6c4UkqXzB+BZmBpdFzB6OXk64aSZycIuaFRs5U/rWBSqPKIrL5gVaHnOWrX02c7BNwfebsCDwTi/PjN3m1hzcVy5NHqPJA0racc/bFj0zOzT7N3hfms08jt7f8qxuA30MAAAAAAAAdBDkU5CKjCd0CXQAcKJABXHMlj321r/r8c0lenBSxGxfSaqu1D5JJQN6B3dU6BehROq+Q+Hjlt9tS/q15ZD2bpbUr1ADNu9V2daN0pgxKmiqt0Zv/mC8Ht98pxaXlqm09HndsXmBJiyqkFQUmK0cXEa4ZM6amDODyxdsVMHrwdnKWqEXg+2qWDRSM5aHZz8vniy9PDOYcKxeox/eukDlkTOdw1W2bfIcPThCevkl+8zoCv1i9N16ecQcrQ5dj1Zoxg/W6FhwZnazmdel98l2N1oQmN1cMqC3eg67XiUq195P7ce0X2BmdnlTe1bPKVH5gvGtLAkduKclA3o3O3fx5HI9fmtEAttJHwMAAAAAACAm8ikA4mU8oQsAnVF4FubImMscO1a9Ri8ulzR5TBxJQfss3Aif7m2aPRmY1fpbFbz+vO6QpD2VOhZKrkYsB12+YHycSV1JKtL1k1fo8QXSdcNCSWNJ1WV6d7NUMmdysP1Fun6ypOUb4p61WjLnoegE775D4aWdI661aNIclQRnHAeWLo6R2I5boUaOiTFLdscGvSzpjrvGq6ckqUiT58Q4LhE7Nuhllei6YXlSfqEGSHq5NN5eakmNyjaUSyPmaPKQwJ6eN39bd0h6ufSQCgaG7n/z2boD+qnZuUWj75S0Qht3hJaHdtLHAAAAAAAAAAAnSOgCQBzCszBDz8s1JDRTNjQDMvL5ui2oWHS3XtadWhzr2AsKVBJc1vjFAWuiZ8EOLAwmJ8NCSb+o2btt6DOgRBpxvUbm5wUShQonksPLKRtKfAdnHLfk4D7ni/8G+qBcj6/c0LTvWNXeqGNMqihdETETu/2J79iCM6hb0GdAibR5rw4GE+9avkEV1ZXapxIVXBA8d/MCTQgtqxyc1S1DfQwAAAAAAAAASJxbkizLMrqZrNNkXVawvmTUad+XSpvp9nWUPjRdp8n60rEPTdYV2pzUmTJCy9iWlsWVzG2asaoVmhGZON28QBNGP6A3FZjxqRFzNOfmvMApzZZhjtBGwrRJxHE9b35Spf8ZmrkaFEwkh5dTbu8yxO0QMQvZjODs2+Ur9LK9KIKZxGaN9u5R8/sXnA1rVOQ961cgSdq7daM053k9OGKFNq7cq3IVqCC/twpGBGImsLx0ePtecMYuAAAAAABAR2X/XTDRze/3G60vtJms02RdVgf6HdvkZrp9HaUPTddpsr507MNYdSWU0G1LPMfEy2RdqcDel7G2eI+zn9OStso7q3iv296Xsbb2HGs/pyMzeR3trcven/Yt3uNindOxRS+Z3DRjeMQcrS59Ul/PD8743LxAy4MJwoqVC1SuO/WtUII3QqDM4XK6eyp1LH+krhshlS9Y3vJM09Ds4XbMBlb+eH1rsqTlvw08M7dphmvgegJLAweWX5Zq9ObPFiSU7A08yzbidWi54qZn6zZf+jmUJN1XFe9y1ZFLU0ckvoPPpG1XPc2EloQO3/eopZIvKFCJ9urdDeUa0K9II8eUaN+evdKIAvVRXnDZ6fC5kUz1MQAAAAAAQCqz/5Zo3+I9zr61JZ5j4mWyrlRg78tYW7zH2c9pSVvlnVW8123vy1hbe461n9ORmbyOWHW5Jcntdrdrc7lcbBGbgg8vj2ez92WsLd7j7OecqS3Evt/JZrq+9mz2voy1uYJttO9vbbO/T+TW2fowGZu9P+2by+E96cyKZgaSvKHn/s5YfqcWh2bKVq/RD0PL6jaVRSzL3KoSFVxg3xeSp6//5/O6I2Lm6ejR0c9qVf54zZlTEl5mevQDTUna1hTNXKMHR5Tr8VtjXM+Q+7R4cmip5/F6d8zzenCEvYY4hBLHTYr0vdfnqKRpGeK79bJ9Seyo9x6p0aOfbTmZHRRKsl43LCK5HnyObvmGMv39rQeiljwO1R14xnGFfjF6pEaPHq/HNytilm/gfXve/GTUfZ+wQHrw9eC9zS/UAJWrfPOdun5IIBldvjmclrWfG3U9pvoYAAAAAADgC2D/3bGlzf5bYqxN7fw90t3G78TpuJm+J/EeZz/nTG3tjcN4NtP1tWez92WszeXwt3v71tn6MOHN4/FYWVlZchlKcISyxqlan4J1mqzP7/fLHfwyN8Hr9TYFsQmm+zD0FxOm2qck3BPT1+zz+WRZljIzM+1FCUlGH5qOw1S/J36/Xz6fT1lZWfaiuOzff1j5+efadwMAAAAAAADoJKqrP1P//ufbdyesoaFB5FOcMf07NvkU50xfM/kU52LdE7fJN0B6cAX/GiDdpPo1p3r7TEvXOAQAAAAAAADwxeD3SLRXuv6OnerXnOrti8Vc+hkAAAAAAAAAAAAAYBQJXQAAAAAAAAAAAABIUSR0AQAAAAAAAAAAACBFkdAFAAAAAAAAAAAAgBRFQhcAAAAAAAAAAAAAUhQJXQAAAAAAAAAAAABIUSR0DXC5XPZdSAGpfF9cLldKtw8AAAAAAAAAANP4XTw1pfJ9IZ8SkJSELh2LzoaYRkuOvfWARo8e2bT9YkdE4Y5no8p++FZNRCEAAAAAAACAdMdvz+hsiOnkcDU2NloZGRnGOtiyLGN1KVifDAdAMtposj6fzyeXyyW320y+PR370HR9fr9fkozdEyWhjR2hPhmMQ8uy5Pf7lZGRYS+Ky/79h5Wff659d4sqFo3UjOWSdKcWl96nIlv5sbce0IQF5bpjUZm+N8RWuONZjZ65QiVz1ug/bs6zFZ5hNaW65+EKrYvYNe72SXpuTK+m10c2LNPwV2qDr7pr4WNTNCHY7OgySYVF2vLj0Tpv5xoNfPpAeH+Tvlq5eLyutO9upxbb1Nr1tNWmmOWR7T2q1U+s1OzKYFHoWiX9ecViTXo3sm8Cx1ZNmKF7L4nVruh+BAAAAAAAQPJVV3+m/v3Pt+9OmNfrFfkUZ0zXRz7FOdP1kU9xLlYcmutNAOi0KrRxuVQy+U6VaIU2Rs7C7ZC6a+FjM7Rn8QztWXy9il5ZqXs2HJVCidM/DdCWxYHyLbdLsx9eoz9L0s41Gv7K2VoZLNuzeIb2BBOcumR8cN8kLSwMJFUDrw0lc1tqk9Ty9bTVplD5rL7BRG5kewMJ2rVXh86ZpIWq0PAVu5redVyhtHZHoN+i7dIvH65Q0ayIflpMMhcAAAAAAAAAkBgSugDQlupK7VOJrps0RgMkvVxaYT8iQRX6RcSSzKNHP6sKhZZqfkBvVtsOt+8PLem8yEl7Buubt3fXuj/t0hHt0quvSAunB5O0ks4bM04LCw+ofKf05w8OSNd92XGCtn1ab1NzkdfjwM5yzVaR5jXNXO6lCdOLNO7dv4UTyVcPUNEr5RGJ5aCdf9OT6quSS+wFAAAAAAAAAAC0HwldAGjDsa0bVa4CFeQX6frJkvZU6pj9oHar0C9G362XR8zR6tIylZY+rzu0QjN+sKbFuo9V7ZVUoIJ8e4khNUdVobN1YdRM0l66sL/05Ae7dOXQvtK7GzUwYpZq0rXRpmQ58ukJqX+vpiSyJCmvl4oUmUgerG/efqJ5YvmSL+sBHdCkGZGziAEAAAAAAAAASAwJXQBoVY3KNpRLk8eoSFKfASXS5o0qs8+eba8dG/SypDvuGq+ekqQiTZ4TrDurQCUq195PY8zKHVGgPqE6htyn0tIylc60P9G3HWpK9cgrtXpgwmidV/2Z1hWeq362Q/pd0D3wH5eM157F1+uBdzdq4IzFGngmEpZttcku8nrsZe1Q9Wmtxl0Qfq5wQC/1K4zec96QAapYXWqbDTxY9y6eoZXXHdCkGYs1cMZi/dKe9AUAAAAAAAAAIE4kdAGgNdVlenezVDKgtySp57DrVaJyvbu1xn5kuwRm27Ygr1ADJO2rqlFF6Qop+H4H95VLAwuDCWAnajX74UCicWDwWa/3XiIp/1yNq/xMVbajo5ObgWTlnqaE5TKtdtYVrYurTS1cjwP9LuiudZ/an497VFWV3dUvcoZ03mj9W/99Ko/RB1feGXx+7qy+evLpxU3PKQYAAAAAAAAAoD1I6AJAaz7dq3JJ5QvGB55Xe+uCwOsNZS0ujZyog/vKg//VWwUjJKlMG5ffqcWL7lT5huXauCecWHamuxY+Fkw2Lo5Ifub1UpFO6B9Rycmj+sd+qajZbFXpyjuv1wOqVZXT2cqtiatNLVyPA+ddcLa0/2j0zNuYyz9LVw49W7P/u5Xlny8Zr5XXKUaCGAAAAAAAAACAtjUldC3LanVrj/Yen67sfWzva/t++4bWJdJH9j6O7Gv7vlhbZ5MK12TvY3tf2/fbN6cCM2Tv1OLSssDyxqVlWjxZ0ua9Omg/uB163vxt3SHp5ZdCz8yt0MblkiZ/W1/Pz1PBQKl8w0btG1GgPkPG6I7Ne7VP0oB+EdnEHc8GksyLKsL7HBmskutqNfuF8BLCRzas02wV6ZuxkqQ7/6YnZZux2oY/r2jvEsTtbJMpl3xZD1RW6JGmWbVHtfqFCun2El1pO1SXlGjh/n1aa9/fZJfK31WMJZwBAAAAAACQiuy/Mdp/a7Tvt2/t0d7j05W9j+19bd9v39C6RPrI3seRfW3fF2vrbJJ9TW7F2bHxbiH2/Ylupuuz2hFM8W4dob5k1Gnf52RLRn3JqNO+z8nWEeozWafp+uLd/H5/s31W3F+soSRr4Pm5IX0GlEhaoY07pIpFIzV69EhNWBCYXfvyzMDrX+yQjr31QCDhOnOFFDHL94dv1Ugq0vden6OSzQs0YfRIjR59t16e/HzT83ADz+otl8aMVE/1VsGIcpVvjmhEklx55wyt7F+h4cFnvw7/0wBt+fFonaejWv1EcFnj0Pb0CS18bIom2GastubKoX0lSRXtmK3acpsc2rkmeB0HJIWedxt6LvBg3bv4ehW9sjJ4vSu19upJem5MrKRsL5VcLa2rDLw6smFZdD/N2KiK21s6FwAAAAAAAMlk/13QyZaM+kzWabo+K0nXbN/nZEtGfcmo077PyZaM+pJRp32fk60j1Geyzlj1uRobG62MjAy5XK6mA5ywLMtYXQrWJ8l4nalcn8/nk8vlktttZkXsdOxD0/X5/X5JMnZPlIQ2doT6ZDAOrWCyNiMjw14Ul/37Dys//1z7biRbTanuMfScWwAAAAAAAKA11dWfqX//8+27E+b1ekU+xRnT9ZFPcc50feRTnIsVh26TbwAzXC6X0RsPAF+84AxfkrkAAAAAAADooPjdPvWQT0G6cHm9XsvtdhsL+DORhU41pq/Z7/cb/RJKRh+avmbTTLcvHf+ixDTTcWgFlxlI9J4wQxcAAAAAAADo3EzP0PX5fCKf4ozpayaf4pzp9pFPcS5WHJrrzSQx+UGEOdyT1MM9AQAAAAAAAID0RT4lNXFPUk9HvCcpn9AFAAAAAAAAAAAAgHRFQhcAAAAAAAAAAAAAUhQJXQAAAAAAAAAAAABIUSR0AQAAAAAAAAAAACBFkdAFAAAAAAAAAAAAgBRFQhcAgBiObFimgTMWB7YVu+zFUsQxv9xpL0mmXfrljMUa+ESpjtiLTNm5poX6g+/dQn8AAAAAAAAAAMwjoQsAcahYNFKjR4e2B/Rmtf2IRNTozR+M1OjRz6rCXuTQsbce0OjRI/WLHfaSVlSv0Q+brjF6++FbNfajO73zxkzRnsUztOX27vaiJDuq1U+c6SRxpKNavfqAHpgwWufZiwAAAAAAAAAAZxwJXQBoQ8WikZqxvEQPvl6m0tIylZY+JG01nYJNAfnj9R+lgWtcPFmSwtf8Hzfn2Y9GRNL33kvsJck0WPcunqE9P05SwrVml9aqSN+MeU3B975zsL0AAAAAAAAAAJAkLq/Xa7ndbrlcLntZQizLMlZXR2H6mv1+v1wul7E6LcuSJGP1dQTJuCeS5Hab+xsI021Mdabj0LIsWZaV8D3Zv/+w8vPPte9ubsezGj1zhUrmrGkxqRlI+IZf37GoTN8bEpglO2FBgR6cs1ePLygPFE5+XqUzi4JlwX2RguVS+L1DQvWqeo1+eOsCDZgzR/sWLFCglju1uPQ+FQXLmtccLLfvbkE4if2kvp4ffs/yyPapRm/+YLwe33ynFpeO0cbRd2vfnDkasGCBXpaCCeHg+WrlekJC5VHvEY9d+uWMjXoy9PK664MJx6Na/cQ6afpVqno4VN5XKxeP15UKLiv8wZe15YL3NfyVWknSuNsn6bkxvZpqVnBZ5eGfXmVLYka+Z3ctfGyKJtjC48iGZU31StIDs8KJ3+iy8Pl/XrFYk95tOqVJqF1R5zVdZ1jL79lGX0T484rF+vUFkf1g6181f++W37e1svjbBAAAAAAAkIjq6s/Uv//59t0J8/l8Ip/ijOlrJp/iXDLuicinOBIrDs31JgB0Qseq9kqSBvRrLZkbnsm6eLL08szIJZlX6PEN12t1aZlWzymRlv9Wb1ZLPW9+UqWla/TgCAWTrcHZv7ZkbsmcNSoNnhtdr/Tygo267vUylb4+RyVaoRffqmmaZbt6TokUTJoGZhXHn8yNKX+krhshafmG8PLQ1WV6d7NUMmdyU93lCxZIi8qC11aux3+2RscU3/Uk6s8r/qaSxTO0Z/EM7Vl8vR54d2PEcsW1mv3w++r3WKB85XUHNCny+a/vbgwkaxfP0J7HiqRX1ml1XKtLB2eqLr5eD9iLmpKYZ2tlU7siZvHWlOpVjWvav+V2afYLgefVXnnnDO1ZPEkLCwOJz9AxoeRqq8tA71wT/Z6z+urJp5dFXE9kX0zSwsID+vWGo9F11JTq1+/21b9FJbVD1xrqw4giBc55pKVrNdEmAAAAAAAAAEhzJHQBoBUH9zWf6xpWoY3LJU3+dtMs1KJJc1Sicr27NZSxKtGDPxqvnk3nlGvvp00vWlRRukLSnfpWcFZwz2HX2+qVSuY8FJ79Kql836HwC+Py9PW77pS0QhuDz+WtWLlA5RFtlAIzjAOzbvNUMFDS5o0qq47vejTkvuikdpyuvDNyRudglVwnVXwaTgo+MCs8e/bKoX2l/Ud1JFRYWKQtoZmmeYN1Y2GtqhwnmXfp1Vdq9cCsFmaa5o3WvREJ0/OGDNC4ys9UFXVQewWeezvu9pLwe14yXiuvq9XaHbH6opdKru6udRH9JElHduzTuuu+HLvdrTqg8mbP/DXTJgAAAAAAAABIdyR0AaAVfQYEZrrGVF2pffZ9RtRo7x5JWqEZo0dq9OiRGh1zGeXEHHvrgUCdoe0HwVm0bRkyRndIerm0IiKZPabFmb/hvkvu9WjnGg2csbhpi7VkcZQ2kqeRyeCE1BxVhbqrX0SyPdpRrX4i3N6BD1donf2QBBVdEL1cdPvs0quvSAu/1s7n4+aN1nOz+urJp4PX80RgtnGIszYBAAAAAAAAAEjoAjgjTD7H4Ezq2a9AkrSvKq51eKVP9xpIVAZnt0YuxRzcWnqOb3sElnuOqPc/I2cQt6ZIk+eUBJZd3rFBL6tED05qKZ0bmt1coIL8JF5PTanuefpA1PLEzZYEtis8V/3s+yI4TkDm9WoxyS1Jf16xUrNVpC2hZYgfK9I4+0EJik5GH9U/9ke8bMvOv+nJwgEqSeSWXDI+3P/9KzQ8IqnrqE0AAAAAAAAAkGZi5VNI6Bpg71R88bgnMGbIZD04Qipf8O8Rz3ut0C8WVUj54/WtyWp6Lq5iLJXculCic6/22pb5LRodWN74xbfiTCTbtDsRHafAUskrNGPmCmnE9RrZ0izU6jV6MWIGb1zXs+PZwOzdRU1P6Y1TxGzYnWtamaG7S798+oDGXT1Y59mLJB3ZsE6zK/uqJPT814QNVsl1tU3PxY2pf69gG45q9Qv2Gbq9dGF/6ckPIp7126bgcsWvlOvPoV07yzW70v483JYElkd+YMLomH3THv0uCD3f12mbAAAAAAAA0Nnw233q4Z50DCR0AaBVefr6f67RgyPK9fitoWWKN+j64HNei2ZGl81YfqcWl97X6gzNSEUzn9cdiqg7lMwccp9WzylR+YLxEcsjPxCRVG7DkPu0eLIizn9W7U2TxpQ/UteNCPznHXfFmNm7/O7wksqTnw8/D9fp9bQkb7T+7bpazX44uNzv6nO10DZDt2kp4BkbVXH7JD0XmUysrNDw4NLHw185WysXh557G14WefgrtdK7GwN1rAgmWZuWed6oJxV6/2VaHcxXX3lncKZqxFLQvww+Y/bKrxVpXKi+GStVdXXzGbpX3nm9Hmg6ZrHu2XC0zTadN2aKttx+QpNC7/n0CS18rIXn+NrV7NLaBJPZRzYsa2pnUz/+OJAYdtQmAAAAAAAAAIAkyWVZlmXfCQCd3f79h5Wff659N+JQsWikZuyZo9VRSzVX6Bej79bLkUncL9xRrX5ipaomzNC9sRKVO9do4OpztSWYfExnf16xWL++wJbsbkF7jgUAAAAAAPgiVVd/pv79z7fvBoAOhxm6AID47XhWM5a3MDsXHdaVd86IL0FbU6pfv2vgOcMAAAAAAAAAgLiR0AUAtK16jX44eqRGz1yhkjlr9L0h9gPQaTUtL71YAx+ukG6fFHvGMwAAAAAAAAAgKVhyGUBaYsllAAAAAAAAoHNjyWUAnQUzdAEAAAAAAAAAAAAgRZHQBQAAAAAAAAAAAIAURUIXAAAAAAAAAAAAAFIUCV0AAAAAAAAAAAAASFEkdAEAAAAAAAAAAAAgRZHQBQAAAAAAAAAAAIAURUIXAAAAAAAAAAAAAFIUCV0AaFGFfjF6pEb/YI2ORe7e8axGjx6pX+yI3Jlqjmr1E4s1cMYyra6xl31Bakp1z4w1+rN9PwAAAAAAAAAAaBEJXQBoUZGunyxp80aVVYf3VpSukFSiggsij00xNbu0VkVaebu0dsdReykAAAAAAAAAAOggSOgCQCv6DCiRVK69n4b2VGjjckkjrtfI/OCeRSM1enR4a5q5GzGTN3zMs6poOucBvRmRKA4d/8O3wlNqQ+e1dzbwkR37tK5/L105ZID0p106Yi/fsEwDZyxu2n65M7J0l34ZUTbwidLw+TvXRJwXOfv3qFY/sUyrayLPDc3GDe57uELrdECTYp4PAAAAAAAAAABiIaELAK3oOex6lUh6ubQisKO6UvsklYwZqZ4KJGE3ji5TaWmZSkvX6MER0sszA0nbkH0vPRA4ZtGdklboxbdqVDT6TknlendrRPK2dIWkO/Wtm/Mizk7EUZX/qVYPDB0s5fVSUeU+lUckTo9sWKbhr5ytlYtnaE9wu/eSUOku/XLGRlXcPqmpbM+PR+s8BZdMfvqEFj4W3D/rbM1+OHIJ5VrNfvh99QuWr7zugCat2CVpsO5dPEN7HivSOPWNeN8pmuD0UgEAAAAAAAAA6ORI6AJAa/JH6roRkpZvUIWkY1s3qlwlum5YMBM55D59b0jo4DwVDJSkvdobMfO2fOC3A8cMGaM7JJXvOyQNmawHR0jlG8oCz+etXqMXl0slcyarKHyqimYGksXh94hDzS6treyrkkskabBKrquNWHZ5l159pVYPzBqvK6PPkiQd2fC+niws0rwxvexFOrJjn3T7uHAS9pISLSw8oPKI2b0PzAonaa8c2lfaf7TZ7GAAAAAAAAAAABA/EroA0Ko8jRxTImmFNu6oUdmG8qjllqUK/SJiueUZy6PPlqSSAb2D/1Wk75WWqXRmUbje4PN5myWKHTiyY5/WXfflpoTtlUP7al1o2eWao6pQd/Vran+0qk9rpf69AjNyY5Ste2VlxJLLKzW70n6UTeVnqrLvAwAAAAAAAAAAcSOhCwBtCC27vK+qTHs3Ryy3rBq9+YO79bLu1OLSwEzaxZPtZ7es583f1h0q17tbKwKJ4snf1tdbSLTGL7Dcst7dGE68Pn1ACi27nNcragawXb8Lutt3RRkXuRRzs+WaYyg8V/3s+wAAAAAAAAAAQNxI6AJAW4LLLpcvWKCXY82iHVGgPgovmxy/Il0/WSpfcLce3yzdMbp5qrViUWDm7y922EtaclRVld3Dz7ldPEN7Fk/SwsLQssuBJZhnv1Aacynk84YM0Lh3N+qXEcsoh1w5tK/WvbJOqyOex9uyXfrl0wc07urB4dm+eb1UpOglmgEAAAAAAAAAQOtI6AJAm0LPxpWkAhU0zaLN09fvulPavEATRo/U6Fv36luL7mw6Kx5Fo4PHj5ijye15Tm5Ldv5NTxYOUElUzrmXSq7u3rTs8pV3ztDK/hUa3rR08uJwAjdvtJ57rEgVT4fLBj4RTP5eMl57Zp2t2Q9HlM1Yoz9HvNOTTedtVMXtk/Rc1LN4B+veWX0jjlkWZ3IYAAAAAAAAAID05bIsy7LvBIDObv/+w8rPP9e++8yrXqMf3rpAAxaV6XsmErpfmKNa/cRKVU1oYwlmAAAAAAAA4Ayprv5M/fufb98NAB0OM3QB4AtTozd/tkDlpmbnAgAAAAAAAACAToeELgB8AQLPxh2vxzffqcX/OV497QcAAAAAAAAAAACw5DKAdJUySy4DAAAAAAAASAqWXAbQWTBDFwAAAAAAAAAAAABSFAldAAAAAAAAAAAAAEhRJHQBAAAAAAAAAAAAIEWR0AUAAAAAAAAAAACAFEVCFwAAAAAAAAAAAABSFAldAAAAAAAAAAAAAEhRJHQBAAAAAAAAAAAAIEWR0AUAAAAAAAAAAACAFEVCFwAAAAAAAACA/5+9v49v47zvfO8vCD36MaZMOBLpOKhNxKm5SrV2LSXHUtLdLrGKrbWTdiFlzznJYaFdRxGP656e2L4rvLi7WLgbO6+e+PimrLTLKTe9u42EbbdKFYcdbtM4kttYrr1KuFBig05oO6Rlgzb9GOuJIO4/ZgaYGQAk+CSB4OfdF0TymguDmQtkaunL3+8CAKBOEegCAAAAAAAAAAAAQJ0i0AUAAAAAAAAAAACAOkWgCwAAAAAAAAAAAAB1ikAXAAAAAAAAAAAAAOoUgS4AAAAAAAAAAAAA1CkCXQAAAAAAAAAAAACoUwS6AAAAAAAAAAAAAFCnCHQBAAAAAAAAAAAAoE4R6AIAAAAAAAAAAABAnSLQBQAAAAAAAAAAAIA6RaALAAAAAAAAAAAAAHWKQBcAAAAAAAAAAAAA6hSBLgAAAAAAAAAAAADUKQJdAAAAAAAAAAAAAKhTBLoAAAAAAAAAAAAAUKcIdAGgVj/5G/WlD6ov/Td63n8MAAAAAAAAAABgERDoAkBNfqzv/M/XteEf7dLu2K/rI/7DAAAAAAAAAAAAi4BAFwBq8drbeldX6/qP+g8AAAAAAAAAAAAsHgJdAAAAAAAAAAAAAKhTBLoAAAAAAAAAAAAAUKcIdAGgFhO/0LtrLtXV/nEAAAAAAAAAAIBFRKALANN57Qc6lD6ovlc2aPe/+LjW+Y8DAAAAAAAAAAAsIgJdAJjONR/Xztgu7d7wivr+6gd6w38cAAAAAAAAAABgERHoAkAtmi/V5Wd+odf94wAAAAAAAAAAAIuIQBcAAAAAAAAAAAAA6hSBLgAAAAAAAAAAAADUKQJdAKjFNVfqcr2nN17zHwAAAAAAAAAAAFg8BLoAUJNf1qf/0WX68fcPqi/9N3refxgAAAAAAAAAAGARBAqFQsE/CACN7uWXX1ModJV/GAAAAAAAAECDyOXe1Ic+dI1/GACWHCp0AQAAAAAAAAAAAKBOEegCAAAAAAAAAAAAQJ0i0AUAAAAAAAAAAACAOkWgCwAAAAAAAAAAAAB1ikAXAAAAAAAAAAAAAOoUgS4AAAAAAAAAAAAA1CkCXQCoS69p4u7b9crXfiTpRxrfcLtePfyaf1LRO1+b/vhCOn34d/XKhts1/mzl8Vc2ONftNrv7mQ3rdQ/oHXsdXrn72zrtn7TQnj2wcK8zi3NN/z4v3hpPa4brvyjvz6Kx1tX6Pv9dTZzyHp3+Z+BCsb4P/D+flV2k7xkAAAAAAAAAs0KgCwDLzmwCn9qtvesPtOGVx3XVYzf6D10kdljlDhCfPVAxjK5m+gD1wrti1x5p4B/mHIh6Akd3IGmvi+dhr5v3OeXHdfNntUbf02lfuHnRzRA0z83H1PLK49rwyu9rpf9QXf4MAAAAAAAAAGgEBLoAUJeu0YobpabwByV9UMEdUvDaa/yTLgontGq52X9kOot3P2uvvUHaca1WSloZvlG68VqtlSS9qvyRG9Wkn+u8Pfedoy+oaYfn6UvL+l/VKh3QexUD6enX+J2v3a43v3SDLnvlcW145XFteOU+6aAr8NyxR1cVjz2uDX94h9a63m8nxFx5xHtcukZrt0tnDlauSK3+/uDim/57BgAAAAAAAEB9CBQKhYJ/EAAa3csvv6ZQ6Cr/8BLymibu/i2dOVIaaXrsj/XBu6ww5vTh39WbX3rOPnKHLntlj66wQ733vlp6jqP6c2/Ummf/QM3rZbdk/T07HHWPe50+/Lt6c+Tz2vA7H/Mfmt5rP9Ch778kXfdr2rl5IUKlH2l8w98r+NgLyl/7B2q5+Uca/5q0Wr+n98P2/T57QK/s+LY9v3RP3jVw+fLvW/f17AG98kfX6rLt39N79jz3GurUt/XqzQc05X+erez8O/boqmJAOgP7tWueL+d6vqdVVd6z2s5pvf86UinM/5HGN/yJgtXOPxfPHtArRz+hq8J/Ulwrzxp7vh9da+hf+6LSz8FMqv8MOKa/32o/A/73feWRx9Vys/WznP83/nX1vka1n+nSXNdaFM/tGgAAAAAAYBnK5d7Uhz60EP/OBAAXFxW6ALAEvfO139KZG3+/WE152ZddB5894KnEvOqxF/Se3Xr2it95XBte+WOt2eGqtHzlcU8Q+Z7uK45f9Zh05t85VZzTt5utVys2/5ryR38kPfv30jZXwHbq23p1xwta86y9Dkdu0Jmbrb1enarUy75shYjFqlV3QHfkgN4b+bz93Ds09aX/pnckK1y7+YCCxfX9fa386u+VWjf73p8NR+4onbMWN39CK4/MrsXx6ePf09SOX9PaCuHjwviYVn/5OZ07vsDtqb/6e1YwWrbGr2ni7t9Tvvje/LHW6IDe/NqPpPV36IPOunqqjmsLc6f/GZiHCu/7+R2/q4lTVpVs/ufTrN00P9MV12IpV6EDAAAAAAAAKEOgCwBLzalv6/2v3qHLqlTAvnP021p5pBRerb3r87UHgOvvUEuxAlJau/nX1HSk1LJ4UV3zce2M7Vqg6lxJp36uvOw2xc/9vcaPSqtdFYunj39Peuy+UoXlzZ/Vmh3f1tmK7Ywr2LFHVznvwc2f0Eq9oMlT0unDf6LzO/bosuJrfUwtR+7Q1MA/6LRe08Qfed+f2fuYLnuseovjGZ36tl7174MrK6B+071H7tdmd/4rdu2RioHrAqmyxnr2v+nMkTt0SfF79Ro1/7s9avrq38//9RflZ8B635se+2zpfb95jy6zQ/CVYWfPXdf+1qd+rrxu0Ir1M/xMP/vfdEZ7dKXrmgEAAAAAAAA0FgJdAGgor2nyOen8Dlcw52vFOj0rUCo+t2Lr2qXmGq3d/oLO6xO6wtnHVdL5kec09aXfcq2Tt4X1vCzyPrFrN//a3MNLdwWrm38P3Sq/MFDV+l/VqtkE4vNl78u78BbvZ6Da/rRrr71BUyOvSqf+Qfkb75Ccat0d12rlvH+mAQAAAAAAACx1BLoA0IDc7ZStR+W9Pv3e+dpv6Yxcwd6ze5b2/6OwQ7+1d/2BJ6CcGnlVsvdk9a7TAu07+tzPPS16T//8BddXC2D9Hbrky9/W+04b5xmsvfYGqdYq7Tm7Rs3/5g6d/6MFaE9cC3/V7Cs/X5DgdTF/Brxtla2gVpK04Vo1PfdzvXP8e9K2zyo48g86/crPNeX6xYC5/kwDAAAAAAAAWPoW6t8oAQAXyvprFVSpEvL04d/Ve191Dl6jtdtv1Pkd1l6wlVl7dp4/WqWlbjFEek0T/27hqhNn9NoPdCh9UIcWeh/WKq7YdoemvvSwJqYJOVeGb7RbJdfOatF7QO8VK1V/pPe+9JxW/ps7tNa/9qe+rVd3fNv17Npdsc1p41yDmz+rNTueW5i9YKczh/195+TmT2il3IF2hZbGG65V01yvZcF/Bqyfy9IewJXaRkuTIzdo9c3XaIW+p/eOvqCm8Adn/pn23ec7X6tQae602Xa32AYAAAAAAACwZBDoAsCSY+3J6rRgfXPk87rqMWcPTqsa9arHXtB77v1QfUHOFb/z+1r51d8rHn/VDsau2LVHTcXx31J+u6s68dkDrnavz+nMzbfrlQ2/aweipTa1b37pOck5xyz3YV1QM1Vs3rxHG47cYN+H8/CGZmvvuk9r5Npbtpb7WX+HPvjsHuWLLXJ/T/nH/rhY+etZ+5t/rkvmWgF682e1Ru7geDrXqPkPH9dlN7ruxR8k+/fQnVP4N8/9fWv2MbW88vsKFltm/5bO3Pj7+qB7H9n1d+jKx+R6f6sEoj6L9TNQ9nO54wWtedbeF3f9tQoeOaAzdlvwK7bdoPNffa7Yornsue73x3ef74f/WJd92blgAAAAAAAAAI0gUCgUCv5BAGh0L7/8mkKhq/zDwNLy7AG98kfX6qo/vGNR9+ydnR9pfMOfKPgsLYEBAAAAAMDFlcu9qQ99yPUL4ACwRBHoAliWCHQBAAAAAACAxkagC6BRzKnLIwAAAAAAAAAAAABg8RHoAgAAAAAAAAAAAECdItAFAAAAAAAAAAAAgDpFoAsAAAAAAAAAAAAAdYpAFwAAAAAAAAAAAADqFIEuAAAAAAAAAAAAANQpAl0AAAAAAAAAAAAAqFMEugAwg+e/e1B96YPq++6P/YcAAAAAAAAAAAAWFYEuAMzgI/90l3bHfk2//Ishfecn/qMAAAAAAAAAAACLh0AXAGpyjT5yzRq9+85r/gMAAAAAAAAAAACLhkAXAAAAAAAAAAAAAOoUgS4AAAAAAAAAAAAA1CkCXQCo0borLtO7r/1Mb/gPAAAAAAAAAAAALBICXQCo1Ud/Xbvbf6G/TB/UoePspQsAAAAAAAAAABYfgS4A1OiN44fV98oG7Y7t0s7N1/gPAwAAAAAAAAAALDgCXQCYhcsvW+cfAgAAAAAAAAAAWDQEugAAAAAAAAAAAABQpwh0AQAAAAAAAAAAAKBOEegCQE1e0/OvndHlV7B3LgAAAAAAAAAAuHAIdAFgBs9/96D60t/Tj3WdNn/UfxQAAAAAAAAAAGDxBAqFQsE/CACN7uWXX1ModJV/GAAAAAAAAECDyOXe1Ic+RMc9AEsfFboAAAAAAAAAAAAAUKcIdAEAAAAAAAAAAACgThHoAgAAAAAAAAAAAECdItAFAAAAAAAAAAAAgDpFoAsAAAAAAAAAAAAAdYpAFwAAAAAAAAAAAADqFIEuAAAAAAAAAAAAANQpAl0Ay1IwGNTkZN4/DAAAAAAAAKABTE7mFQwG/cMAsCQR6AJYli69dI1Onz7rHwYAAAAAAADQAE6fPqtLL13jHwaAJYlAF8Cy9IEPXKapqSm9++77VOoCAAAAAAAADWJyMq93331fU1NT+sAHLvMfBoAlKVAoFAr+QQBYLt566z394hdnlM8T6gIAAAAAAABLXTAY1KWXriHMBdBQCHQBAAAAAAAAAAAAoE7RchkAAAAAAAAAAAAA6hSBLgAAAAAAAAAAAADUKQJdAAAAAAAAAAAAAKhTBLoAAAAAAAAAAAAAUKcIdAEAAAAAAAAAAACgThHoAgAAAAAAAAAAAECdItAFAAAAAAAAAAAAgDpFoAsAAAAAAAAAAAAAdYpAFwAAAAAAAAAAAADqFIEuAAAAAAAAAAAAANQpAl0AAAAAAAAAAAAAqFMEugAAAAAAAAAAAABQpwh0AQAAAAAAAAAAAKBOEegCAAAAAAAAAAAAQJ0i0AUAAAAAAAAAAACAOkWgCwAAAAAAAAAAAAB1ikAXAAAAAAAAAAAAAOoUgS4AAAAAAAAAAAAA1CkCXQAAAAAAAAAAAACoUwS6AAAAAAAAAAAAAFCnCHQBAAAAAAAAAAAAoE4R6AIAAAAAAAAAAABAnSLQBQAAAAAAAAAAAIA6RaALAAAAAAAAAAAAAHWKQBcAAAAAAAAAAAAA6hSBLgAAAAAAAAAAAADUKQJdAAAAAAAAAAAAAKhTBLoAAAAAAAAAAAAAUKcIdAEAAAAAAAAAAACgThHoAgAAAAAAAAAAAECdItAFAAAAAAAAAAAAgDoVKBQKBf8gACwXb7/9tt5//33l83n/IQAAAAAAAABLTDAY1CWXXKIrr7zSfwgAliwCXQDLVi6XUyAQ0Jo1axQMBv2HAQAAAAAAACwx+XxeZ86cUaFQUCgU8h8GgCWJlssAlqW3335bgUBAl156KWEuAAAAAAAA0CCCwaAuvfRSBQIBvf322/7DALAkEegCWJbef/99rVmzxj8MAAAAAAAAoAGsWbNG77//vn8YAJYkAl0Ay1I+n6cyFwAAAAAAAGhQwWBQ+XzePwwASxKBLgAAAAAAAAAAAADUKQJdAAAAAAAAAAAAAKhTBLoAAAAAAAAAAAAAUKcIdAEAAAAAAAAAAACgThHoAgAAAAAAAAAAAECdItAFAAAAAAAAAAAAgDpFoAsAAAAAAAAAAAAAdYpAFwAAAAAAAAAAAADqFIEuAAAAAAAAAAAAANQpAl0AAAAAAAAAAAAAqFMEugAAAAAAAAAAAABQpwh0AQAAAAAAAAAAAKBOEegCAAAAAAAAAAAAQJ0i0AUAAAAAAAAAAACAOkWgCwAAAAAAAAAAAAB1ikAXAAAAAAAAAAAAAOoUgS4AAAAAAAAAAAAA1KlAoVAo+AcBoNGNjo6qubnZPwygDuVyOb377rs6d+6c/xAAAAAAAFiiVq1apcsvv1yhUMh/aMFMTEyora3NPwwASw6BLoBliUAXWBpefvnl4l/wVqxY4T8MAAAAAACWqMnJyeIvcH/oQx/yH14QBLoAGgWBLoBliUAXqH+5XE5TU1O6+uqrtXLlSjU1NSkQCPinAQAAAACAJaZQKGhqakrnz5/X66+/rqampkWp1CXQBdAoCHQBLEsEukD9++lPf6q2tjZddtllCgaDhLkAAAAAADSQQqGgfD6v9957T6Ojo7r++uv9U+aNQBdAoyDQBbAsEegC9e8nP/mJOjo6tGrVKsJcAAAAAAAaUKFQ0Llz55TJZPTRj37Uf3jeCHQBNIom/wAAAEC9oDIXAAAAAIDGFQgEFAwG/cMAAB8CXQAAULcIcwEAAAAAaGz83R8AZkagCwAAAAAAAAAAAAB1ikAXAAAAAAAAAAAAAOoUgS4AAAAAAAAAAAAA1CkCXQAAAAAAAAAAAACoUwS6AAAAAAAAAAAAAFCnCHQBAEvX+OO6b9s2bbMf931nwnt8aH/x2LZt27R/yHt4dk5qv+88Jw/Y5z5w0j951k4emO/1AQAAAAAAAAAaEYEuAKBhPPXED+SOdE/+3SHXV/VqQo/ft017vukfx9KUkRGLybDD+dxAQrF9pnL+afOQG0gUz+9/vYWVkREzlJGU6Yst+H0AAAAAAAAAqA2BLgCgcTz1ok4VvzipJxY5JL1pz1EdPXpUR/fc5D8ESJJC21NKPxhVyH9grsZNPdqfdQ10KJ5OK77RNbRQho7L7NysDkkdu9MLex8AAAAAAAAAakagCwBoAFu0ZYskHdITTqXi+It6SZK2bNEWz1xLsV3ytm3atu0+PT7um+Br51ypHXLFlsu+51V7ruWk9m+7Sw89ZX11qHubtm1LKlnlec7r3fedCdfr3KfHh2a4Vv81+VpET3znPmv8vsc9Fc5Y3nJjI4q0EuECAAAAAAAAFxuBLgCgIXzyUzslSS+NWpHkxD98X09J2vKpT+o6z8xKLY6f0kO/4QpCxx/Xfb/xkOycVZJ0qHuPZmzgXOF5knSou0JgXNU6/bMHrAj60N+5g1en4niLPvmrza7xp/RQt/9aXfcytF/b/Nf0zT3LM7wdN5WIxRRzPdytijN9McX6MtZHZ46nzbDT3tj66MxJDFRvRFyp5bLn/GXtknMy93mPx/oy1qEhQ7G9hrKSzJQzXqHlsv8+Pa9vnT8xkPG+Tlk75ZxOPCltvcUKdMtaLg8Z3msse753jWJ262aHsy6ZgYRrTkJmzT8nAAAAAIB6NjU15R8qmu4YAKAyAl0AQGNo+7C2uPbRPfWSFWFe1/Zh77yhb1oVsVvu1+GjdsvkXisMPvSnVsjphMHSTh2w5xy2Q9bpFEPkBw5b5z16QNaZn9KLpV7QLjdp79HDut8+9c7eozp6dK8+/quftKqKv/mEipHu0BNWoPy5L+j2luIJLJ87YL9e6VxWGDyhx//UiqGtc7vmPPWQvmmHgM2fftg69vDtckfFDWXcVGKvoXAirXTaevR2RWSmfCHiYFJJ9dhzehWXoW5fWGmmkpJznv1xqb972lC3xApTkyNx9drXkN4f10jKCWRzMvd1ywg7r28djwwmrfNvjFtfS4om0krv7vC/QDH0VVfvtPeQ7U9qdKfrNYYNPeq+h/ETOqat2uT/XpP9GqkRxfc7a2m/hhM8j5tKxJIyO0v30dNpKukLdTVsKDm2q3SO9qyMR/zBMAAAAABgqZmYmNDDDz+sn/70p/5D+ulPf6qHH35YExPL7tfMAWBeCHQBAI1h/cf1yS2Snvq+fjDuVLPu1Kd8e4ue/Du7zvaph3SX04K42xl7Uac0oR88YcW5Wx74nJzdcZs//QU7nK3OCUYf/nSz3R65hqreSlrse3G1kHaue+f/4t+vd4vu/83iVer2/82+ym8+oZPjP9D3Pe2ct2mbq8WzU828HOSeOaZse1w7XN8PoVu2KqKsRj1he1Q9xaA0pOi9Vth5xF0B29lT2rO2Jap7uiLK9h/xhpWVjJ/QseGI4ve69qJtiSrl7IHrHL/TFdS2bNLWdik7VkvMmZN5yJQ6e5Ta7rxCbfewq1PKPnmiFKaeGlU23Fpxz9zc2IiksFqLYW9I0QdLAXPmW4ay7XH1ugLnjt09isrUQU/w7VvrnVFp+JhOUKULAAAAAEteoVDQgQMH9MMf/rA49sMf/lAHDhxQoVDwzAUAzIxAFwDQIJr14bCsatg/d6pZP1UMZGvzkl6sGiat14dnKtId2l/cp9bb0nm2mvXxT7naLo8/rm9UCail6/RhdxXleqtSuRZPvVSxbLghhbanlH7QClJzTptfu32xR+dmeepe7UB1xBWoRm/1VsZawfCIxqp+71hyzxxT1hOE+rRElUqnFG1xt03uljHsn1hNTqPDKt/31r4H8+lS5Fw2xyfztFl2nw7rfk0l/a2eJUk5WXmvPwzu0GZ/aNzeVjEwBgAAAAAsbc3Nzfrt3/5tXXfddfrGN76hJ554Qk888YS+8Y1v6LrrrtNv//Zvq7m5YXuEAcCiINAFADSMm/4Xu3XyN61q1i3XrffNcCm2KXY/HtbtLU4w7HdKL/o3x/UotTcutXN2Wi7PXrOr7fLjTgvoigG1L4Q+9WLZHr7SFt3/F/57Paqje8rP1rBc+8p292etlsV2++ILatoQ07V/7l5D2c4euxWxf970wjOEtTPL6PhgVJvLfnnA1hJVKt2jqLOXb4X9b2cKjAEAAAAAje2SSy7Rnj179LGPfUzf+ta39K1vfUsf+9jHtGfPHl1yySX+6QCAGRDoAgAah6c6dYs++avlv+3phL765jf0uB1ATXznPquy9j5rD93111lneeor3yzuYTvxnW/M0D65FPju/N/svWidfW9r5GmB7Gq7/NBXnvK1VnZ7Sg/9efEqS6Hy5z6lm4rncM85qf12FfH+surKxlVsA2zv6VpsNzwjq+p1WqdGyyt9qxkerb5H7NARGcOR0t60lfbIrYG7mtit5pB1fEwj0wbPktShuLPPb7pHUWVl7C3tkVu1RXRZ5S4AAAAAoFGtWLFCn//854vdzL7whS9oxYoV/mkAgBoQ6AIAGkcxwFR5K2LHxs/pfifk/A3rLxR3fcVKYp0gtrRf7iHtsf/S4cyprtSSubhfrbM3b42e+spd2rbtPjtodu2HK0lbPqmPV7ofSfrmHt/+uE74695T15lj7+u75X59zg41/YF2IxobkSK3bfKEiVYLZJ/B4969cMfHNKKItt5Seqa7dbGcPWXbt2pTtffHFmoNS9O0Zq54nvETOjZToFwUUlul/Xbtc9RauZt75pjkW6vpdSi+P263nQ7Jus0xX3Cd0fHBWYTKAAAAAICG0NTUpM985jP6zGc+o0Ag4D8MAKgRgS4AoIG42iVXbE8sK+R8+LAd6pbs7D2qvcWqzZu019cueWfvTO2Tm3X7w/7nHNXhB1x74VbUrNu/fH/lfW83fqp4vi2f+rhV9Vtmi+7vdT9/i+7/i4d1uxMKbtyro72+K99yvw4/bFcRLxOtYSnbf6QU1o6berTfinO9Fa2mkn3OrJzMRwxlO3dZ+9o6BpOlvWPt80R3WvvzTmvjDsXbszIeMV1hZ0ZGLKbEQM4KfIcNHSlWTtuvr0oBaSUhRXdGpcGkEgPObPsc7XHtqKkqOacTT8oTYPtZexCXqnFVrIC2wuiOO+OKDBvqLq6jlOlLylRUu7ZXPy8AAAAAAACAygKFQqHgHwSARjc6Oqrm5uUUZ2FJGn9c9/3GQ3rKH9LOdKxB/OQnP9Gv/MqvKBgM+g/NQU7mvm4ZxWrXiOL7d2l0b1JmZ4/SuzuU6YspORJXPGzIGLSn2ccsGRmxpEa64gr3GzLt0WjC3cLZmiN7LDeQUPeTW9X7YCnwzfTFlHTOLynS1auUHXTmBhLqtoNm59iusW4lB6PqScfV4X5+e1y9D7bqiOv1JHu/4L12ECz/PVjrcOy20mvKOeeIc77j2my/Vvlx6z781ymVrs9+hoxYsrhG1rWW1qDSumjIUCw1ovj+lDdABwAAAAA0tHw+rx/+8If66Ec/6j80bxMTE2pra/MPA8CSQ6ALYFki0EVdG9rvbdf8uQM6usdXb0ygu+D8oWU5J9D1hqHLwcxrAwAAAADA3BDoAsDMaLkMAEC9Wf/hUgvlLffrsD/MBS6onMZGJIVbCXMBAAAAAACAi4BAFwCAetNyux4+elRHjx7V0Wp73RbnNGZ1LurEkKFYrFvGcETxO91NmAEAAAAAAABcKLRcBrAs0XIZqH8XuuUyAAAAAAC48Gi5DAAzo0IXAAAAAAAAAAAAAOoUgS4AAAAAAAAAAAAA1CkCXQAAAAAAAAAAAACoUwS6AAAAAAAAAAAAAFCnCHQBAAAAAAAAAAAAoE4R6AIAgLq0atUqnTlzxj8MAAAAAAAayJkzZ7Rq1Sr/MADAhUAXAADUpcsvv1zj4+MqFAr+QwAAAAAAoAEUCgWNj4/r8ssv9x8CALgQ6AIAgLoUCoV05swZvfTSSzp9+rT/MAAAAAAAWMJOnz6tl156SWfOnFEoFPIfBgC4BAqUvQBYhkZHR9Xc3OwfBlCHcrmc3n33XZ07d85/CAAAAAAALFGrVq3S5Zdfvqhh7sTEhNra2vzDALDkEOgCWJYIdAEAAAAAAIDGRqALoFHQchkAAAAAAAAAAAAA6hSBLgAAAAAAAAAAAADUKQJdAAAAAAAAAAAAAKhTBLoAAAAAAAAAAAAAUKcIdAEAAAAAAAAAAACgThHoAgAAAAAAAAAAAECdItAFAAAAAAAAAAAAgDpFoAsAAAAAAAAAAAAAdYpAFwAAAAAAAAAAAADqFIEuAAAAAAAAAAAAANQpAl0AAAAAAAAAAAAAqFMEugAAAAAAAAAAAABQpwh0AQAAAAAAAAAAAKBOEegCAAAAAAAAAAAAQJ0i0AUAAAAAAAAAAACAOkWgCwAAAAAAAAAAAAB1KlAoFAr+QQBodKOjo2pubvYPA6hT/McKAAAAAACNJ+AfWGATExNqa2vzDwPAkkOgC2BZItAFloZp/yNl2oMAAAAAAKCuTJPeTnNoXgh0ATQKAl0AyxKBLlC/yv7DxB4oGwcAAAAAAEtWMcT1pbkLGe4S6AJoFAS6AJYlAl2gPhX/o6RCiDvdMQAAAAAAUN/8Aa47uJ3u2HwQ6AJoFAS6AJYlAl2gvniCW9cXhQpfO5/wHzAAAAAAACwdgeIfvjA3UP518XPX+FwQ6AJoFAS6AJYlAl2gflQKaZ0gt+AaL9ifeMJf1+cAAAAAAKA+lVXjBqSAAq7PvcFutfB3tgh0ATQKAl0AyxKBLlAf/GGuO8i1PhZ8X5cHvx5lAwAAAAAA4ILzpbD+oNYd4FofA76vFybUJdAF0CgIdAEsSwS6QH3wVuC6w9yCpgrSlCvMdX9eDHR9/xVTINEFAAAAAOCis2tvS1+7glknsG0KeD+3vrae6Q91CXQBLHcEugCWJQJd4OJzh7LFoLYgTakU5nof1vj0gS4AAAAAALjY/AGsP9C1AtxAMcj1PJxqXVfFrvPc2SLQBdAoCHQBLEsEusDF5Q9knepbJ7SdmpLyBfsxZY3lncC3rFK3/D9lykcAAAAAAMBiqxy6eqtuncrcoB3gBpsCCjpfN5XCXmeu5hHqEugCaBQEugCWJQJd4OIq2H8U7M+tytuC8naYO1mQ8lPS5JQ1lrcDXn+Vrvs8AAAAAACgvrhbJvurc4MBKdhkBbkrmgIKNkkr7FA3aLdfbppn62UCXQCNgkAXwLJEoAtcXO4g1t1S2QlvJ+0wd3JK+v5L55WdyOutM1P+0wAAAAAAgCXqA2uaFGkO6pPXrdSKJivUXdFUCnndLZkJdAEsdwS6AJYlAl3g4nH+w8Opsi2GuXYV7uSUdD5vhbmHfnxWGy4P6rYN0tVr+U8WAAAAAADqyVVXXeUfmpMXXntPK5qklUE71LWrd51Q16nu1SzbLhPoAmgUBLoAliUCXeDiKP5Hh2sfXGt/XKs61wlzz09JT7x4Xk1NAf1GpEkrV65UU1OTAs7f3gAAAAAAwEW3atUq/9CcGE+/qU99eKVW+kNdJ9B1Vem6PsyIQBdAoyDQBbAsEegCF4c/0HXaLeftCt3zdqB7Li8ZPzyju//xal171RoFg0HCXAAAAAAA6sxC/V39/r9+XfFfWaNVQSvQXVlsvVzedtn1YUYEugAaBYEugGWJQBe4OPztlguuMHdySjo/ZYW55/LSI8ff16Pbr9SqVasW7C+IAAAAAACg/tx9OKd7N1+iVUFZoa5nP91AsUJ3tm2XCXQBNIom/wAAAMCFUrD/KNifTxWcNsxW9EtlLgAAAAAAy8NUoVDcmsn5dwLn3wwAYLkj0AUAABeH/Tey4l/QimGu9dACtm4CAAAAAAAX1unTp/XMM8/o9OnT/kMVOf8e4Pz7gCfMJdUFsMwR6AIAgAvL/ZcwV6jrefAXNQAAAAAAliwnzH3zzTdrDnWL2zO5HtYB9yTX5wCwjBDoAgCAi8LzlzNXiOv8BQ4AAAAAACw9Tph75swZSdKZM2dqCnXdv+Dt/kVv/78fAMByRKALAAAuKvdfzIq/jcvf1AAAAAAAWJKcMHf16tW6+eabdckllxRD3en4/02AIBcASgh0AQBAneGvawAAAAAALFVOmHvLLbeoublZN998s9auXVus2J0e/yYAAJUQ6AIAgLrDX98AAAAAAFia1qxZo1tuuUWXXHKJ5+s1a9b4p3rwbwEAUB2BLgAAVU3o8fu2ads292O/TvqnLbTxx3XffY9rwj++QE4e2Kb9Q/7Ri6wgFVRY4L+85WTuiykWiykxkPMfBAAAAAAAi8Ad5jqcULcWVqtlu/8yAEAi0AUAoIrxx3Xftrv00FP+A4e0Z9siBqJD+7XtNx5S2csuCCug3vNN/3h9WbC/rw0dkTEcUXx/WqntIf9RAAAAAACwCNauXesfkqYZd1uwfxMAgAZDoAsAQJmT2u+Eqp87oKNHj9qPA9ppzzjUfQEqdTEvubERSWG1tviPAAAAAAAAAMDSQaALAIDPxHe+oUOStOV+Hd5zk+vITdrbu1PSTh04ulfuI1ZFb/XWzBPfuc8av+9xTQztd827T4+Pu+Z0H7K+eOoh3bVtm+77jtN4+aT2u8/va8l88oA9fuBk6bU813FS+10Vx4e6S8c81+Y6JwAAAAAAAADg4iPQBQDA59RLVuq55VMfV7P/4Ma9OuoPcyu2ST6kPa6wtuiph3SXE9paA3roN2ao9h1/XPdt22OFzI6nHtJdlfbz/eYe3fUV95Uc0p7lHNS2t4lmywAAAAAAAACWMgJdAAA8JvTiiH9sOie13wloXe2ZD3xOVlj71fIwdWev3cK5t9jAWU8MSc2ffrg0tuV+HT56VA9/ulkn/9wKi7c8cNh3/kP6RrGC17FF9/+FNefwA1usoae+rx+M36S9Rw/rfnvIugYrmG7+9MPWeR++vTzAXsJyY1n/EAAAAAAAAAAsOQS6AADMx9ATduXsTh1wtWe+6Tfv1xY5YWppurbcr89ttD/f+KninrzVndQT37Q+e+ordxVbKe9xxl465Zmtz31Bt9t7xjb/6ieta1iWMjo+KEVu20SFLgAAAAAAAIAljUAXAACPZn047B+rwZYPa73765YP6zr314tl5MWyCuBlb9xUInZQbfvTSm0nzgUAAAAA4GIYG39LmZ+NKfOzMY2Nv+U/DACYBQJdAAB81l9n1bU+9cQPysPS8cd1X8W9cV+Up1Z2/EW95P56ARRbNbsfDdYmeUG0RJVK79Lo3piMIf9BAAAAAACw2MbG39Ibb7+nqamCpqYKeuPt9wh1AWAeCHQBAPBp/vQXrFbITz2kuw6cdB05qf2/8ZCe0lN66Df266TcbZMPaY9rrrPvrbZ8Uh+3WyDPSjEgvkmf+pw1dOhPnf14J/T4fVbr5fvK9tCtzUujc3ve0tGhzZ2S+XTGfwAAAAAAACyyN9/9hX+o4hgAoDYEugAAlLlJe3vt3W2/uae4b+22bXvs/XKlnb17Ze2Ye5M+94C9U61rrrXH7Rbd/+W5VtAe0p5t27TtwEnXfrwP6a5t27Rt21166ClJ2qkvfHpuZ7f247UqjSe+c5913fc5gXFjCLVGpJEx5fwHAAAAAADAopqaKviHKo4BAGpDoAsAQCUb9+ro0cO6385qS3bqwNGj2ruxNNL86Yd19C/s0LVopw4cfVi3z7Y6d+NeHbArcotabtfDFc/vhMq1atbtX/afBwAAAAAAAABQzwKFQoFfiwGw7IyOjqq5eW6VjQDmrmD/UZA0VbAe+UJBk3np3FRB5/LS2XxBZyelrz97Wo/tWKdgMOg/TU1yAwl1P7lVvQ9GFfIfBAAAAAAAi2bohVH/kCRp4w1t/iFJ0t2Hc/rizWu1eoW0OhjQqqC0qimgFUEpGAioKSA1BaSAJDkfazAxMaG2tsqvCQBLCRW6AACgIYVaw9LwKC2XAQAAAAAAACxpBLoAAKAxbYyrp9NUMhZTYoBYFwAAAAAAAMDSRKALAAAaVsfutNLptFLbaboMAAAAAAAAYGki0AUAAAAAAAAAAACAOkWgCwAAAAAAAAAAAAB1ikAXAAAAAAAAAAAAAOoUgS4AAAAAAAAAAAAA1CkCXQAAAAAAAAAAAACoUwS6AAAAAAAAAAAAAFCnCHQBAAAAAAAAAAAAoE4R6AIAgAaTk7kvplhfRlJGRiymxEDOPwlFrjUaN5WIxWQM+edUUus6u+ddDPbrx9yPhMxx/7zZsu7ZvVaZPvd5y4971bp+AAAAAAAAWO4IdAEAANCgMjJi3TLCPUqn06VHIixj73Rhay06FE+nFd9ofzlkKDnomwIAAAAAAAAsAAJdAADQYEJqDUuR1pCkkNrapXBryD8JRa41amlVWBG1rffPqWQJrPPQcZmKqmd3h3d8Y1w9nZJ5yNTFq4ldAusHAAAAAACAukCgCwAAGk6oNWKHYyG1hp2A0mpx629rm+mLKbbPFezZbYdL7XkN+ZsFZ/qmad87ZCi2z5TpzNlnKldsv2t9LD7X34a47LX9LX2t53hf37o+z5j/vPbrF4+779ezRiG1tYfV2mI/y369aiqvc2289+C/phrXa9r7knJjI66vvDp2p5V+MKqQnHVPyBzyrr+7DbU1Vrmlcm4goVjKlJSVsdf/PVb9HuazfgAAAAAAAFg+CHQBAEDDCW1PFVvhduxOKWoHlDMaN5XYayicKLXn7ek0lXQFhZm+mJKDUfVM17532JAhu82vExpKMlMH1bbfeV5UGkyWnlfhtXu7IjJTvsB4MKmDrb3WnP1xRWQqGYt5xwaTrlAxIyOWlNlZajvcEzbU7QqqS2sUUvTBuJx61o7daaX91a0uc13nTF9MyZG4eottkHsUHTbU7Qtsp12vGu4rdMvW4vrM3F45KyM1ql3F913K9ncrttc9lpWxtzzgD21PWdeniOL700ptL1XaTncPc10/AAAAAAAALC8EugAAAI5To8r6Wg77KzkPDkrRRCn0rNy+N6L4neVBaKTrnlJot3GH4u2S+bQVD+aeOaZse1w7nD1Zi4FkVqOnSmNSVLucwLBlk7a2S2qP6x7fWHbMuprcwMGytsMdu3sUlamDvmrlCyOj44NSdGcp6JY6tLlT0siYp8J22vWq5b5aokrtjysiyUxVr+R1RLp2lMLsW6OSvO+1NTaiMXfAPoPp7gEAAAAAAACoBYEuAACAY+NmRSu2zbXknjmmrKLa7Apd5QR9w6OukLDUtthtuj1SQ9tTxeA4N5Cwgse9hrL+ie1triDU2odV4VbXmFtOJ57MSp2bSwG0VAxQndD3wupQPJ22K1NL7YiTg/55063XLO6rJaqUq+JZsiqou52Wyi6e11vfpkjN+wlXV/0eAAAAAAAAgNoQ6AIAABR1KJ7uVbzdbrdrh43edr1WC99itWcsZu+fOk+uvVq7+7OKJpyWygtgMOm93ioB6oVS2j83KbPdar3c0+mfVYNZ3ldoe8puz+y8x0fK2icDAAAAAAAA9YZAFwAAwCOk6IPO3q5W8Ofdx9a1f67n4WrDPAeZbxnK2uFmuljBukBc+8x6HtPsjztXVnVx+T6zRcW21fY1uPYYnrU531dI0Z2zb58MAAAAAAAAXAwEugAAYFnxthnOaWzE9WWZkKIP9ihq72Mbag1XDAFzA4mq+7LWxrqOyG2bPOGm1eJ5PuyWzL69aaWczH3lLYcXQrU1ijith0+NVmhbbe2rW7ta7sv6PNZXNVqu2hobAAAAAAAAqCcEugAAYJmwQ8DB48Xq0dzAozKGXVOGDMVi7mpcKTdwUKYTQG6Mq6czK2OvqwJ13NSj/VlFd86j0tS+Nk8LYPu8kjQyj71uO3b3KDpsqNsVbFr3HdWu7XO/4qrWtymirI49Y1/z+AkdG3btJbu+TRGZOugKkzN9SZmSbx/i6c18X3YV7mCyQnCdk3nIVKRrx7yqqgEAAAAAAIALgUAXAAAsGx27exVvL+2B2z22S71drl1qN8aVToRl7C3tydrdL8X3l9opd+xOq6fTtY/uXkPhxPxbJPuvLbb3mLbu71G0rKp4tjoUT/co6tpvtrs/rJ4aWkRn+maqcK2gJapUIlrag9i/Pv7jsZiS6rHfh/LK3upquK+NcaXTPQq7Xst6PCrdm1ZqIQPtjTsUb89a3zuzXTOf+Vd8AwAAAAAAoJEECoVCwT8IAI1udHRUzc3N/mEAi6xg/1GQNFWwHvlCQZN56dxUQefy0tl8QWcnpa8/e1qP7VinYDDoPw3Q4HIy+05o0+75VH0DAAAAwMUz9MKof0iStPGGNv+QJOnuwzl98ea1Wr1CWh0MaFVQWtUU0IqgFAwE1BSQmgJSQJKcjzWYmJhQW1vl1wSApYQKXQAAAKCejJ/QMbUS5gIAAAAAAEAi0AUAAADqS+6ZYwrfOlNDbAAAAAAAACwXBLoAAABAHQltT817T2YAAAAAAAA0DgJdAAAAAAAAAAAAAKhTBLoAAAAAAAAAAAAAUKcIdAEAAAAAAAAAAACgThHoAgAAAAAAAAAAAECdItAFAAAAAAAAAAAAgDpFoAsAAAAAAAAAAAAAdYpAFwAANJiczH0xxfoykjIyYjElBnL+SReYdR3GkPVVbiCh2D5TOefzmKGMpExfrDg+oyFDsVhC5rj3HBo3lXC91pI2ZJTuS7LW0bU+7nWs2ZChWCxW9qi8Xtb30sX//qlwr+OmEn2llZlZ/dxLST3+rAIAAAAAANQfAl0AAIBF16F4Oq34Rv/4ImiJKnWhXmuxbYwrnY6rw/4y05eU6ZtSMzvojqWknnRaac+jR0rFigF5PQptTyn9YFQhyQpCHzGU9U8CAAAAAABAQyLQBQAADSak1rAUaQ1JCqmtXQq3WjFYPQq1hqX2NoUkhVojUrjVDu1msL5NEYXV2uI9ByoYN5XYayicSHsC4hIrcO/tkoy97opgLK6l9bMKAAAAAABwsRDoAgCAhhNqjdjBUEit4Yja1peOWe2Jq7XadVojWx+L81wtYSs/z26X7H6OpxWwt+Wyx/o2RewQN9QatsMtp6J0morRllaFnRDXdY6KLZfL2gy7z+u04s1Y7W8rXr/Fe4/l1+ZfA3f73EyftY7eOa5W086Yu41wseWydY3JQUnDhrp9r+19T/3XZVWzqqu3WLXsfj1jqNTqWttT6uk0lSxrZWy3Bq55bcrfa/9x99o47ZQznvvwBsullssZGbFuGcOSBpOeef7XqHSdM/GfY6b7cB+vfB/utuDl1zXdzyoAAAAAAAAsBLoAAKDhhLaniuFdx+6Uoi3W57mBhLr7pfh+u9Xu/rhGUuX7dpqpg2qz5/R2RezgzDtmpkrBYaYvpuRIXL2uFr7RYUPdZcFgBS1RpXbbNaMb40pttwPdlqhS6dK1l+tQ3GnB6z6H35ChWGqkdM/ptHo6s2WVqNn+pEZ3ltYlMmzoUV8gmxyMltoVJ8Iy9pYCvbI12B+X+ru9geBgUgdbe0uvIVPJWMw7Npgsez+kkKIPptXTKak9rl73ugwbSo7tsu+tV/H2rIxHXEHm0BEZiuue7aFiMFu6zl61HbKDYjsQ77gzrsjg8VmsjRM2u9cmKjM1y7UZNpR8cmtxTk+nqaQv1LV0KJ7uVbxdUmdPseK47DVm8z0oVVib0s+HdZ0z36fkfz96FFVWxt6Yut1jruuq9rMKAAAAAACAEgJdAACwTGR0pD+rSNc9pdCoJap7uiLK9h/xBmedu4pzQrdsVUTyPM8ay2r0lCRldHxQiu509jeVpA5t7pQ0MjbrCsmFlnna9NyPJHXcGpU0ojF3JWtnT2nf3ZaodnVK2SdPWNc/burgoBRNuNoVb4yrp1MyD5nKKaexkVIo6pyjfC/fqHYVA+tN2tpuBbRW2Foay47NZtWi6imG2SFFd0al4WM6MS4rhDxkKnLbJoUk5QYelTEcVU9xL1p7vpy2v3bl82zWZuiIjOGI4vvnuzYRxe8tfQ917O5RVKYOloXblSzA9+D4CR0b9l6D5zpnvE9HRPE7nRn2NXjeo1leFwAAAAAAAAh0AQDAMjF0XKYi2npLKfJSMZz1BnjFcE9OwDfd3p7W/qtWOFdqy5wc9M+7ODp2p5W2w7Riu9yU6Z/mvWef3DPHlFVUmz0BpB0MD48qp5A23eZUMleqKrV59vm19k+tec/gaqbdOzin0WHnPc/pxJNZqXNzhT10y78v3KZdGyutVauvstRam2M6MV7r2mzVJs85rOCztnB7/t+D1ntcfh+Ome/TGfHOCbVGZniPAAAAAAAAMBMCXQAAsIxY7V89+4zuNZT1T5ul0r6iSZntVsvank7/rIvEtX9ucjBitV5OWFWps2O1R/asnSsYDm1P2ed1zZvDHq4LanxMI8WAMafRYSl6a3mc6w8hZ22GwPJCrM2CfA/OcB8zHgcAAAAAAMCiINAFAADLiB1oFvcZdR7z2Luz2I7YPlexnW89sFoOW3utzvM+5do71fPwtuAtjiei0qz2cF0sdvX1+JhG/IecylN3UDl0XGZZtewMhkerhLOuoHjWa2O3aq7FQn0PVr0PW9Xj8wzEAQAAAAAAMC0CXQAAsDysb3Pte+syZEzfCncmp0YrtCO29jS9+CpXpWaeLm+5PJ1Qa7h8z11JuYFE9UrTjXH1dkUu7l6pdrts9+cjnhbG1r7KpbbPGRkp07cX7fSqrU3mabN6RWultfG0LVbV966iBfgerHYfjmrHp71PAAAAAAAALAgCXQAAsDy0RHVPV0RmKiGzGEpZAV6ka0eFfVVrtL5NEZk6OFAKCjN9SZmarqLxQgmprV0yD7lC1yHD3lu1Qrhdzca4ejqzMva6gu9xU4/2Z+3wMydzX0wxT8WpFZZGbtt0EcO+Dm3uzOrYM7nSnrT9R+x7yMncZ71P1h651tcjXb32XrQ12rhD8Xbf2thrPLu1ycp4pPQ+Zfqs1sk7armWhfgedO7DdQ3OfryJgVwN9wkAAAAAAIDFQqALAACWjdD2lHq75NpH1wrwUtvnEUe1RJVKRJXt7y7tVaseqwKzQkVjzcZNJWLu8HkuQoo+2KPosKHu4r63Us/+uCJl1arT69idVk+naw/YvYbCibQdfoYUfbBX8ZGka4/dpMzOnvmtrU/HnXFF7HsxhvxHK+u4NVoMcTt29yre7tzDo9K91j6z1nvXrdGd6Tlcb0jRB31rkxpRfP9s1yaq+G3Hiu9TciSu3qqtk0OK7oxKg0nFYgmZmsP3YNn3l30fYdf3iufnY6b7XFjTVn8DAAAAAAAsM4FCoVDwDwJAoxsdHVVzc7N/GMAiK9h/FCRNFaxHvlDQZF46N1XQubx0Nl/Q2Unp68+e1mM71ikYDPpPg+mMm0p4wlZk+mJKDkbV497vt5ohQ7GUqch8g/5ZyA0k1N0fru36lo2czL4T2rS7WqgNAAAAoJ4NvTDqH5IkbbyhzT8kSbr7cE5fvHmtVq+QVgcDWhWUVjUFtCIoBQMBNQWkpoAUkCTnYw0mJibU1lb5NQFgKaFCFwAAoJGcGlVWEbWt9x9Yvjp2p9XbNWJVlnpaH7uMm0q4qk4vVJiLKsZP6JicvY0BAAAAAACWNwJdAACAhmDv1Zoypc5dirb4jy9voe0ppdNp9bYedLU+dj32HtPW/Wml0ynWrg7knjmm8K3UKwMAAAAAAIiWywCWK1ouAxcHLZcBAAAAAGh8tFwGgIVFhS4AAAAAAAAAAAAA1CkCXQAAAAAAAAAAAACoUwS6AAAAAAAAAAAAAFCnCHQBAAAAAAAAAAAAoE4R6AIAAAAAAAAAAABAnSLQBQAAAAAAAAAAAIA6RaALAAAAAAAAAAAAAHWKQBcAADSYnMx9McX6MpIyMmIxJQZy3mOxmGIxQ5khw/roO8PsZGTsM+W8wlKXG0gU1yTTF1Os1nsbMhSLJWSOe89RxjXvQprzfQEAAAAAAAAXGYEuAABYNnIDj8oYjqonnVY6HVfHxrj10T9xFjJ9SZn+QQAAAAAAAABYIAS6AACgwYTUGpYirSFJIbW1S+HWkH8Sqgi1hqX2NoUkhVojUrhVNa3e+jZFFFZri/cc9WLO9wUAAAAAAABcZAS6AACg4YRaI3aIG1JrOKK29Vab3e7+rCRTSacNs6flstWO2RgwlYhZbZmNodK41aa5fDw5KGnYUPcs2gjnBhKK7TOVGUi4zlv+/Eyf93U9bYLHTSViCZlDpeuNOfc17h4rP6/Vfth/P7b1bYrYYWeoNWwH467Xq3aPLa0KOyGu6xw18Vxv+TXVul5zui8AAAAAAACgzgUKhULBPwgAjW50dFTNzc3+YQCLrGD/UZA0VbAe+UJBk3np3FRB5/LS2XxBZyelrz97Wo/tWKdgMOg/zZzlBhLq7g+rx2mzPGQolpL9dU7mvm4ZwxHF96cUbZEd2nbLCPcovdtuzDxkKJYaKc7J9MWUHImr98FozQGmdR1ZqdM5r/06Kp2n/LwZGbGkTOc546YSew1lFS3eT6bPDpjLxkpfW6+t0j3a51FXr1Lba72DefCtn/P64URa8Y3WFP811rJe/udc8PsCAAAAABQNvTDqH5IkbbyhzT8kSbr7cE5fvHmtVq+QVgcDWhWUVjUFtCIoBQMBNQWkpoAUkCTnYw0mJibU1lb5NQFgKaFCFwAAwK1zlx3mSlJOo8NO+2bbxrjSaSfwnY+oepyQWCFFd0al4WM6MS5JGR0flKI73SFxhzZ3ShoZK1XpSop07SjuAdxxa1SSFE2U9gW2xkY0Zp/3SH9Wka57StffEtU9XRFl+4/YlcoXVu6ZY8q2x7XDDnMlKXTLVkWU1egp98zp16ve7gsAAAAAAABYKAS6AAAALt5WvFaImu3v9rY7XgjT7jHboXjaqVjNyLBbCFvVt16e/YHXtykiq8V0RUPHZSqirbd4X9kKUJ3Q98IKbU8p7aqyjcViiu01lPVPnG696vC+AAAAAAAAgIVCoAsAADCNjt1p9XZF7H1y7f1Z+xa/5rO0f25SZntcvem0ejr9s+YiK2Ovd7/aigHqheLaP7e7P6toIq30/rgi/nkzqrP7AgAAAAAAABYIgS4AAMAMQttTSqfTSqftcHcwqcTAgtbreo2bOjgoK9xMp4sVrAsjovh++7yex0K0kfazqounW6vMtwxl7cA6XaxKnosLeV8AAAAAAADAhUOgCwAAMAuh7Sn1dErZseoh5bydGlVWUW32hJvWvrrzsr6twt60koYMxWLGIuw1G1Jbe6W1Cqu1RZJyGhuRIrdt8gTWuWeOza6y9oLfFwAAAAAAAHDhEOgCAABUVaHC1KmevbXDPXFhrW9TRKYOul4305eUKUnDo3Pfy7clqnu6IjJTCZnFfWUzMlKmIl07tPB3FFJrWNLg8WKomnnadO2Hax3P9h8pha7jph7tt+LckbIguIoLfl8AAAAAAADAhUOgCwAAUFWH4ukehfu7Pfuyqqu32Bq44864Ivb+usaQ//lz1BJVKhFV1vW6SfVY7Z41orFiaDl7oe0p9XbJtd9sUiNdvUptn6Gp87ipRMwdmNamY3ev4u2mks59jMTV62oh7T8e23tMW/f3KKpKlb3VXej7AgAAAAAAAC6UQKFQKPgHAaDRjY6Oqrm52T8MYJEV7D8KkqYK1iNfKGgyL52bKuhcXjqbL+jspPT1Z0/rsR3rFAwG/acBFlRuwNCJW+LstQsAAAAAC2TohVH/kCRp4w1t/iFJ0t2Hc/rizWu1eoW0OhjQqqC0qimgFUEpGAioKSA1BaSAJDkfazAxMaG2tsqvCQBLCRW6AAAAWMZyOvGk7D19AQAAAAAAgPpDoAsAALBAMn1Ou99pHn3F3WJRD8ZP6Fh4M/vsAgAAAAAAoG7RchnAskTLZeDioOUyAAAAAACNj5bLALCwqNAFAAAAAAAAAAAAgDpFoAsAAAAAAAAAAAAAdYpAFwAAAAAAAAAAAADqFIEuAAAAAAAAAAAAANQpAl0AAAAAAAAAAAAAqFMEugAAAAAAAAAAAABQpwh0AQBAg8nJ3BdTrC8jKSMjFlNiIFcctz5fOJm+hMxx/+jSlBtIKBYzlJGU6Yspts9UbavlWudxU4lYTMaQ6/CQoVgs5n30ZVwT5iY3kPBe47iphOu8Zcf9hgzFYtb75753AAAAAAAAoJ4Q6AIAAMzVkKHkoH8QbrmBhGKpEcX3p5VOO49exUeS04etNQhtTyn9YFQhyQrsHzGU9U8CAAAAAAAAljgCXQAA0GBCag1LkdaQpJDa2qVwqxX5YXqh1rDU3qaQpFBrRAq32mHpTFzr3NKqsCJqWy9JOZ14MqtI1z2KtnjnR++NKzJs6Ii7kvdCW9+miMJqbfHeOwAAAAAAAFBPCHQBAEDDCbVG7BA3pNawEy5WYLcHdrcC9rQKdloPu447LZutylNTUlbG3lm0ch4yrNa+vjbE/tctb1Psbu1stTg2hqyP3jbG3jH/ea3WwlWOr29TxA5xQ61hOxSX6/Vccz3c6xxSW7sVkko5jQ7759paokql04pvtL7M9FnX711vV/tnzz1aSi2VMzJi3TKGJQ0my1one+/ZtY4trQo7Ia7r3gEAAAAAAIB6EigUCgX/IAA0utHRUTU3N/uHASyygv1HQdJUwXrkCwVN5qVzUwWdy0tn8wWdnZS+/uxpPbZjnYLBoP80c5STua9bx27rVWp7yApz9xoKJ0qhYm4goe5+Kb4/pWiLFSQmR+Lqddr6+p8zZNjthK35NRkyrCC4vXTeTF9MycGoetJxdRTneM/rnZOREUvKVKQ4x7r2rFQ2Vrof/9fO/ajLXpNFYF23PPdbiTMv4lyLfW1ZlY8515sbSKj7ya32ea331wj3KL27Qyq+n1mp0xmz52j6awEAAAAAzM/QC6P+IUnSxhva/EOSpLsP5/TFm9dq9QppdTCgVUFpVVNAK4JSMBBQU0BqCkgBSXI+1mBiYkJtbZVfEwCWEip0AQDAspR75piy7XHtsMNcSQrdslURZTV6SpJyGhuRt+2wr6p07iKK31sKFDvujCsiU8ftCtjM06bUucsTEnfcGpU0orFila48c6xrl6e9sfd+MjrS72t/3BLVPV0RZfuPeCpaF1LH7rR6OiUNG+quVhlcFNUuJ1hu2aSt7VYQfI9vLDtWYzW0JCmqHjvglUKK7oxKw8d0wr2OAAAAAAAAQB0j0AUAAMtSaHtKabtKs9iS164ItWdo022Rii18589pSVxZx+50scq02G44ZfqnuVoi2+2DNc1+wUPHZSqirbd4j1uhry8oXmAdu9NKp9NKp3sUtcfMVKmlcpFnD1trL+Ta9/Gtgn1xAQAAAAAAsMQR6AIAgOXJtX9ud39W0URa6f1xRVxTQttTSieikkwlnerSfaZmUx86J679c5ODEcX3p+3rmC9rv9/SfrL+EHuxdSietsNde10P1rr3MAAAAAAAALBMEegCAIBlKfMtQ9n2uHrtgLFqG+WNcbu61A4hhw119y1sva5XTuYh09r3NZ1WOj2L/XlnZIfDzv0UHwv5GjXauEPxWbdPBgAAAAAAAJYfAl0AALAMWfvjRm7b5GnHm3vm2PTVqhvj6u2KSCNji1ilm9PosBS91dn31ZJ5urzl8qysb3Ptp+syZJS3Pl4oQ4ZisYTMado5e9pGAwAAAAAAAChDoAsAAJYha3/WbP+RUpA5burRfivOHRnLWZWy+2KKeapxMzrSny0LghdWSG3tknnI1dp5yFByUFKlQLZWLVHd0xWRmXIHrBkZKVORrh3yxscLZOMOxduzMvZWCIyHjsgYjmrX9sVbSQAAAAAAAKAREOgCAIBlqWN3r+Ltrr1x9x7T1v09isppAxxS9MFexUeSrj1nkzI7e5RyQshiYOkPfucjpOiDPYoOG+p2Xjcl9dj7+1ph89yEtqfU2yXXPrpJjXT1lu6nqoyMWEzGkH98JiFFH0yrt2uktM7O4+nNSqfjCxgkhxTdGZUGkzNWBc9srvcLAAAAAAAALLxAoVAo+AcBoNGNjo6qubnZPwxgkRXsPwqSpgrWI18oaDIvnZsq6FxeOpsv6Oyk9PVnT+uxHesUDAb9pwEW35AhQ/HqeysDAAAAAKoaemHUPyRJ2nhDm39IknT34Zy+ePNarV4hrQ4GtCoorWoKaEVQCgYCagpITQEpIEnOxxpMTEyora3yawLAUkKFLgAAAOCTeXpEbev9owAAAAAAAMCFR6ALAACwEIYMb0vhio8Ke8miDmV0fGSrNrX4xwEAAAAAAIALj5bLAJYlWi4DFwctlwEAAAAAaHy0XAaAhUWFLgAAAAAAAAAAAADUKQJdAAAAAAAAAAAAAKhTBLoAAAAAAAAAAAAAUKcIdAEAAAAAAAAAAACgThHoAgAAAAAAAAAAAECdItAFAAAAAAAAAAAAgDpFoAsAAAAAAAAAAAAAdYpAFwAANJiczH0xxfoykjIyYjElBnL+SYto/q+fG0goFosVH8ZQ2QzrNZw5+0zN7hUAAAAAAAAALBUEugAAAHUkN5BQd78U359WOp1WOhGVmXKHujmZ+7plhHus4+lexWWouy/jPREAAAAAAACAhkCgCwAAGkxIrWEp0hqSFFJbuxRuDfknLaL5vH5GR/qziiZSirbYQxvj6umUzKftwHboiIzhiOJ3dtgTQoreG1dk8KDMcec8AAAAAAAAABoFgS4AAGg4odaIHaKG1BqOqG196Vimz9WquEq7Ys+cfabMvvJ53vMkPGFqtdfPDSTKzuMxdFymotq80TvcsTut9G4rwM2NjUjtW7XJCXwlqWWTtrZndeyZqmcGAAAAAAAAsEQR6AIAgIYT2p5S3A5FO3aXql0zfTElR+LqTdvtjNM9ig572xX75/SEDRmDxcOlOYNR9TjnSYRl7C21Ra72+qHtKaUfjKpava4V1rYpNG4qUWUP3dxYVgq3VjxHdoxAFwAAAAAAAGg0BLoAAGCZyOj4oBTd6Q5UO7S5U9LImFU1O27q4GBE8XtLczp29yhanO/MkaKJuJymx8W2yIemqb6tQW4sKw0b6n5EuqcYFvv30AUAAAAAAACwnBDoAgCAZaJD8XTarpzNyLCrX5Ou6tvcM8eUVVit7nbGTujrmVOhLfKtUWl4dF6BriWqHncV7wKFxQAAAAAAAACWJgJdAACwbJT2vU3KbLfaKve4wtramUq69+GNxRRLmf5Jc9PeVtZOOdQaWaCwGAAAAAAAAMBSQ6ALAACWh2KrZLuV8TR72c7MtX+u5+FqwzwHodaIf6hMqDVSahHtE2md+x0BAAAAAAAAqE8EugAAYHk4NVqhVbK1r64jdMtWRTSisfFp5rSGpbI5Um4godi++bVFDt2yVZHhYzrhP/dYtli5G2oNS/454yd0bDiirbcQ6AIAAAAALr6mpoB/qOIYAKA2BLoAAGB5WN+miEwdHChFrpm+pEyp1M64JapdnVkZj5SC2eKccKtV0bsxrp7OrIy9hjLOicZNPdqfVXTnfKp+K79+biCh5KBK5964Q/F295yczEcMZTt3KerZ+xcAAAAAgIvjqssv9Q9VHAMA1CZQKBQK/kEAaHSjo6Nqbm72DwNYZAX7j4KkqYL1yBcKmsxL56YKOpeXzuYLOjspff3Z03psxzoFg0H/aeZuyPDuddvZo97Wg+rul+L7U8VANNMXU9Kpyu3sUY+SSqpH6d2lhsqeObJaOcc91b/lcgMJdT+5Vb0ztHvODSTU3Z+1v4p4rs2eIXNft4xh+8v2uPec46YSe49pa9nzAAAAAAC4MMbG39Kb7/5CssPc1pYP+KcU3X04py/evFarV0irgwGtCkqrmgJaEZSCgYCaAlJTQApIkvOxBhMTE2pra/MPA8CSQ6ALYFki0AUujose6M6JFZ4eu61Xqe3TxbD1JTdg6MQtcQJdAAAAAEDdI9AFgOnRchkAAMAxZCgWi8kYco8dkbHk9qfN6cSTUithLgAAAAAAALDkEegCAAA4NsbV2xWRmYopFrMfqZEKLY/r3PgJHQtvVqlBNAAAAAAAAIClipbLAJYlWi4DF8fSbLkMAAAAAAAWEy2XAWB6VOgCAAAAAAAAAAAAQJ0i0AUAAAAAAAAAAACAOkWgCwAAAAAAAAAAAAB1ikAXAAAAAAAAAAAAAOoUgS4AAAAAAAAAAAAA1CkCXQAAAAAAAAAAAACoUwS6AACgweRk7osp1peRlJERiykxkPNPuvDGTSViMRlD/gOz4bqfWZ2v+ppk+mKKxao9DGX8p7rAcgMJxfaZqu0drH6fAAAAAAAAwFJFoAsAALDctcfVm04rXfaIq8M/FwAAAAAAAMAFRaALAAAaTEitYSnSGpIUUlu7FG4N+SctUa77aWlVWBG1rffPqaSR18RtudwnAAAAAAAAlhMCXQAA0HBCrRE7yAupNewNPT0thveZMvusj+7GvLmBhKf1sLetsdXK1xiyPhbn9fmaE9stkYvneMZ7uNIc7zms9sHGQGmOMeS+n5Da2sNqbbFmZ/r8z/eabk1q5W3PnJA5XjrmtEbOeNbOmuNZT3/7ZP8alK13uemuYyHuEwAAAAAAAKgnBLoAAKDhhLanFN9ofd6xO6WoK/RMjpTaC/eEDRmDnqcqN5BQd78U32+3Hd4f10iqfC9WM3VQbc6cRFQaTJaCyHFTib2G1NVrty7ukfoNZd0nKJvTq/hIsizwNPuPaav9OvGN7vsJKfpgqSVyx+600rurN0iutia1yvTFlByMqsdpx5wIy9jrC1+HDSXHdhXvOaqsjL0xdbvHhg11O8GzvQbhRKnNc29XRGbKG9K6zXQd871PAAAAAAAAoN4Q6AIAgOVh3NTBwYji90blNOHt2N2jqGdSRkf6s4p03VMKAluiuqcromz/EbnrXz1zNu5QvF0yn7ZmZL5lKNse1z3bi6+keML3SmVzQoreG1dk2NARd0jauevih5Ljpg4OStGEa0/djXH1dErmIXcAHVH8zmLErM2dkhRVTzFotsdGxpSTlHvmmLLtce2wA1hJCt2yVRFlNXqqNFZU83UAAAAAAAAAjYNAFwAALAu5Z44pq1KLYosTOtqGjstURFtv8e67aoWMIxpzVY1W35s1p7ERKXLbpmJwLEla36ZI8YuMjg9WmNOySVvbpZExV0Ra9XUW0LChbl/bY3crY2vtotrsCl4lqePWqDQ86gpSvesbao1I7W3ee3QJbU8p/aAVsBfbMu/1VTK71H4dAAAAAAAAQOMg0AUAAPCw2gR7ws1pQsZyOY0O+8cktbQq7BvK9nf7QtRuGZWeu9jaS22oSw9/u2JTSX/omzLdE2bPtX9ud39W0YTV4roUfFeyCNcBAAAAAAAA1DECXQAAAI9Iaf/caQPOakJqa/ePSRof04hvKFLcP9f7SBXbMNcT1761noer/fEsOW2nnTDZ2ft2egt/HQAAAAAAAEA9I9AFAADLQqW2yU7r46L1bZX3bx0yFIsZnj10qwupNSxlnzzhbQF8atRV5WuFvllXa2VLRkYsJsO9h24dCLWGpbK1s9sk75vr3rWVW1NbbZUrW5zrAAAAAAAAAOobgS4AAFgeWqLa1ZmV8Ugp+Mv0JWVKUrjVChVborqnKyIzVdo/VsrISJmKdO2ouQK04864IsOGHh0ovpIMT1vgkKL3xhUZTCpRnGNfT3tcO2qqVL2ANsbV05mVsdcVao+berQ/q+hOaw/c2bOD7/4jZeeUvPsIFy3KdQAAAAAAAAD1jUAXAAAsGx270+oJG+q2915Nqkc9nd45oe0p9XbJtY9uUiNdvbNrg9wSVWp/XCrukZuUunx7w5bNiSk5Elfvg3MLJjN9McX6aqshnouO3Wn1dLr2r91rKJyotU1yZR27exVvd5/zmLbu71FUlaqXLXO+jnFTiZg7qAcAAAAAAACWhkChUCj4BwGg0Y2Ojqq5udk/DGCRFew/CpKmCtYjXyhoMi+dmyroXF46my/o7KT09WdP67Ed6xQMBv2nWUA5mfu6dey2WQa2WJJyA4ZO3BKvcS9kAAAAAMCFcvfhnL5481qtXiGtDga0KiitagpoRVAKBgJqCkhNASkgSc7HGkxMTKitrc0/DABLDhW6AABgeRgyFPPvTzt0RMZwRFtvIcxtfDmdeFJqJcwFAAAAAADAEkOgCwAAloeNcfV2RWSmnFbKMcVSI4rvT1GxuRyMn9Cx8Oaa90EGAAAAAAAA6gUtlwEsS7RcBi6O+mu5DAAAAAAALjZaLgPA9KjQBQAAAAAAAAAAAIA6RaALAAAAAAAAAAAAAHWKQBcAAAAAAAAAAAAA6hSBLgAAAAAAAAAAAADUKQJdAAAAAAAAAAAAAKhTBLoAAAAAAAAAAAAAUKcIdAEAAAAAAAAAAACgThHoAgCABpOTuS+mWF9GUkZGLKbEQM4/aVZyAwnF9pma31nqV6Pf30LJDSQUixnK+A/Mm+v7dNxUIhaTMeSfU5n7mjJ9sTm8j/bPS8x+TPt8a275tfnO4bt+6xq9x0uPyuuZ6fP/3FprVP5861GaO/21lBkypr3natcxl/cKAAAAAABgrgh0AQAAZhDanlL6wahC/gPAkpaTua9bRrhH6XRa6XSv4jLU3VcpYpUyfd0yhv2j9jkUV286bZ0nEZWZKgWdoe0p+/yux/64IpIiXTvU4T/jQELJQd+gOhT3nyOdVk+nJEW1a3uopmvxGDeVSJn+0aLK1wEAAAAAAHDhEegCAIAGE1JrWIq0hiSF1NYuhVuJYlHPXN+nLa0KK6K29f45lYVaw1J7m0KSQq0RKdxa+y8eDB2RMRxR/E4nUg0pem9ckcGDMsfdE62q1Irh5vgJHRuOKH6v6xceNsbV0ymZh6pVvuZkPmIo2x7XPdvdV2tV13b3Z11j0xgylByUoom4FQrP4lpyAwnF9hqq/ErTXcfc3ysAAAAAAIC5ItAFAAANJ9QasUPckFrDTuBihVLGkLd1q7edqt1SdsBqpeq0a/W0JB43lYglZA6V5hTPY7dgtcYSvlCsvBWs1RbaZrd+NfvsY/tMPVmxhe7s2kg7157xtL2t3ObW2xrXf/3+4/5rqLy+nnt0zSseL7u/mVjrmBjITNMq2LmW8uc511N5Xax79txnhesbm2ktPd8H/jWo9D3m/j4Nqa09rNYWe/ZM7bDXtylih7ih1rD9iwxemT7/NVhyYyNS+1Ztsl9LktSySVvbszr2jPOKGRmxpMz2uHrtqlqPlqhS6ZSi7nM44XI1TpDsDl6d6trhqHrSPYp6nlBJTuYhU+rsUXyjPVTjteQGEuruzyqacCp8PUdnuI7q7xUAAAAAAMBiIdAFAAANJ7Q9VQx5OnZ7Ax4zlZQSpbav6u8uC0fN/mPaut+aUwyLPLIyUqPa5Wr7mu3vVmyveywrY68T9vlb29otZweT3tceNmTInvNgVLfdGpWGj+mEO1gdOi5TEW29pTy4q2rYUPLJrcU2tD2dppL+IHLYUHJsl319vYq3Z2U8UgoSM30xdfdLcXtdqq5d6qDanDmJqDSYdAWrdjjYWVqHnrChbv+11CDbn9ToTtdaDht6tMaQu8hzzz2KKitjb0zd7rFhfwtiU8Z0azluKrHXkLp6S2s5kiwLZf3fY6Xv05CiD9oVp/b38rTtvluiSu22Z2+MK+WpeJ1ebixbtaI3O+Zcrd3qeLprKJPTiSerndsJYnf5gteQog+mlU6X7n1aZdXF1ZRfi9MCuvLP9szXUe29AgAAAAAAWCwEugAAYHnxVfTd0xVRtv+IN1AsC5vKuff+7LjVquMrtn4tjo1obNzVCtYdPrVs0tZ2d3AmSb45GzcrKne1pJR52iyvqpyRtxqyY3ePojJ10BOARtXjBIMKKbrTFSaPmzo4KEUTrnC8ytpFuu4pzdm4Q/F2yXzaqYo9KNPzOtWupQa+93FXp5R98kT1StaK3Ovdoc32fqyl67PHRsZc551+LTPf8rcSttsYDxs64q4YruF7bMkaOiJjWIreWiHqnO5YzexQuJafgwV5PQAAAAAAgIuLQBcAACwr/mAndMtWRZzg1Vapba2fZ1/e9W2KTLeXprsVbLEdb7eMYf9Ef/tWK1AsBZUZHR+UIrdtqlD5OI2y4Ms+rztMtvdhrejUqLIV7s9aO1PHXUFl9f2K7UrJzs2+isYK11KDWt6jmXnXO9QamX4dNNNaVnl/7PB+xHWPC3P91XjbeycHJQ0mp20jvWDGTSVSvlbILtYvJMS1o8Kxmo2f0LFhKbpzhqrhGa4FAAAAAABgqSDQBQAAWHSugG2voWxnj93W2D+vXMedcUWcStm5tFteMP6weY7cwaI7cGwg2f5u3z1WCu8Xk9M22GkLbVU0O1/Prn3yLNjtprOdPUq7qrBLqgTes5R75piyimrzdCHtjNcCAAAAAACwdBDoAgCA5e3UqLL+sYXm7Pfp7C07m4CpZZO2tlttl+fWbrmSnMZG/GMz8VYxl5RX7k7LHSy6H7NZk7pSvpaR4v653sds9re9EEKtEV876ZJZVxDXEqCOj2lk2iru2uTGstNXUtdyLQAAAAAAAEsIgS4AAFhWnP1cHbmxkQUKSaur+Bp229iZhbTptoiyTx7R8ZE5Vjc6Fb5FOY3OZl/R9W2KKKvRU95hq1Ky1srdkFrD/v1oVaxeTsx2D90auFscO/c8b8OjZdc/OuwEoCG1le2LLEkZGbGYDPceunUg1Bou/96w93ueVRV4rQHqqdGZK2tnZAXoVX8Oar0WAAAAAACAJYRAFwAALC+DyVKwNm7q0f7szHtxzpMVnBk6Ugz0cjIfMazK4LKAs1zolq2KDJsyZxu0FWVlPFLaNzXTl5Q5m31MW6La1SmZqYRMJ/yz1y7StcO3J251Hbt7FB021N1XCtVzA4/KGI5q14JWr9rBanHvYfuefbPmxlTStQetdV7n+kOK3htXZDDpCahnvd4LrGN3lQrojTsUb3d/b9jfl527rP2ea5KRUWOAav1iwzSVtTWxAvTKVb61XwsAAAAAAMBSQqALAACWlUhXXEqV9rMNJ9KKL3bQtjGu3q6ITOd1Y906dluvtbdpWcVnBS2btLVd5VW+NYsqftsxdTt71o7E1TvLfVQ7dqfV2yUZe71rN7s2wh2Kp3sUde2j290fVk86XnMoXJuQog/a4bH9Ogdb7fWer/a4evxr6b7+lqhS++OSax/duay3IzeQUMwVIC+skKIP9iouZ526ZSiu3lmEobmBg1ZQXmFv5FjMkLsePje2AM3N7bbNlczmWhZDpi+mmOuXFQAAAAAAABZKoFAoFPyDANDoRkdH1dzc7B8GsMgK9h8FSVMF65EvFDSZl85NFXQuL53NF3R2Uvr6s6f12I51CgaD/tPMUUZGLKmRrt5ZhpD1YO7XnhtILFJoCsArI6NPis8iEAcAAABguftwTl+8ea1Wr5BWBwNaFZRWNQW0IigFAwE1BaSmgBSQJOdjDSYmJtTW1uYfBoAlhwpdAACAejd03NXWF0BdGjqukYqtoAEAAAAAAOaHCl0AyxIVusDFQYXuLI2bSuw1lFVE8f0pz76mmb6YkoPuyRV09qi39eASqdDNydzXLWPYP+4VWUrvH5aVTF9CY3d6f04BAAAA1IYKXQCYHoEugGWJQBe4OC5uoAsAAAAAAOoRgS4ATI+WywAAAAAAAAAAAABQpwh0AQAAAAAAAAAAAKBOEegCAAAAAAAAAAAAQJ0i0AUAAAAAAAAAAACAOkWgCwAAAAAAAAAAAAB1ikAXAAAAAAAAAAAAAOoUgS4AAGgwOZn7Yor1ZSRlZMRiSgzk/JOWniFDsVhC5rj/QP3JDSQU22eqAVZ9cY2bSsRiMob8B+Zr7j8DuYGEYjFDGUmZvtj83scho/LzhwzFYrHSo9KcIuteytfIvkfXecrnuLnXxGVBrsXLv24LuqYAAAAAAGBZItAFAAAAsLDGTSVSpn/UClBTpqKJtNLptNLpXsVlqLtKyJnp65Yx7B/NydzXLUNx9abt8ySiMlPVw9bcwKPl51mQa/EZMpQc9A8CAAAAAADMD4EuAABoMCG1hqVIa0hSSG3tUrg15J8ENLC5/wyEWsNSe5tCkkKtESncqtqeWZIbSCi211DWf0BS5mlT6uxRfKMzElL03rgiw4aOeMJYq7K4Yjg6fkLHhiOK3xstXdvGuHo6JfNQhTB23NSj/eVXsyDX4pGRUSHEXog1BQAAAAAAyxuBLgAAaDih1ogdYIXUGo6obb19wG5xW2qxarVBdbPao07fxjXTN32r12mPDxnW6/pavfrP4W0Fm5A55jte4XW8rVwzMmIJmQPOeRL68/9aav1aUqUVbRVOO+WMZ53853TNdd+Dr120f629bYGtEM0Ysj4W55Vdp+94lerK6qz7TwxkvC18y9bS/x55163yulj37LnPStc35v2+LPtemOEecwMJxfrM0vX3Zar+DMzYDnt9myJ24BhqDduhsNd058gNJNTdn1U0kVZPp/+o1LE7rfTuDu9gS6vCnoGMjFhSZntcvfvjiniOSWqJKpVOKdriHQ61ls203qdHDKmrR/F275EFuRaXTF9SZmdP+X3XsKYAAAAAAADTIdAFAAANJ7Q9Vay669htBz/jphJ7DYWL7VXT6uk0lfTtddndL8X323P2xzWScgeNVoiXHHG1erXnWCGcfXwwqp5pW8GaSh5qK56jp1MyU65Q1N8Kdv9WHev3Vv5l+nzXke5RdNhQtyfwzMrol30tKf3mp7YqIlPH3dcyfkLHhqXorb5gazrDhpJPbnVdv6mkP9QdNpQc21VqZduelfFIaa0zfbGytVZ/d9ler2bqoNqcOYmoNJh0raUdtnX2lN7TsKFu/7XUINuf1OjO0rVEhg09WuO+s0Wee+5RVFkZe2Pqdo+VvUeS2X9MW1336P1+qfEeBw0du63XmrO7o/LPgP2zkX7QVdnq1xJVygk5N8aV2l51ZkWh7Sml02lX1WsNho7LlOsXL9SheDo9/XWWyenEk9my6ler1XJUu2q9j7ley5Ch5GBE8Tsr/BzNc00BAABQX/L5Kb39zi80/sbbejX3lsZOvaHRV16/oI+xU2/o1dxbGn/jbb39zi+Uz0/5LxMA0GAIdAEAwPJwalRZT1BjV+gVg5qMjvRnFem6p1T51xLVPV0RZfuPWOFZpVavLVGlnABr6IiM4Yji++MqxjoVW8F6z9FxZ9wVtOZkHvK1grWvoySj44NSdKc7ZOrQ5k5JI2OeyslI147StbRs0tZ2yXy6FAXmnjmmrKLaPJsAzn/9u3sUlamDngA0qp5i9WNI0Z1RafiYToxb4frBQSmacFVZ+tfa5nk/Nu5Q3HX9uYGDMj2vU+1aauBb712dUvbJExWrUKtzB3r2++G5vmrvkfsevd8vtd/jLELLumJ/v7dv1SZfxe2sDB2RUfaLCdbPdDTh+nmc1lyvxXqe530EAABAw3l94h1lfzqmH50c0c9feV3vvPO+zp49J0kKBpsu6EOSzp49p3feeV8/f+V1/ejkiLI/fUWvT7zju2oAQKMg0AUAAMvDxs3Fikl/FahUqszbeos3FAvdslURjWhs3Ak/w2qtEtrkxkakCsc7bnWFmVLFOSU5jZYFU/Y+nEVW1aAVQJba8Vba49O7d2pIm26LSIPH7dDUrmrs3Fxj4GUrC7ysoDI75lpXe8/QiiqE6yqutbeCuPrer9WuvcK11GBh2uB639dQa2T6dZCkCt9z1vfLqHKzuccZX2d+3O29u/uz0rCh7mIb6NlXRDsyfd3WL0G4f0litsZNJVL+/XBLLZBrrRae67XkBh6VobjuWZKBOgAAAGby5lvv6eTzL+vNt95T81WX65c/cq06brxO14fX67prQ2pdv07rr2m+oI/W9et03bUhXR9er44br9Mvf+RaNV91medaAQCNhUAXAAAsEx2Kp3sVb5ey/d1V9iu1At/SHqgxxfYayrqnzBSczXR8JuNjGvGPyd6H0/VlKWCz9/e0WzfPJLR9l6JOaDqXdssLZrpQexYGk973q0qwvaTVwT127HZae6fV2xWR7O85a6zWClivTF/MalO8v3w/3JrZrdSznT3e/XCHDKv1uX+P3CrmfC3jph7t16xDYAAAANS/ycm8hn92SmOn3lDo6ivV/ksbdHXzFVqzepV/6kW3ZvUqXd18hdp/aYNCV1+psVNvaPhnr2hyMu+fCgBYogh0AQDAMhJS9EEnhLLCXTOVkFmsnI2U9nT1PFwhz/Do9G14qx6vMcBsaZW7Frfo1GgpWC62LLavb6b9PT2s6k7z6cwc2y1XktNYxRR6OlbVc7nyyt1pufaW9TxqDPLqkVXp7dKA9zjnANWtWpgrKfO0ae1VXQzBu2UMO+G4t6J4Ptdi/Qx5fxEkOWjtp9wdc/9vCwAAAJaS06fP6rnhURUKBbVfv0FXr7tCBfv/pgoFTRWmNFWYUn7K+3DGpwrObOv/5iP3i/f07edP6t9/76/1r/7rN9T5jcfU+Y3H9Ln/+g39++/9tb79/EnlflGqyG1Zd6Xar9+gQkF6bnhUZ86e95wPALA0EegCAIBlKqTogz2KKqvRU04FrP2525BRDICstsfVgsjqxzNPm7Oo3A2pzbfPrfwh36nRCkGsta9uLTpujUqDx3VkrFI73xp42kerapvoqqqs9Uwtrb1Cspbbux+tlJO5r0pb7Xka8bRxtu55/iqsw1jW/n658Pd4IcwnQC2aJsyVr6LYeli/wGGF46WK4vleS2h7qixo7+mUXcE8t3MCAADg4jp77ryyP3tFq1atVOT6DVq1aoUkqVCQHeYWlC8UdH5qquIjb8+ZKhRUsLPcuYS6J3OvKvX9Qd35X/6T7vyz/6TkE3+tQ5kT+u7Psvruz7JKZ04o+cRf684/+0/6F//lj5T6vqlMzvrLxerita/U8y+M6oy91y8AYOki0AUAAMvDkKGYr2IuN3BQphOMtkR1T1fEV7GbkZEyFenaYQVAG3co3p6V8YjpCtisPWwTA7nS8b2uCsAhQ8lBKbqz1irakKI7o9JgstQOetzUo/2uxs/r2xSRqYOuQC/Tl5Sp6SqEXTZuVlSmzMFZhLAe3jXI9Fltn3fUWunbEtWuTl91tH2PxbWuQcfuHkWHDXX3lcLv3MCjMoaj2rWg+5laIXv2yRPee/bNmivPOvi+Xy7cPdYutD01y6rwktxAYl4BqiUjY5owt1YLcy0AAABoJPn8lH46ckorV65Q5PoNxSC2ULBCWSvMndL5/JTO5/M6l5/UWftxLj+p8/m8zuenlHdX6c4h1P2zoWf1xb86pH/7t9/R02Mv+Q+X+Yexl/Vv/3ZAX/yrQ/ovQ88UxyPXb9DKlSv0sxdfVX5qyvMcAMDSQqALAACWh41xpRNhT2vU7n4pvr9UrRfanlJvl1xzkhrp6lWqGJxZLZt7woa6i61c3XPs452uVq+pEcX3pxWvNeyUc61RmSn7HHuPaWtXtHS8JapUIurZCzipHmtv0woVwuWstssqq/KtVVTx244V1yA5ElfvLAO+jt1p71rvNRROpF1rXYsOxdM9irr2mO3uD6tnjnu6VmdXcw+X3veDrb017Vk8s4jiia065qxD2ffLwt5jbiCh2D73LyRcSBkd6c9W3qva+aWIGli/iFF5b2F/O+XqFuZa5mXcVIK2zAAAAHXllVcnpEBAN7a3ecLcqUJB+amCJqdKQe7/nBjXwZ/9WPuePap9z35fB3/2Y518c7wY7E5OTSk/NftK3a8++V39n4//uf7+57Pe10Y/+PmL+j8f/ws9/OR3i2M3trdJgYDGTr3hmQsAWFoChYLz/04AYPkYHR1Vc3OzfxjAIivYfxQkTRWsR75Q0GReOjdV0Lm8dDZf0NlJ6evPntZjO9YpGAz6T4N5y8nc1y0jPPsKx9xAYl6BIoCS3IChE7fEqRAGAACoA6fPnNPzL4wpcv0GrV27SvK1WZ6cmtLkVF5/MpzRf/jJ0xqfOicFJDXZNVNTBakwpQ3BtUp2bNZvhj+qFU1BrWhqUlMgoKZAQIGANTUg+xOfR37whB7470d0Pp/3jH868sva1fGPteXaDyt81Tq9d+6sfjL+mp5//TX9xY9/pG8/f9Izf0VTk77yz/6FfucTn5IkvX/6rLI/fUUfuaFVa9dY91Zv7j6c0xdvXqvVK6TVwYBWBaVVTQGtCErBQEBNAakpYC25nI81mJiYUFtbm38YAJYcKnQBAACWm/ETOjYcUfxOIlng4snpxJOqcc9oAAAALLaxU2/ompYrdcna1VKFNsvnpib1W383oHt+/KRyTZMqrF6hwprVKqxaaT3WrFJh9SqNBc5p9w+f0L3/8Lc6P5Wv2H65kr/48Y/01Sf/1hPmfrTlGj199+/qyP/6b/S/fuwWXd98tZoCAV2xeo02t12nz//KrfrWv/rX+vqOmNasWFl83uTUlL76d9/Vn5/8oSTpkrWrdU3LlTr12kRxDgBgaaFCF8CyRIUucHFQoXuxZWTErL1fowlfG+ghQ7HUTLvCRnVP14geXRIVunYV8rB/3CviaakNXEDjphLfalVqllXyAAAAWHjvvndaY6feUOT6VjU1BYrhq1OZe34qr8987y/1t2/nVFjVJAVXWKVSgYAu/+DVCiigd06NW3/hzRekfF6B83l97pqwvv7xqFa6KnUDgfIK3XfPntG/+q9/ou8M/7g4trntOv315/foitVrJElPj72sx58/qedef035qSnd0vohbWm7Tp8Kt0uSvv/iC/on/b3F50vSP2//qP7sN7+gK9es0dRUQdmfjuna1qt16SXWOesJFboAMD0CXQDLEoEucHEQ6AIAAAAA6s0rr06oUCiodf06SVaQW5C1b+75qbz+bPik7v6f31dh1UppZdBKFpsCCra16Eftv66CCvqV4e8q//Nxp0+zdC6vwPnzMj/xL/SJD7ZpZVNQwaaAArLaL7v1PfsD3f1Xh4pff/CyK/Sjvffr6ksu1Rvv/0L/6s//RH/z0+c9z3Hc8ZGb9Ge/+QX93+Zh/dEzf+8/rK/viOlf3/IJya5CllS8z3pCoAsA06PlMgAAAAAAAABg2Xrr7fd02aVrPWNOhW5+akqPDP8PFVYEpWCT9bD3zb37mnbdtPpyday+Ql+8pt3eUzdgzVkRkIJBfSVzXPkpu+1yldKqv3ou4/m651NRXX3JpTozeV7/9D/3Vg1zJenbz5/Up/74Uf2nZ3/gPyRJ+qvnS+e+7NK1evud9z3HAQBLA4EuAAAAAAAAAGBZmpzM68zZ87rsUm8bYnvXW428+5Z+8v47paA2EFDTtSHd96vb9P9c/cvF+X9w9S/ry7+6VU3XXiMFAlJTUIWgdOyt13R6crJ4Pr8fvTqmJ14s7RVz9SWX6rf+8RZJ0n2Df6X/+dop1+zK/sepUVVrxPnEyLB++OqYJOmyS9fozNlzmpws7dO7GF5//XX/kDTNOABgZgS6AAAAAAAAAIBl6fxkXsFgk4LB0j+VO8FroSD97N23pWCp3+9HrvuQ/v6XtumhdTdqdaD0nNWBJj287qP6wfXb1H7dtfYeu02abJJOvvl6sTrXH+q+MPG6fnHuXPHrz/zyx7QyGNQ7Z8/oj//HU565c/H++fN64Y1xSVIw2KRVq1bo/CIHuv/xP/5H5XI5z9gbb7yhhx56yDMGAKgdgS4AAAAAAAAAYFkqFApasSLoHy5a5QS9hYCkgG5YfZmuX3Wpf1pR+8rLFPYdP1eoHqC+/Nabnq83XrNBkvQPYy/r9PnznmN+l69erX/7a/+87PEvOzZ55r38duk11q5eVbWad6FMTEzoK1/5il577TVJ0ptvvqmHHnqICl0AmAcCXQAAAAAAAADAsjQ1VR7oBhSwPgakG69cJ00VpEBBCkiPv/ATfWh4UPe88WO9PTVZfM67hUn9XxM/0bUvDGrwheesJ6ugQKGgG69otr50nbv4vHNnPF9/YI21l+/Im294xiv5D//kdvV86p+XPT7/sV/1zHvv3Nni52vWrNLU1OIGuuvWrdObb76pr3zlK3ruuef00EMPaXx8XOvWrfNPBQDUiEAXAAAAAAAAALAsFQqFspBVdvAaUEAtay7R9Wsuk/JT0tSUVCjo9Muv6v/77N/r99/6aXF+z8SwvvbM3+kXL9l73k5NSVMFfWTtlWpes7Z4Pj9/tOqEr1etvcR3xKvl0svUcc16ff/FF4qPidPvS5LeOesNiVc0lQLrycl8MVxeLA888IDWrVunt956Sw899JBee+01rVu3Tg888IB/KgCgRgS6AAAAAAAAAAC4BAJSUyCgYFOT9ly/UYF83g51C1YKG5B6X39Br+fP6aXzp7X/jZ9a++wWJE1JmpxSIJ/XAzfeomBTk5oCgZqC1Odet9oUO62Xqxn/xXv69f+8X/+kv1f/pL9Xv/6f9+vMpNWi+cW3Jjxzr76k1AL69NlzCgart5heCFdffXUx1JVdsfvAAw/o6quv9k8FANSIQBcAADSYnMx9McX6MpIyMmIxJQZy/kmzkhtIKLbPVG1nmfvr5wYSisUMZSRl+mIVX9Oa45y/Fu7rmSvrPowh/3g11mvWet+SlOlLyBz3j87BuKnEvO5V0pChWMy6Hvd7AgAAAGB5CASsCt2mQEDBQJP+9Ud+RZ+4NCRN5qV8vhjqvv/Sq/rfX/4HfWn0hM6/+Jo9XpCmJqXJvH79yg36TPgjCgbsQFczh7p/89PnJUnt61r0T38p4j9c1b/s2KQNl18pSfrbn2U9x9rXtRQ/P3PmnIJNix8LOKHuRz7yEcJcAFgAi/+/3AAAAFggOZ14MqtoZ1QaPLgwAWhNOhRPpxXf6B+vJqTog2mltof8ByobMpQc9A/ORU7mI4a8/3QBAAAAAHPjVOmuaGrSn39yhz7ctEY6n5fyk8Vq3b/O/ljfyZ60wtzJvDQ5KZ3P65dWrNWfbv20VsyiOleSTuZeLQayX9v+Wa1ZsdI/pcwH1qzV//PP75LsvXePvlRqBX1T6IO6seUaSdLpM+dUKEgrVlyYWMAJdQlzAWD+Lsz/cgMAAFwwIbWGpUhrSFJIbe1SuLXGYHFBzP31Q61hqb1NIUmh1ogUbpXnmeMndGw4orY7NyuqrI49U3sFLGZhfZsiCqu1xfueAAAAAFg+/FW6V6xao4FPfkaXnp+Szk5K589L585bIe75vPX1+UnpzKQuP1fQ4Cc/q8tWrJ5Vda7j/za/pfzUlG4KfVDpnf+HLl+92j+lKHTpZfpuV7c+eNkVkqT44W/qfD5fPN55w41abx977xendfllaxWo9UIAAHWDQBcAADScUGvEDlFDag1H1LZexTbAxoCpRCymmLuF8HhpLBar3OrYL9Pnmm+353VUfv0aWjevb1PEDnFDrWE7FC7JfMtQtn2rNrV0aHOnlH3yRIVz2S2WnWvrO+E9al9Dxmnd7Lr+YjvnsjXwtlye7hz2jLKWy971Kh3LDSQUS5mSsjL2OuMZGbGEzAGj7Nz+85SuMyMj1i1jWNJg0tMm2XNfZS2wK7yWWhV2QlzXewIAAABgeQjICjydCl2nSve6y6/Ulz50k9qDa3S9VuvDWqkP51fow1Mr9GGt1PVarfYVa9R9XYc2XHZ5sTrXXaHrnHs6P3p1TA/89yOSpNsjN+mHX7pfu2/+uFavWFGc0xFar//305/VD790v37lg62SpD/4u7/V9198oTjnQ1depTtv/EfFr9/7xRl94IrSfroAgKUjUCgUCv5BAGh0o6Ojam5u9g8DWGQF+4+CrG5UUwUpXyhoMi+dmyroXF46my/o7KT09WdP67Ed6xQMBv2nmaOczH3dMoYjiu9PKepsITRkKJYyFenqtVsE2/MUV++DUYXsQLD7ya3FrzN9MSUHo+pJx9XhOkc0MZu2xLOVkRFLasS5ziFDsdSI914qXLt1rZI6e5Te3WHdS3+2+LVzXlOlOcUx39ey76/8HP7Xtb4+dpt1rZm+mJIjpWvSuKnEXkNhZ73K7sW5JtcaO/fiPk/ZddrXEXa+du7f9Z7br63i+135tQAAAAAsD+++d1qnXntTkes3+A+pYP0tVoWC9flUwXrkpwqaKkxpquDMkAJywt8mBZusENdfmVspzP33T/y1kt/7a/+wJOnzv3KrDuz4lzW1Xf7qk9/Vvu8+rvzUVHHs97b9M/2Hf3q7ZN/nyMuvqePGD6npAuyhO1t3H87pizev1eoV0upgQKuC0qqmgFYEpWAgoKaA1BSw1lnOxxpMTEyora3NPwwAS079/S83AADAYurc5Q1AD5lSZ49rv9eQovfGFRk2dMSp4HUbN3VwUIomXOHfxrh6OiXz0DTVt/M1dFymItp6i32dG622y8a3nDpUSUNHrMD6XifwlDp29yhammGLKH6nc/VWta8UVY8dghbHRsamuR/3/JCiO6PS8DGdKNvXN6exEXnbR7dElaphT95I1w5XwJrR8UEpurN0bzNeZ/G9coXeLVHd0xVRtv9IsYJXZa8FAAAAAN5KXaf98nMT49py2NCWv+zXlr/6z67HN6yxvzSUffONmsLcmfzJD59WR+9XZL7wE01VqMuanJrSkecz2vyHf6AH/vsRT5j72V/+mP6PTZuLX7+ae1MfDF1Vl2EuAGBm/K83AABYVrxtjHMaHfaPSWrZpK3tkvm0O/Kz5J45pqyi2uwLIztujUrDo5WDxQWQedqU2rdqUzGM7tCOrog0eLzUWnhsxDdHxX18vaz9YR2h1sjs94mteX5Im26LlLVBroV37+EOxYshsNUCOhazq4+rOTWqrEotrx2hW7YqIlPHXYF9rfscAwAAAFhe/O2Xb2wO6aU3XtePX39Vz43n9Pzrr+v511/Xc6/n9OPXX9XomxOKXHX1rNssVzPy5hv69P/vD3X1V/4/uuNP/0i/M/CX+v+3d/+xcdaHHcc/5wtJmh9L6vyoSFxKWpJVWsa0QVZ1FLVUE4YKRlu17jYxqV3QWAdamTpprQhsCkTrtE3KKlhXKVH/KJqqtKJFrRpSrWMVoE5LUCfkbczdgDETRkIMaRIwTuzbH3dnnx87Ib9sP757vaQnvvs+z3Ox43/unne+z/fzj34nH/n6V7Pqz7+Yj5e0LOkAABPDSURBVP79rhw4+L+Tzum94r354rW/nvd0r06SvPTyUEZGTmXNqvpaugDMP4IuANDxzj3m7cv21nVc+/oa68DOkMZM0/x0d+5s+Tvv/NpA0hImD704UDyzsY5vcWx2rb3x/uzZ1jv53+1MawmfxsT6uduzb+PWPLBnT+69vnhU0eR4DQAAcK4ac21TSSWLqtX85ft7c8XSlcnJUxPbyMlsXLoif/VrvVlUrU4652I4OjycvT/993z5n3+UnT/+p+z7r//I8ZE3i4flt668Kn963Y35lXXvTJK8fOi1vPTyq3nXO9em0izMF9HAwMBF2QA4M0EXAOh4z704fVqcMnN3XG/u3bMne6ZsM7MGa3NW8NS/84FsbZlJvHb9puKpE7c8nmtXbp34vrf11uP0rnOYrzt+++TGa4yvo/tWnsuLU24DnWSambsAAABn4/d+aUsGPn1Xxj63PWN/+Gf17XPb85+f/qP87i9eVTx8Vvz86rX5i+t/I1+5qS/v63lXkuT48Tfy4v8dyfpLV2XZ0sXFUy6aTZs2XfAGwJkJugBAB6vfjnigGHQP/ySP/3T6mbtr12+YNhIe2rvtvGadvrVD+ckTA8n175smFjdvZ/yN7Dvc+N6mrGNbv610qVy5NQ98ZtPp176dzkuD09zqur6u7mld2pNNGcjgS5OH64HczF0AAGB+W/9zK3Pzz2/OX9/w0Xznt27LH1/z4SxftChJ8uprxzPw7MF0r1yWd6xZWTwVgHlG0AUAOtja9H6qN/nB9mzb20yLh7Jv5+4MbNyamwvr5Cb1GHnv9QPZfUfLerCH9+XLXxtI76fOdtboOXj6u9n906T3V6fm3IyvBzuQxw8cSq68OVs3DmT3zomw3L9re2bwZtBn4VD23d2Xvkmzcfvz3a8NZNMHfvns/70u7cmm7Ms3xn9PLT/b6dYuXtOb37w+2Xf/tuxrRu7G72rTZ26eJpADAADMrg9dfkX+8TN3ntP2w0/fmX/9gz/Jgd//fL7z27flrvd/KJtW1z9djY3V8tLLQ3nuhZez/tJVufyydxT/SgDmIUEXAOhsV27Nnge3Jl+7s7E+653ZveHeM97Sd/Nte3Lv9S3rwd6xOxu27cnW6QJwi/OZxdv/L/uSKTNTW6z55Vy7MRl44ic5lLXp3fFAtmZird3t2ZqtG4snzabG9/Tc9pY1h7dn3/X35v4bG//CzRB9RzH8tljTm/u39WZg/PfUl+25tz7Td3zG9ESg7+urR9zNt+3JA59J/bVbflfjf/c56t91hu8RAADgHH3w8ivOefvQhivyi++4NGuXLp/0Wq++djwD//1iDr1yNBvfvc7MXIA2UqnVarXiIEC7GxwcTHd3d3EYmGG1xh+1JGO1+jZaq+XUaDIyVsvIaPLmaC1vnkr+7qk38rc3r0q1Wi2+DMyh/uzelWy9zfxeAABoB8eOv5GXXn41m96zrrir9IaHR3Li9eEcOzGc118fzujoWNasXpE1q1akWp2duVwDAwMXZQ3c279zKL9/1duyaEGyqFrJwmqysKuSBdWkWqmkq5J0VZJKkjS/noWhoaH09PQUhwHmHUEX6EiCLsyNswm6I6O1DAu6lNXTu7PtxZvPe4YvAABQLs2gO5+cGh3N8PBIkmTBgmpWrliat69YlmVLF6dSOdvUeXFc7KC7eEGyUNAFmELQBTqSoAtz47RBdyw52Yi5bwq6lFj/rm158Zb707umuAcAAJiPxmq11Mbm1yXyerOtpKvrbLPmzJmJoFufoVvJJdVkQZegCxBr6AIAZXS2H8xgtm2+TcwFAIB20lWppFrtmldbV1dXKWLuxdZ+PxHAxSPoAgAl4yMcAAAAtLPbb789t99+e3HYNQGA0xB0AYA5VWn5uFZp3DZplpf8AQAAAGbJ9CF36jWB1usFAJ1O0AUA5kTxg9n4B7ZzWAsHAAAAmD+aMffWW2/NV7/61Un7JsXclgsDxesHAJ1I0AUAZtekijvxZdLmkxoAAAC0ldaYe+211xZ3T8zQLUbcaa4jAHQaQRcAmBstMTeVxge3StLV2AAAAID2UIy5jz/++JRbLzevBzSvD6T1Dl6uEwAdTtAFAObMeMxtPG5+cOsyRRcAAADawnQx96GHHioelq5KZfw/eo/P0LUsE0Ai6AIAc2H8g1mSSiY+sHVVKqlWkmolWbm4K/93fLRw5tk4lH1396VvV3+S/uzu68u2vYfGx+uPy+3Q3m3pu3tfJr7T+s/R19eXvru/lW9djJ/j6d3p69uWfYcnPz60d1v6+nanv3j8GfTvarwOAAAAtDhdzC2uobtycdf49YCuSmVipm7j6kHrdQSATiToAgBzpvmBrJLJt1uudiWbuqv5h/8eTq1WK552ntamd8ee3H/j2uKO0ll74/3Zs6M3ze+0f9f27Nu4NQ/s2ZM9Oz6RT5Tp53h6d7b/oDgIAAAAGY+2zTVzi1+bNnVXU+0q3HZZyAUYJ+gCALNm/EPYxPTcpOWDWj3m1mfpfvBdl2Tw6Ml8/SfHcvBnpyZe5C2tzfoNyab1a5OsTc/GZMP6ksTPsrq0J5uyIevXJGvXb0g29ozHZAAAALgQrTNxp3ue1K8BVBvXBMZvuVwsuo2vAi/QiSq1izftBWDeGBwcTHd3d3EYmCW1xh+1JGO15lbLaC0ZHUtOjSWnxmo5NZb86H9OZmBoNK8NjxVfBgAAAJinVi7uyqbuaj74rkuyoCtZ0FXJgq76Xbtab73cDLw5j/V0h4aG0tPTUxwGmHcEXaAjCbowt1qDbjPq1hpBd2wsOTUedici72gj+taPnTi3+ToAAABAubSG2Oas23qkrd+dqxlvF3RVUu1KFlSSrsZYpbmWbuF1zoWgC7QLQRfoSIIuzK3mm4/mu5Cx8dm69WA71gi49ZhbHxtthNzmsc2oO13OnToCAAAAzLTpg2tlPOZWGsstVSrNWbgTSy9VGzG3GXybx6Zxbv2Vzo2gC7QLQRfoSIIuzL3WqDseaGvJWBpRd8o2eXZu89xW3tQAAADA3CuG19Yg2zpLt3lL5UlbKvX427qW7jSveTYEXaBdCLpARxJ0oRxqjT9qjccTcXci6jbHp87MnS7oelsDAAAAc60+v7bleSHots7UbT6uP588m7fSOOl8Ym4EXaCNCLpARxJ0oRzG34RMG3XrgXby84ljJ53fNGUAAAAAmHWFAtt82hpoW2fgVpqzcqeJua3nnytBF2gXgi7QkQRdKI9i1G2OFQNurfGg9Y2LNzEAAABQfq1BdiLqNubxFkJu6zEtX86LoAu0C0EX6EiCLpTLpEjb8qQZdlufNx94AwMAAADzx+kibWvIbT4ff9wyfj4EXaBdCLpARxJ0oZxag+2k52+xDwAAACi38Tg7XdQ9w74LIegC7ULQBTqSoAvlNeWNiYALAAAAbacYcU/z9IIIukC7EHSBjiTowvxwxjcpZ9wJAAAAlMoZSu0Zdl0QQRdoF4Iu0JEEXZhfvFkBAACA9jNTIbdJ0AXahaALdCRBFwAAAADam6ALtIuu4gAAAAAAAAAA5SDoAgAAAAAAAJSUoAsAAAAAAABQUoIuAAAAAAAAQEkJugAAAAAAAAAlJegCAAAAAAAAlJSgCwAAAAAAAFBSgi4AAAAAAABASQm6AAAAAAAAACUl6AIAAAAAAACUlKALAAAAAAAAUFKCLgAAAAAAAEBJCboAAAAAAAAAJSXoAgAAAAAAAJSUoAsAAAAAAABQUoIuAAAAAAAAQElVarVarTgI0O4GBwfT3d1dHAYAAACAGfXg3v5878ALee3Em8VdHWXl0kW56erLcseNm4u7LpqhoaH09PQUhwHmHUEX6EiCLgAAAACz7Xf+5rEcPDqSkcrCVLqqxd0dpTY2moW1kaxbsTBf/9x1xd0XhaALtAu3XAYAAAAAgBn24N7+HDw6kpPVt3V8zE2SSlc1J6tvy8GjI3lwb39xNwAtBF0AAAAAAJhh3zvwQkYqC4vDHW+ksjDfO/BCcRiAFoIuAAAAAADMsNdOvGlm7jQqXdWOX08Y4K0IugAAAAAAAAAlJegCAAAAAAAAlJSgCwAAAAAAAFBSgi4AAAAAAABASQm6AAAAAAAAACUl6AIAAAAAAACUlKALAAAAAAAAUFKVWq1WKw4CtLvBwcF0d3cXhwEAAABgRrz/C9/OJctXFYfPzjVb8thHVmV5cTxJcjyP3P1E7isOZ3O+uaMnG1qHDg/m6p39rSMNl+cr97w3Wxa3jp3M/u//MJ998nT7p3ruqUfzyYeLo2/t5LEj+fGXPlYcvmBDQ0Pp6ekpDgPMO4Iu0JEEXQAAAABm08UIuq9ME0zvueuG3LKmEHU//oEcuGpZjj37TK7b/XxjsBlliwG4EX6LsbfxGtNH2vo5qye9/vkTdAHOzC2XAQAAAABgnrpv52Cey7Jc+fHGwDVb8lgjxE6Orc/ns/c9mkcOL8st92zJrc3hj6/MhhzPI8WZuw8/kUcOJxt+oeVYAOaEoAsAAAAAAPPc6rdfniS5Z8uqLB8+kkemzKqtu2//kRxbvCq3NALwrW9fVDxk3H07H83V9+3PQ8UdAMwqQRcAAAAAAOara96W1UleefX5JJdn3fLk2MHDp4+wTx7OM8MTAfihZ36WY1mWW3bckG82Z/kCUCqCLgAAAAAAzEuX5ysfXpXlOZ6nH06SZVm9uHjM9JYvX1Z/8OT+XPf9IzmWZMNVN+TAjsbWeltmAOaUoAsAAAAAAPPApOC644Yc2PHebMmR7Lz7idxXPPhcPLk/1939aK6++9HsfPZkfWzxqty144Y8trU+kxeAuSPoAgAAAADAPPDcU/XoOmmbtMbt8bwyPOmU0zp27HhxKEny0O4fNl77mewfTpa/uyf3FA8CYFYJugAAAAAA0Baez8FjyfJ1a05/u+Rr1uS9i5tr7p7J8/nsvx1PsijrrinuA2A2CboAAAAAANAm7tt/JMcWr8otHy/uqbtny6osHz6SRx5OfQ3ee27Igbs2Fw9r8WYOPlkcA2A2CboAAAAAANAuntyf6546ng1XFde/rcfbW9YczyPjt2luzMJd0zPNWrmX5yu/sCzHnh28sPV5AbhglVqtVisOArS7wcHBdHd3F4cBAAAAYEa8/wvfziXLVxWHz841W/LYR1bllacezScfLu48nc355o6ebGgdOjyYq3f2t440THNsTmb/93+Yz047O7d+/Opnn8l1u9/q1s1v7eSxI/nxlz5WHL5gQ0ND6enpKQ4DzDuCLtCRBF0AAAAAZtMFBd02J+gCnJlbLgMAAAAAAACUlKALAAAAAAAAUFKCLgAAAAAAAEBJCboAAAAAAAAAJSXoAgAAAAAAAJSUoAsAAAAAAABQUoIuAAAAAAAAQEkJugAAAAAAAAAlJegCAAAAAAAAlJSgCwAAAAAAM2zl0kWpjY0WhztebWw0K5cuKg4D0ELQBQAAAACAGXbT1ZdlYW2kONzxFtZGctPVlxWHAWgh6AIAAAAAwAy748bNWbdiYS4ZfcNM3cbM3EtG38i6FQtzx42bi7sBaFGp1Wq14iBAuxscHEx3d3dxGAAAAABm1IN7+/O9Ay/ktRNvFnd1lJVLF+Wmqy+b0Zg7NDSUnp6e4jDAvCPoAh1J0AUAAACA9iboAu3CLZcBAAAAAAAASkrQBQAAAAAAACgpQRcAAAAAAACgpARdAAAAAAAAgJISdAEAAAAAAABKStAFAAAAAAAAKClBFwAAAAAAAKCkBF0AAAAAAACAkhJ0AQAAAAAAAEpK0AUAAAAAAAAoKUEXAAAAAAAAoKQEXQAAAAAAAICSEnQBAAAAAAAASkrQBQAAAAAAACgpQRcAAAAAAACgpARdAAAAAAAAgJISdAEAAAAAAABKStAFOlK1Ws3o6GhxGAAAAABoA6Ojo6lWq8VhgHlJ0AU60pIlSzI8PFwcBgAAAADawPDwcJYsWVIcBpiXBF2gI61YsSK1Wi0nTpwwUxcAAAAA2sTo6GhOnDiRWq2WFStWFHcDzEuVWq1WKw4CdIqjR4/m9ddfF3UBAAAAoA1Uq9UsWbJEzAXaiqALAAAAAAAAUFJuuQwAAAAAAABQUoIuAAAAAAAAQEkJugAAAAAAAAAlJegCAAAAAAAAlJSgCwAAAAAAAFBSgi4AAAAAAABASQm6AAAAAAAAACUl6AIAAAAAAACUlKALAAAAAAAAUFKCLgAAAAAAAEBJCboAAAAAAAAAJSXoAgAAAAAAAJSUoAsAAAAAAABQUoIuAAAAAAAAQEkJugAAAAAAAAAlJegCAAAAAAAAlJSgCwAAAAAAAFBSgi4AAAAAAABASQm6AAAAAAAAACUl6AIAAAAAAACUlKALAAAAAAAAUFKCLgAAAAAAAEBJCboAAAAAAAAAJSXoAgAAAAAAAJSUoAsAAAAAAABQUoIuAAAAAAAAQEkJugAAAAAAAAAlJegCAAAAAAAAlJSgCwAAAAAAAFBSgi4AAAAAAABASQm6AAAAAAAAACUl6AIAAAAAAACUlKALAAAAAAAAUFKCLgAAAAAAAEBJCboAAAAAAAAAJSXoAgAAAAAAAJSUoAsAAAAAAABQUoIuAAAAAAAAQEkJugAAAAAAAAAlJegCAAAAAAAAlJSgCwAAAAAAAFBSgi4AAAAAAABASQm6AAAAAAAAACUl6AIAAAAAAACUlKALAAAAAAAAUFKCLgAAAAAAAEBJCboAAAAAAAAAJSXoAgAAAAAAAJSUoAsAAAAAAABQUoIuAAAAAAAAQEn9P6E5ExjsmOlcAAAAAElFTkSuQmCC;" vertex="1" parent="1">
          <mxGeometry x="190" y="280" width="1908" height="956" as="geometry" />
        </mxCell>
        <mxCell id="3BIfrz-TAk5w8rxtMMOB-2" value="" style="endArrow=classic;html=1;rounded=0;strokeColor=#ff0000;exitX=0.5;exitY=0;exitDx=0;exitDy=0;" edge="1" parent="1" source="3BIfrz-TAk5w8rxtMMOB-4">
          <mxGeometry width="50" height="50" relative="1" as="geometry">
            <mxPoint x="664" y="290" as="sourcePoint" />
            <mxPoint x="520" y="349" as="targetPoint" />
          </mxGeometry>
        </mxCell>
        <mxCell id="3BIfrz-TAk5w8rxtMMOB-4" value="&lt;font style=&quot;font-size: 22px;&quot;&gt;View in the backend provided by Django Rest Framework&lt;/font&gt;" style="text;html=1;align=center;verticalAlign=middle;whiteSpace=wrap;rounded=0;" vertex="1" parent="1">
          <mxGeometry x="250" y="400" width="230" height="70" as="geometry" />
        </mxCell>
        <mxCell id="3BIfrz-TAk5w8rxtMMOB-5" value="" style="labelPosition=right;align=left;strokeWidth=2;shape=mxgraph.mockup.markup.curlyBrace;html=1;shadow=0;dashed=0;strokeColor=#FF0000;direction=north;flipH=0;" vertex="1" parent="1">
          <mxGeometry x="720" y="860" width="20" height="250" as="geometry" />
        </mxCell>
        <mxCell id="3BIfrz-TAk5w8rxtMMOB-6" value="&lt;span style=&quot;font-size: 22px;&quot;&gt;Data structure that is to be rigidly followed for an adminstrator account to be created. This ensures that the integrity of the application is maintained&lt;/span&gt;" style="text;html=1;align=center;verticalAlign=middle;whiteSpace=wrap;rounded=0;" vertex="1" parent="1">
          <mxGeometry x="380" y="950" width="340" height="70" as="geometry" />
        </mxCell>
        <mxCell id="3BIfrz-TAk5w8rxtMMOB-7" value="" style="endArrow=classic;html=1;rounded=0;strokeColor=#ff0000;exitX=1;exitY=0.75;exitDx=0;exitDy=0;" edge="1" parent="1" source="3BIfrz-TAk5w8rxtMMOB-8">
          <mxGeometry width="50" height="50" relative="1" as="geometry">
            <mxPoint x="1834" y="1090" as="sourcePoint" />
            <mxPoint x="1690" y="1149" as="targetPoint" />
          </mxGeometry>
        </mxCell>
        <mxCell id="3BIfrz-TAk5w8rxtMMOB-8" value="&lt;font style=&quot;font-size: 22px;&quot;&gt;Submits the data to the view, and if the data is valid, an administrator account is created&lt;/font&gt;" style="text;html=1;align=center;verticalAlign=middle;whiteSpace=wrap;rounded=0;" vertex="1" parent="1">
          <mxGeometry x="1320" y="1120" width="230" height="70" as="geometry" />
        </mxCell>
      </root>
    </mxGraphModel>
  </diagram>
</mxfile>
